<?xml version="1.0"?>
<svg xmlns="http://www.w3.org/2000/svg" xmlns:xlink="http://www.w3.org/1999/xlink" version="1.1" id="Capa_1" x="0px" y="0px" viewBox="0 0 419.2 419.2" style="enable-background:new 0 0 419.2 419.2;" xml:space="preserve" width="512px" height="512px"><g><script xmlns="" id="tinyhippos-injected" class="active-path" style=""/><g>
	<g>
		<g>
			<circle cx="158" cy="144.4" r="28.8" data-original="#000000" class="active-path" fill="#CCCCCC"/>
			<path d="M394.4,250.4c-13.6-12.8-30.8-21.2-49.6-23.6V80.4c0-15.6-6.4-29.6-16.4-40C318,30,304,24,288.4,24h-232     c-15.6,0-29.6,6.4-40,16.4C6,50.8,0,64.8,0,80.4v184.4V282v37.2c0,15.6,6.4,29.6,16.4,40c10.4,10.4,24.4,16.4,40,16.4h224.4     c14.8,12,33.2,19.6,53.6,19.6c23.6,0,44.8-9.6,60-24.8c15.2-15.2,24.8-36.4,24.8-60C419.2,286.8,409.6,265.6,394.4,250.4z      M21.2,80.4c0-9.6,4-18.4,10.4-24.8c6.4-6.4,15.2-10.4,24.8-10.4h232c9.6,0,18.4,4,24.8,10.4c6.4,6.4,10.4,15.2,10.4,24.8v124.8     l-59.2-58.8c-4-4-10.8-4.4-15.2,0L160,236l-60.4-60.8c-4-4-10.8-4.4-15.2,0l-63.2,64V80.4z M56,354.8v-0.4     c-9.6,0-18.4-4-24.8-10.4c-6-6.4-10-15.2-10-24.8V282v-12.8L92.4,198l60.4,60.4c4,4,10.8,4,15.2,0l89.2-89.6l58.4,58.8     c-1.2,0.4-2.4,0.8-3.6,1.2c-1.6,0.4-3.2,0.8-5.2,1.6c-1.6,0.4-3.2,1.2-4.8,1.6c-1.2,0.4-2,0.8-3.2,1.6c-1.6,0.8-2.8,1.2-4,2     c-2,1.2-4,2.4-6,3.6c-1.2,0.8-2,1.2-3.2,2c-0.8,0.4-1.2,0.8-2,1.2c-3.6,2.4-6.8,5.2-9.6,8.4c-15.2,15.2-24.8,36.4-24.8,60     c0,6,0.8,11.6,2,17.6c0.4,1.6,0.8,2.8,1.2,4.4c1.2,4,2.4,8,4,12v0.4c1.6,3.2,3.2,6.8,5.2,9.6H56z M378.8,355.2     c-11.6,11.6-27.2,18.4-44.8,18.4c-16.8,0-32.4-6.8-43.6-17.6c-1.6-1.6-3.2-3.6-4.8-5.2c-1.2-1.2-2.4-2.8-3.6-4     c-1.6-2-2.8-4.4-4-6.8c-0.8-1.6-1.6-2.8-2.4-4.4c-0.8-2-1.6-4.4-2-6.8c-0.4-1.6-1.2-3.6-1.6-5.2c-0.8-4-1.2-8.4-1.2-12.8     c0-17.6,7.2-33.2,18.4-44.8c11.6-11.6,27.2-18.4,44.8-18.4c17.6,0,33.2,7.2,44.8,18.4c11.6,11.2,18.4,27.2,18.4,44.8     C397.2,328,390,343.6,378.8,355.2z" data-original="#000000" class="active-path" fill="#CCCCCC"/>
			<path d="M368.8,299.6h-24.4v-24.4c0-6-4.8-10.8-10.8-10.8s-10.8,4.8-10.8,10.8v24.4h-24.4c-6,0-10.8,4.8-10.8,10.8     s4.8,10.8,10.8,10.8h24.4v24.4c0,6,4.8,10.8,10.8,10.8s10.8-4.8,10.8-10.8v-24.4h24.4c6,0,10.8-4.8,10.8-10.8     S374.8,299.6,368.8,299.6z" data-original="#000000" class="active-path" fill="#CCCCCC"/>
		</g>
	</g>
</g></g> </svg>
