<?xml version="1.0"?>
<svg xmlns="http://www.w3.org/2000/svg" height="512px" viewBox="0 0 496 496" width="512px" class=""><g><script xmlns="" id="tinyhippos-injected" class="active-path" style=""/><path d="m496 384v-283.3125l-100.6875-100.6875h-283.3125v100.246094l-42.96875 35.808594c-33.703125 28.089843-53.03125 69.359374-53.03125 113.234374v150.710938h-16v96h160v-96h-16v-16zm-96-356.6875 68.6875 68.6875h-68.6875zm-16-11.3125v96h96v256h-332.007812c.878906-1.320312 1.894531-2.566406 3.039062-3.71875l62.34375-62.34375c6.847656-6.847656 10.625-15.960938 10.625-25.65625 0-20.007812-16.273438-36.28125-36.28125-36.28125-9.695312 0-18.808594 3.777344-25.65625 10.625l-34.0625 34.0625v-268.6875zm-240 400v16h-128v-16zm-128 64v-32h128v32zm16-80v-150.710938c0-39.113281 17.230469-75.898437 47.28125-100.9375l32.71875-27.261718v174.285156c-1.710938.386719-3.464844.625-5.257812.625h-10.742188v16h10.742188c10.691406 0 20.738281-4.167969 28.289062-11.71875l38.34375-38.34375c3.824219-3.824219 8.921875-5.9375 14.34375-5.9375 11.175781 0 20.28125 9.105469 20.28125 20.28125 0 5.421875-2.113281 10.511719-5.9375 14.34375l-62.34375 62.34375c-7.550781 7.550781-11.71875 17.597656-11.71875 28.289062v18.742188zm0 0" data-original="#000000" class="active-path" fill="#CCCCCC"/><path d="m320 224h-48v128h144v-48h48v-128h-144zm80 112h-112v-96h32v64h80zm-64-144h112v96h-112zm0 0" data-original="#000000" class="active-path" fill="#CCCCCC"/><path d="m375.136719 259.824219-17.480469-17.480469-11.3125 11.3125 30.519531 30.519531 53.535157-71.375-12.796876-9.601562zm0 0" data-original="#000000" class="active-path" fill="#CCCCCC"/><path d="m144 32h16v16h-16zm0 0" data-original="#000000" class="active-path" fill="#CCCCCC"/><path d="m176 32h192v16h-192zm0 0" data-original="#000000" class="active-path" fill="#CCCCCC"/><path d="m144 64h224v16h-224zm0 0" data-original="#000000" class="active-path" fill="#CCCCCC"/><path d="m352 96h16v16h-16zm0 0" data-original="#000000" class="active-path" fill="#CCCCCC"/><path d="m144 96h192v16h-192zm0 0" data-original="#000000" class="active-path" fill="#CCCCCC"/><path d="m144 128h320v16h-320zm0 0" data-original="#000000" class="active-path" fill="#CCCCCC"/><path d="m144 160h112v16h-112zm0 0" data-original="#000000" class="active-path" fill="#CCCCCC"/><path d="m144 192h112v16h-112zm0 0" data-original="#000000" class="active-path" fill="#CCCCCC"/></g> </svg>
