<svg height="512pt" viewBox="0 -64 512 511" width="512pt" xmlns="http://www.w3.org/2000/svg"><path d="m368.464844.5h-224.398438c-34.902344 0-63.199218 28.296875-63.199218 63.199219v238.867187h350.800781v-238.867187c0-34.902344-28.296875-63.199219-63.203125-63.199219zm0 0" fill="#ff285a"/><g fill="#c30048"><path d="m431.667969 63.699219c0-34.902344-28.296875-63.199219-63.199219-63.199219h-112.203125v302.066406h175.402344zm0 0"/><path d="m344.898438 193.300781h-177.265626c-30.515624 0-55.167968 24.691407-55.167968 55.167969v54.097656h287.601562v-54.097656c0-30.476562-24.648437-55.167969-55.167968-55.167969zm0 0"/><path d="m271 95.832031c0 8.285157-6.714844 15-15 15s-15-6.714843-15-15c0-8.285156 6.714844-15 15-15s15 6.714844 15 15zm0 0" fill-rule="evenodd"/></g><path d="m399.53125 248.464844c0-30.515625-24.691406-55.164063-55.164062-55.164063h-88.101563v109.265625h143.265625zm0 0" fill="#a1003c"/><path d="m190.667969 95.832031c0 8.285157-6.714844 15-15 15-8.285157 0-15-6.714843-15-15 0-8.285156 6.714843-15 15-15 8.285156 0 15 6.714844 15 15zm0 0" fill="#c30048" fill-rule="evenodd"/><path d="m270.734375 95.847656c0-8.191406-6.582031-14.84375-14.734375-14.988281v29.972656c8.152344-.144531 14.734375-6.796875 14.734375-14.984375zm0 0" fill="#a1003c" fill-rule="evenodd"/><path d="m351.332031 95.832031c0 8.285157-6.714843 15-15 15-8.285156 0-15-6.714843-15-15 0-8.285156 6.714844-15 15-15 8.285157 0 15 6.714844 15 15zm0 0" fill="#a1003c" fill-rule="evenodd"/><path d="m95.332031 383.964844c-8.28125 0-15-6.714844-15-15v-32.132813c0-8.28125 6.71875-15 15-15 8.285157 0 15 6.71875 15 15v32.132813c0 8.285156-6.714843 15-15 15zm0 0" fill="#006072"/><path d="m416.667969 321.832031c-8.285157 0-15 6.71875-15 15v32.132813c0 8.285156 6.714843 15 15 15 8.28125 0 15-6.714844 15-15v-32.132813c0-8.28125-6.71875-15-15-15zm0 0" fill="#003a4d"/><path d="m58.425781 96.898438c-32.269531 0-58.425781 26.160156-58.425781 58.425781 0 28.777343 20.8125 52.679687 48.199219 57.519531v74.722656c0 8.285156 6.714843 15 15 15h49.269531v-151.625c0-29.800781-24.246094-54.042968-54.042969-54.042968zm0 0" fill="#ff6379"/><path d="m453.574219 96.898438c-29.800781 0-54.042969 24.242187-54.042969 54.042968v151.625h49.269531c8.285157 0 15-6.714844 15-15v-74.722656c27.386719-4.839844 48.199219-28.738281 48.199219-57.515625 0-32.269531-26.15625-58.429687-58.425781-58.429687zm0 0" fill="#ff285a"/><path d="m48.199219 287.566406v49.265625c0 8.285157 6.714843 15 15 15h386.132812c8.285157 0 15-6.714843 15-15v-49.265625zm0 0" fill="#ff285a"/><path d="m463.800781 336.832031v-49.265625h-207.535156v64.265625h192.535156c8.285157 0 15-6.714843 15-15zm0 0" fill="#c30048"/></svg>