<svg height="480pt" viewBox="0 0 480 480" width="480pt" xmlns="http://www.w3.org/2000/svg"><path d="m240 0c-132.546875 0-240 107.453125-240 240s107.453125 240 240 240 240-107.453125 240-240c-.148438-132.484375-107.515625-239.851562-240-240zm0 464c-123.710938 0-224-100.289062-224-224s100.289062-224 224-224 224 100.289062 224 224c-.140625 123.652344-100.347656 223.859375-224 224zm0 0"/><path d="m384 240h-288c-4.417969 0-8 3.582031-8 8 .035156 46.878906 21.738281 91.109375 58.800781 119.816406.292969.253906.605469.488282.933594.695313 54.390625 42.015625 130.300781 41.980469 184.648437-.085938.375-.238281.726563-.507812 1.058594-.800781 36.914063-28.71875 58.523438-72.855469 58.558594-119.625 0-4.417969-3.582031-8-8-8zm-223.863281 117.847656c1.464843-34.289062 36.664062-61.847656 79.863281-61.847656s78.398438 27.558594 79.863281 61.847656c-47.53125 34.867188-112.195312 34.867188-159.726562 0zm174.261719-12.105468c-8.109376-37.316407-47.308594-65.742188-94.398438-65.742188s-86.289062 28.425781-94.398438 65.742188c-24.585937-23.644532-39.359374-55.6875-41.371093-89.742188h271.539062c-2.011719 34.054688-16.785156 66.097656-41.371093 89.742188zm0 0"/><path d="m168 192c22.089844 0 40-17.910156 40-40s-17.910156-40-40-40-40 17.910156-40 40c.027344 22.082031 17.917969 39.972656 40 40zm0-64c13.253906 0 24 10.746094 24 24s-10.746094 24-24 24-24-10.746094-24-24 10.746094-24 24-24zm0 0"/><path d="m312 192c22.089844 0 40-17.910156 40-40s-17.910156-40-40-40-40 17.910156-40 40c.027344 22.082031 17.917969 39.972656 40 40zm0-64c13.253906 0 24 10.746094 24 24s-10.746094 24-24 24-24-10.746094-24-24 10.746094-24 24-24zm0 0"/></svg>