<svg height="480pt" viewBox="-56 0 480 480" width="480pt" xmlns="http://www.w3.org/2000/svg"><path d="m344 282.894531v-58.894531c-.039062-30.910156-25.089844-55.960938-56-56h-39.601562c2.53125-5.089844 4.449218-10.460938 5.722656-16h1.878906c13.253906 0 24-10.746094 24-24-.066406-13.226562-10.773438-23.933594-24-24v-24c4.417969 0 8-3.582031 8-8-.042969-39.746094-32.253906-71.9570312-72-72h-16c-36.644531.0507812-67.421875 27.585938-71.527344 64h-24.472656c-4.417969 0-8 3.582031-8 8s3.582031 8 8 8h32v24c-13.226562.066406-23.933594 10.773438-24 24 0 13.253906 10.746094 24 24 24h1.878906c1.273438 5.539062 3.195313 10.910156 5.722656 16h-39.601562c-30.910156.039062-55.960938 25.089844-56 56v58.878906c-15.671875 22.660156-24.0429688 49.570313-24 77.121094v112c0 4.417969 3.582031 8 8 8h352c4.417969 0 8-3.582031 8-8v-112c.042969-27.546875-8.332031-54.449219-24-77.105469zm8 149.105469h-56v-89.375c.015625-6.367188-2.515625-12.476562-7.03125-16.96875l-.570312-.566406c-10.53125-10.480469-16.4375-24.738282-16.398438-39.59375v-38.488282c48.007812 16.78125 80.121094 62.132813 80 112.992188zm-264-46.601562 33.976562-32.796876c14.03125-13.589843 21.972657-32.269531 22.023438-51.800781v-60.800781h8v24c0 17.671875 14.328125 32 32 32s32-14.328125 32-32v-24h8v60.800781c.042969 19.539063 7.988281 38.230469 22.023438 51.824219l33.976562 32.773438v78.601562h-192zm24-99.902344v-43.015625l.753906-.167969c1.484375-.296875 2.980469-.519531 4.476563-.761719 1.066406-.167969 2.128906-.367187 3.203125-.511719 1.863281-.246093 3.726562-.40625 5.597656-.566406.664062-.058594 1.320312-.144531 1.976562-.183594v60.511719c-.03125 15.199219-6.210937 29.742188-17.136718 40.3125l-22.871094 22.085938v-20.574219c0-2.121094.84375-4.15625 2.34375-5.65625l.570312-.570312c13.546876-13.46875 21.140626-31.796876 21.085938-50.902344zm45.511719-205.496094c-6.773438 9.527344-17.554688 15.402344-29.230469 15.929688h-.28125v-15.929688zm81.015625 0c-3.378906 9.554688-12.394532 15.957031-22.527344 16h-7.839844c-11.832031-.441406-22.785156-6.355469-29.648437-16zm-110.527344 32v-.0625h.425781c15.300781-.503906 29.675781-7.457031 39.574219-19.136719 10.03125 11.839844 24.644531 18.824219 40.160156 19.199219h7.839844c8.683594-.03125 17.117188-2.914062 24-8.207031v32.207031c-.019531 12.722656-4.363281 25.0625-12.320312 34.992188-12.945313 16.296874-33.902344 24.011718-54.328126 20-1.757812-.335938-3.507812-.757813-5.238281-1.265626-1.714843-.503906-3.410156-1.078124-5.082031-1.75-8.882812-3.640624-16.699219-9.476562-22.710938-16.960937-7.960937-9.933594-12.304687-22.285156-12.320312-35.015625zm40 120v-25.800781c.335938.082031.671875.105469 1.007812.175781 1.71875.359375 3.449219.640625 5.191407.871094.753906.105468 1.496093.25 2.25.328125.597656.066406 1.191406.105469 1.789062.152343.601563.050782 1.042969 0 1.601563.074219 1.398437.078125 2.792968.199219 4.199218.199219 1.601563 0 3.242188-.121094 4.855469-.230469.371094 0 .738281 0 1.105469-.058593.527344 0 1.054688-.078126 1.601562-.136719.796876-.078125 1.527344-.222657 2.292969-.328125 1.722657-.238282 3.433594-.511719 5.136719-.871094.335938-.070312.6875-.09375 1.023438-.175781v57.800781c0 8.835938-7.160157 16-16 16-8.835938 0-16-7.164062-16-16zm77.128906 8.800781c.589844.0625 1.183594.101563 1.773438.183594 3.074218.382813 6.082031 1.03125 9.097656 1.648437v42.871094c-.054688 19.105469 7.539062 37.433594 21.089844 50.902344l.566406.570312c1.5 1.5 2.34375 3.535157 2.34375 5.65625v20.566407l-22.863281-22.078125c-10.925781-10.574219-17.109375-25.117188-17.136719-40.320313v-60.320312c1.710938.121093 3.433594.128906 5.128906.320312zm82.871094-16.800781v39.65625c-.175781-.175781-.375-.328125-.558594-.503906-2.753906-2.695313-5.609375-5.261719-8.570312-7.703125-.621094-.511719-1.253906-1.015625-1.886719-1.519531-3.054687-2.449219-6.191406-4.800782-9.449219-6.960938-.214844-.152344-.445312-.28125-.664062-.425781-3.152344-2.070313-6.398438-4-9.703125-5.789063-.625-.347656-1.238281-.699218-1.863281-1.027344-3.390626-1.785156-6.859376-3.417968-10.402344-4.902343-.710938-.304688-1.421875-.585938-2.132813-.871094-3.65625-1.472656-7.363281-2.847656-11.144531-4l-.375-.105469c-1.601562-.488281-3.25-.917968-4.882812-1.34375-.144532-.046875-.246094-.136718-.390626-.175781-.433593-.113281-.871093-.183594-1.304687-.289063-1.160156-.296874-2.34375-.535156-3.519531-.800781-.558594-.117187-1.113282-.261719-1.679688-.375-.382812-.078125-.761718-.183593-1.144531-.253906l-1.527344-.289063c-1.601562-.296874-3.199219-.519531-4.800781-.761718-1.128906-.167969-2.238281-.375-3.367188-.511719-.800781-.09375-1.527343-.152344-2.296874-.238281-.769532-.089844-1.511719-.136719-2.265626-.199219l-1.269531-.121094c-.800781-.0625-1.601562-.167969-2.464843-.222656-2.734376-.167969-5.535157-.265625-8.335938-.265625h-16v-23.609375c.96875-.480469 1.953125-.917969 2.894531-1.445313.800781-.457031 1.601563-1 2.402344-1.488281 1.679687-1.03125 3.34375-2.074219 4.933594-3.199219.921875-.664062 1.777343-1.402343 2.65625-2.105468 1.394531-1.113282 2.761719-2.242188 4.066406-3.457032.878906-.800781 1.703125-1.664062 2.535156-2.519531.710938-.726562 1.480469-1.390625 2.152344-2.144531h50.359375c22.066406.027344 39.957031 17.902344 40 39.96875zm-66.296875-101.542969c1.488281 1.457031 2.316406 3.460938 2.296875 5.542969 0 4.417969-3.582031 8-8 8v-16c2.160156-.003906 4.222656.882812 5.703125 2.457031zm-85.703125-106.457031h16c27.824219.035156 51.417969 20.464844 55.433594 48h-126.867188c4.015625-27.535156 27.609375-47.964844 55.433594-48zm-72 112c-.003906-2.160156.886719-4.222656 2.457031-5.703125 1.457031-1.488281 3.460938-2.316406 5.542969-2.296875v16c-4.417969 0-8-3.582031-8-8zm-64 96c.027344-22.082031 17.917969-39.972656 40-40h50.398438c.851562.953125 1.785156 1.816406 2.683593 2.71875.484375.488281.949219 1 1.453125 1.472656 2.003906 1.90625 4.109375 3.699219 6.3125 5.367188.34375.257812.703125.472656 1.046875.722656 1.921875 1.390625 3.90625 2.6875 5.953125 3.886719.664063.382812 1.335938.753906 2.007813 1.121093.671875.367188 1.425781.847657 2.167969 1.214844v23.496094h-16.023438c-11.46875.011719-22.894531 1.464844-34 4.328125-3.449219.878906-6.832031 1.9375-10.183594 3.085937-1.023437.355469-2.023437.738282-3.03125 1.113282-2.402344.898437-4.800781 1.847656-7.160156 2.878906-1.03125.449219-2.058594.890625-3.066406 1.371094-2.722656 1.261718-5.390625 2.621094-8 4.070312-.488282.273438-.992188.503906-1.46875.800782-3.089844 1.753906-6.101563 3.621093-9.042969 5.597656-.796875.539062-1.542969 1.105468-2.320313 1.648437-2.164062 1.539063-4.296874 3.136719-6.398437 4.800781-.878906.703126-1.75 1.410157-2.617187 2.136719-2.132813 1.777344-4.199219 3.621094-6.199219 5.535157-.609375.570312-1.230469 1.113281-1.832031 1.695312-.199219.203125-.421876.386719-.625.585938zm-1.511719 65.96875c14.339844-19.886719 34.402344-34.921875 57.511719-43.105469v38.632813c.039062 14.855468-5.867188 29.113281-16.398438 39.59375l-.570312.566406c-4.515625 4.488281-7.050781 10.597656-7.03125 16.96875v89.375h-56v-72c-.066406-25.128906 7.804688-49.640625 22.488281-70.03125zm-22.488281 158.03125h56v16h-56zm336 16h-56v-16h56zm0 0"/></svg>