<svg height="480pt" viewBox="0 0 480 480" width="480pt" xmlns="http://www.w3.org/2000/svg"><path d="m456 400v-264c-.027344-22.082031-17.917969-39.972656-40-40h-112v16h112c13.253906 0 24 10.746094 24 24v264h-400v-264c0-13.253906 10.746094-24 24-24h112v-16h-112c-22.082031.027344-39.972656 17.917969-40 40v264h-24v40c.0273438 22.082031 17.917969 39.972656 40 40h400c22.082031-.027344 39.972656-17.917969 40-40v-40zm-177.367188 16c-3.402343 9.582031-12.464843 15.988281-22.632812 16h-32c-10.167969-.011719-19.230469-6.417969-22.632812-16zm185.367188 24c0 13.253906-10.746094 24-24 24h-400c-13.253906 0-24-10.746094-24-24v-24h168.800781c3.828125 18.613281 20.199219 31.976562 39.199219 32h32c19-.023438 35.371094-13.386719 39.199219-32h168.800781zm0 0"/><path d="m56 384h368v-256h-136v16h120v224h-336v-224h120v-16h-136zm0 0"/><path d="m240 168c-13.253906 0-24 10.746094-24 24v24h-72c-13.222656.074219-23.925781 10.777344-24 24 .050781 10.710938 7.1875 20.089844 17.496094 22.992188l16.65625 66.695312c4.429687 17.824219 20.441406 30.332031 38.808594 30.3125h94.078124c18.363282.003906 34.371094-12.496094 38.816407-30.3125l16.640625-66.679688c3.9375-1.039062 7.527344-3.109374 10.398437-6 4.589844-4.464843 7.15625-10.605468 7.105469-17.007812 0-13.253906-10.746094-24-24-24h-72v-24c0-13.253906-10.746094-24-24-24zm-8 24c0-4.417969 3.582031-8 8-8s8 3.582031 8 8v64c0 4.417969-3.582031 8-8 8s-8-3.582031-8-8zm-93.550781 42.304688c1.457031-1.492188 3.464843-2.324219 5.550781-2.304688h72v16h-72c-4.417969 0-8-3.582031-8-8-.003906-2.15625.882812-4.214844 2.449219-5.695312zm171.886719 91.503906c-2.667969 10.691406-12.273438 18.195312-23.296876 18.191406h-94.078124c-11.015626 0-20.621094-7.496094-23.289063-18.183594l-15.433594-61.816406h63.203125c3.335938 9.585938 12.375 16.007812 22.527344 16.007812 10.148438 0 19.1875-6.421874 22.527344-16.007812h63.199218zm25.664062-93.808594c4.417969 0 8 3.582031 8 8 .003906 2.15625-.882812 4.214844-2.449219 5.695312-1.457031 1.492188-3.464843 2.324219-5.550781 2.304688h-72v-16zm0 0"/><path d="m240 288c-4.417969 0-8 3.582031-8 8v32c0 4.417969 3.582031 8 8 8s8-3.582031 8-8v-32c0-4.417969-3.582031-8-8-8zm0 0"/><path d="m278.0625 335.761719c.632812.160156 1.285156.238281 1.9375.238281 3.667969-.003906 6.859375-2.5 7.753906-6.054688l8-32c1.035156-4.273437-1.566406-8.582031-5.832031-9.648437-4.265625-1.070313-8.589844 1.503906-9.691406 5.757813l-8 32c-.511719 2.0625-.1875 4.242187.90625 6.0625 1.09375 1.820312 2.867187 3.128906 4.925781 3.644531zm0 0"/><path d="m199.761719 294.054688c-1.101563-4.253907-5.425781-6.828126-9.691407-5.757813-4.265624 1.066406-6.867187 5.375-5.832031 9.648437l8 32c.894531 3.558594 4.09375 6.054688 7.761719 6.054688.65625.003906 1.308594-.078125 1.945312-.238281 4.289063-1.070313 6.894532-5.417969 5.824219-9.707031zm0 0"/><path d="m313.601562 80h-41.601562v-80h-64v80h-41.601562l73.601562 84.152344zm-89.601562 16v-80h32v80h22.398438l-38.398438 43.847656-38.398438-43.847656zm0 0"/></svg>