<svg version="1.1" id="el_SQXZWJi_f" xmlns="http://www.w3.org/2000/svg" xmlns:xlink="http://www.w3.org/1999/xlink" x="0px" y="0px" viewBox="0 0 500 500" style="enable-background:new 0 0 500 500;" xml:space="preserve"><style>@-webkit-keyframes kf_el_eyAoMlm8IX_an_fulvKKQyx{0%{-webkit-transform: translate(229.78468322753906px, 323.2752990722656px) rotate(0deg) translate(-229.78468322753906px, -323.2752990722656px);transform: translate(229.78468322753906px, 323.2752990722656px) rotate(0deg) translate(-229.78468322753906px, -323.2752990722656px);}17.78%{-webkit-transform: translate(229.78468322753906px, 323.2752990722656px) rotate(5deg) translate(-229.78468322753906px, -323.2752990722656px);transform: translate(229.78468322753906px, 323.2752990722656px) rotate(5deg) translate(-229.78468322753906px, -323.2752990722656px);}35.56%{-webkit-transform: translate(229.78468322753906px, 323.2752990722656px) rotate(-5deg) translate(-229.78468322753906px, -323.2752990722656px);transform: translate(229.78468322753906px, 323.2752990722656px) rotate(-5deg) translate(-229.78468322753906px, -323.2752990722656px);}53.33%{-webkit-transform: translate(229.78468322753906px, 323.2752990722656px) rotate(5deg) translate(-229.78468322753906px, -323.2752990722656px);transform: translate(229.78468322753906px, 323.2752990722656px) rotate(5deg) translate(-229.78468322753906px, -323.2752990722656px);}66.67%{-webkit-transform: translate(229.78468322753906px, 323.2752990722656px) rotate(-3deg) translate(-229.78468322753906px, -323.2752990722656px);transform: translate(229.78468322753906px, 323.2752990722656px) rotate(-3deg) translate(-229.78468322753906px, -323.2752990722656px);}100%{-webkit-transform: translate(229.78468322753906px, 323.2752990722656px) rotate(0deg) translate(-229.78468322753906px, -323.2752990722656px);transform: translate(229.78468322753906px, 323.2752990722656px) rotate(0deg) translate(-229.78468322753906px, -323.2752990722656px);}}@keyframes kf_el_eyAoMlm8IX_an_fulvKKQyx{0%{-webkit-transform: translate(229.78468322753906px, 323.2752990722656px) rotate(0deg) translate(-229.78468322753906px, -323.2752990722656px);transform: translate(229.78468322753906px, 323.2752990722656px) rotate(0deg) translate(-229.78468322753906px, -323.2752990722656px);}17.78%{-webkit-transform: translate(229.78468322753906px, 323.2752990722656px) rotate(5deg) translate(-229.78468322753906px, -323.2752990722656px);transform: translate(229.78468322753906px, 323.2752990722656px) rotate(5deg) translate(-229.78468322753906px, -323.2752990722656px);}35.56%{-webkit-transform: translate(229.78468322753906px, 323.2752990722656px) rotate(-5deg) translate(-229.78468322753906px, -323.2752990722656px);transform: translate(229.78468322753906px, 323.2752990722656px) rotate(-5deg) translate(-229.78468322753906px, -323.2752990722656px);}53.33%{-webkit-transform: translate(229.78468322753906px, 323.2752990722656px) rotate(5deg) translate(-229.78468322753906px, -323.2752990722656px);transform: translate(229.78468322753906px, 323.2752990722656px) rotate(5deg) translate(-229.78468322753906px, -323.2752990722656px);}66.67%{-webkit-transform: translate(229.78468322753906px, 323.2752990722656px) rotate(-3deg) translate(-229.78468322753906px, -323.2752990722656px);transform: translate(229.78468322753906px, 323.2752990722656px) rotate(-3deg) translate(-229.78468322753906px, -323.2752990722656px);}100%{-webkit-transform: translate(229.78468322753906px, 323.2752990722656px) rotate(0deg) translate(-229.78468322753906px, -323.2752990722656px);transform: translate(229.78468322753906px, 323.2752990722656px) rotate(0deg) translate(-229.78468322753906px, -323.2752990722656px);}}@-webkit-keyframes kf_el_x00EfckyfWU_an_L6qHBp42L{0%{-webkit-transform: translate(233.0618133544922px, 314.85443115234375px) rotate(0deg) translate(-233.0618133544922px, -314.85443115234375px);transform: translate(233.0618133544922px, 314.85443115234375px) rotate(0deg) translate(-233.0618133544922px, -314.85443115234375px);}17.78%{-webkit-transform: translate(233.0618133544922px, 314.85443115234375px) rotate(25deg) translate(-233.0618133544922px, -314.85443115234375px);transform: translate(233.0618133544922px, 314.85443115234375px) rotate(25deg) translate(-233.0618133544922px, -314.85443115234375px);}35.56%{-webkit-transform: translate(233.0618133544922px, 314.85443115234375px) rotate(-15deg) translate(-233.0618133544922px, -314.85443115234375px);transform: translate(233.0618133544922px, 314.85443115234375px) rotate(-15deg) translate(-233.0618133544922px, -314.85443115234375px);}53.33%{-webkit-transform: translate(233.0618133544922px, 314.85443115234375px) rotate(25deg) translate(-233.0618133544922px, -314.85443115234375px);transform: translate(233.0618133544922px, 314.85443115234375px) rotate(25deg) translate(-233.0618133544922px, -314.85443115234375px);}66.67%{-webkit-transform: translate(233.0618133544922px, 314.85443115234375px) rotate(-10deg) translate(-233.0618133544922px, -314.85443115234375px);transform: translate(233.0618133544922px, 314.85443115234375px) rotate(-10deg) translate(-233.0618133544922px, -314.85443115234375px);}100%{-webkit-transform: translate(233.0618133544922px, 314.85443115234375px) rotate(0deg) translate(-233.0618133544922px, -314.85443115234375px);transform: translate(233.0618133544922px, 314.85443115234375px) rotate(0deg) translate(-233.0618133544922px, -314.85443115234375px);}}@keyframes kf_el_x00EfckyfWU_an_L6qHBp42L{0%{-webkit-transform: translate(233.0618133544922px, 314.85443115234375px) rotate(0deg) translate(-233.0618133544922px, -314.85443115234375px);transform: translate(233.0618133544922px, 314.85443115234375px) rotate(0deg) translate(-233.0618133544922px, -314.85443115234375px);}17.78%{-webkit-transform: translate(233.0618133544922px, 314.85443115234375px) rotate(25deg) translate(-233.0618133544922px, -314.85443115234375px);transform: translate(233.0618133544922px, 314.85443115234375px) rotate(25deg) translate(-233.0618133544922px, -314.85443115234375px);}35.56%{-webkit-transform: translate(233.0618133544922px, 314.85443115234375px) rotate(-15deg) translate(-233.0618133544922px, -314.85443115234375px);transform: translate(233.0618133544922px, 314.85443115234375px) rotate(-15deg) translate(-233.0618133544922px, -314.85443115234375px);}53.33%{-webkit-transform: translate(233.0618133544922px, 314.85443115234375px) rotate(25deg) translate(-233.0618133544922px, -314.85443115234375px);transform: translate(233.0618133544922px, 314.85443115234375px) rotate(25deg) translate(-233.0618133544922px, -314.85443115234375px);}66.67%{-webkit-transform: translate(233.0618133544922px, 314.85443115234375px) rotate(-10deg) translate(-233.0618133544922px, -314.85443115234375px);transform: translate(233.0618133544922px, 314.85443115234375px) rotate(-10deg) translate(-233.0618133544922px, -314.85443115234375px);}100%{-webkit-transform: translate(233.0618133544922px, 314.85443115234375px) rotate(0deg) translate(-233.0618133544922px, -314.85443115234375px);transform: translate(233.0618133544922px, 314.85443115234375px) rotate(0deg) translate(-233.0618133544922px, -314.85443115234375px);}}@-webkit-keyframes kf_el_PyYedabmZRK_an_pkqK21xTq{0%{-webkit-transform: translate(235.93724060058594px, 293.2594909667969px) rotate(0deg) translate(-235.93724060058594px, -293.2594909667969px);transform: translate(235.93724060058594px, 293.2594909667969px) rotate(0deg) translate(-235.93724060058594px, -293.2594909667969px);}17.78%{-webkit-transform: translate(235.93724060058594px, 293.2594909667969px) rotate(25deg) translate(-235.93724060058594px, -293.2594909667969px);transform: translate(235.93724060058594px, 293.2594909667969px) rotate(25deg) translate(-235.93724060058594px, -293.2594909667969px);}35.56%{-webkit-transform: translate(235.93724060058594px, 293.2594909667969px) rotate(-20deg) translate(-235.93724060058594px, -293.2594909667969px);transform: translate(235.93724060058594px, 293.2594909667969px) rotate(-20deg) translate(-235.93724060058594px, -293.2594909667969px);}53.33%{-webkit-transform: translate(235.93724060058594px, 293.2594909667969px) rotate(35deg) translate(-235.93724060058594px, -293.2594909667969px);transform: translate(235.93724060058594px, 293.2594909667969px) rotate(35deg) translate(-235.93724060058594px, -293.2594909667969px);}66.67%{-webkit-transform: translate(235.93724060058594px, 293.2594909667969px) rotate(-15deg) translate(-235.93724060058594px, -293.2594909667969px);transform: translate(235.93724060058594px, 293.2594909667969px) rotate(-15deg) translate(-235.93724060058594px, -293.2594909667969px);}100%{-webkit-transform: translate(235.93724060058594px, 293.2594909667969px) rotate(0deg) translate(-235.93724060058594px, -293.2594909667969px);transform: translate(235.93724060058594px, 293.2594909667969px) rotate(0deg) translate(-235.93724060058594px, -293.2594909667969px);}}@keyframes kf_el_PyYedabmZRK_an_pkqK21xTq{0%{-webkit-transform: translate(235.93724060058594px, 293.2594909667969px) rotate(0deg) translate(-235.93724060058594px, -293.2594909667969px);transform: translate(235.93724060058594px, 293.2594909667969px) rotate(0deg) translate(-235.93724060058594px, -293.2594909667969px);}17.78%{-webkit-transform: translate(235.93724060058594px, 293.2594909667969px) rotate(25deg) translate(-235.93724060058594px, -293.2594909667969px);transform: translate(235.93724060058594px, 293.2594909667969px) rotate(25deg) translate(-235.93724060058594px, -293.2594909667969px);}35.56%{-webkit-transform: translate(235.93724060058594px, 293.2594909667969px) rotate(-20deg) translate(-235.93724060058594px, -293.2594909667969px);transform: translate(235.93724060058594px, 293.2594909667969px) rotate(-20deg) translate(-235.93724060058594px, -293.2594909667969px);}53.33%{-webkit-transform: translate(235.93724060058594px, 293.2594909667969px) rotate(35deg) translate(-235.93724060058594px, -293.2594909667969px);transform: translate(235.93724060058594px, 293.2594909667969px) rotate(35deg) translate(-235.93724060058594px, -293.2594909667969px);}66.67%{-webkit-transform: translate(235.93724060058594px, 293.2594909667969px) rotate(-15deg) translate(-235.93724060058594px, -293.2594909667969px);transform: translate(235.93724060058594px, 293.2594909667969px) rotate(-15deg) translate(-235.93724060058594px, -293.2594909667969px);}100%{-webkit-transform: translate(235.93724060058594px, 293.2594909667969px) rotate(0deg) translate(-235.93724060058594px, -293.2594909667969px);transform: translate(235.93724060058594px, 293.2594909667969px) rotate(0deg) translate(-235.93724060058594px, -293.2594909667969px);}}@-webkit-keyframes kf_el_mN2JAMvKf7S_an_xO6LYioBf{0%{-webkit-transform: translate(222.8899688720703px, 289.2871398925781px) rotate(0deg) translate(-222.8899688720703px, -289.2871398925781px);transform: translate(222.8899688720703px, 289.2871398925781px) rotate(0deg) translate(-222.8899688720703px, -289.2871398925781px);}17.78%{-webkit-transform: translate(222.8899688720703px, 289.2871398925781px) rotate(25deg) translate(-222.8899688720703px, -289.2871398925781px);transform: translate(222.8899688720703px, 289.2871398925781px) rotate(25deg) translate(-222.8899688720703px, -289.2871398925781px);}35.56%{-webkit-transform: translate(222.8899688720703px, 289.2871398925781px) rotate(-20deg) translate(-222.8899688720703px, -289.2871398925781px);transform: translate(222.8899688720703px, 289.2871398925781px) rotate(-20deg) translate(-222.8899688720703px, -289.2871398925781px);}53.33%{-webkit-transform: translate(222.8899688720703px, 289.2871398925781px) rotate(35deg) translate(-222.8899688720703px, -289.2871398925781px);transform: translate(222.8899688720703px, 289.2871398925781px) rotate(35deg) translate(-222.8899688720703px, -289.2871398925781px);}66.67%{-webkit-transform: translate(222.8899688720703px, 289.2871398925781px) rotate(-20deg) translate(-222.8899688720703px, -289.2871398925781px);transform: translate(222.8899688720703px, 289.2871398925781px) rotate(-20deg) translate(-222.8899688720703px, -289.2871398925781px);}100%{-webkit-transform: translate(222.8899688720703px, 289.2871398925781px) rotate(0deg) translate(-222.8899688720703px, -289.2871398925781px);transform: translate(222.8899688720703px, 289.2871398925781px) rotate(0deg) translate(-222.8899688720703px, -289.2871398925781px);}}@keyframes kf_el_mN2JAMvKf7S_an_xO6LYioBf{0%{-webkit-transform: translate(222.8899688720703px, 289.2871398925781px) rotate(0deg) translate(-222.8899688720703px, -289.2871398925781px);transform: translate(222.8899688720703px, 289.2871398925781px) rotate(0deg) translate(-222.8899688720703px, -289.2871398925781px);}17.78%{-webkit-transform: translate(222.8899688720703px, 289.2871398925781px) rotate(25deg) translate(-222.8899688720703px, -289.2871398925781px);transform: translate(222.8899688720703px, 289.2871398925781px) rotate(25deg) translate(-222.8899688720703px, -289.2871398925781px);}35.56%{-webkit-transform: translate(222.8899688720703px, 289.2871398925781px) rotate(-20deg) translate(-222.8899688720703px, -289.2871398925781px);transform: translate(222.8899688720703px, 289.2871398925781px) rotate(-20deg) translate(-222.8899688720703px, -289.2871398925781px);}53.33%{-webkit-transform: translate(222.8899688720703px, 289.2871398925781px) rotate(35deg) translate(-222.8899688720703px, -289.2871398925781px);transform: translate(222.8899688720703px, 289.2871398925781px) rotate(35deg) translate(-222.8899688720703px, -289.2871398925781px);}66.67%{-webkit-transform: translate(222.8899688720703px, 289.2871398925781px) rotate(-20deg) translate(-222.8899688720703px, -289.2871398925781px);transform: translate(222.8899688720703px, 289.2871398925781px) rotate(-20deg) translate(-222.8899688720703px, -289.2871398925781px);}100%{-webkit-transform: translate(222.8899688720703px, 289.2871398925781px) rotate(0deg) translate(-222.8899688720703px, -289.2871398925781px);transform: translate(222.8899688720703px, 289.2871398925781px) rotate(0deg) translate(-222.8899688720703px, -289.2871398925781px);}}@-webkit-keyframes kf_el__HRpFdzC9j2_an_d8rlq_XLA{0%{-webkit-transform: translate(218.46875px, 270.7762756347656px) rotate(0deg) translate(-218.46875px, -270.7762756347656px);transform: translate(218.46875px, 270.7762756347656px) rotate(0deg) translate(-218.46875px, -270.7762756347656px);}17.78%{-webkit-transform: translate(218.46875px, 270.7762756347656px) rotate(20deg) translate(-218.46875px, -270.7762756347656px);transform: translate(218.46875px, 270.7762756347656px) rotate(20deg) translate(-218.46875px, -270.7762756347656px);}35.56%{-webkit-transform: translate(218.46875px, 270.7762756347656px) rotate(-20deg) translate(-218.46875px, -270.7762756347656px);transform: translate(218.46875px, 270.7762756347656px) rotate(-20deg) translate(-218.46875px, -270.7762756347656px);}53.33%{-webkit-transform: translate(218.46875px, 270.7762756347656px) rotate(30deg) translate(-218.46875px, -270.7762756347656px);transform: translate(218.46875px, 270.7762756347656px) rotate(30deg) translate(-218.46875px, -270.7762756347656px);}66.67%{-webkit-transform: translate(218.46875px, 270.7762756347656px) rotate(-20deg) translate(-218.46875px, -270.7762756347656px);transform: translate(218.46875px, 270.7762756347656px) rotate(-20deg) translate(-218.46875px, -270.7762756347656px);}100%{-webkit-transform: translate(218.46875px, 270.7762756347656px) rotate(0deg) translate(-218.46875px, -270.7762756347656px);transform: translate(218.46875px, 270.7762756347656px) rotate(0deg) translate(-218.46875px, -270.7762756347656px);}}@keyframes kf_el__HRpFdzC9j2_an_d8rlq_XLA{0%{-webkit-transform: translate(218.46875px, 270.7762756347656px) rotate(0deg) translate(-218.46875px, -270.7762756347656px);transform: translate(218.46875px, 270.7762756347656px) rotate(0deg) translate(-218.46875px, -270.7762756347656px);}17.78%{-webkit-transform: translate(218.46875px, 270.7762756347656px) rotate(20deg) translate(-218.46875px, -270.7762756347656px);transform: translate(218.46875px, 270.7762756347656px) rotate(20deg) translate(-218.46875px, -270.7762756347656px);}35.56%{-webkit-transform: translate(218.46875px, 270.7762756347656px) rotate(-20deg) translate(-218.46875px, -270.7762756347656px);transform: translate(218.46875px, 270.7762756347656px) rotate(-20deg) translate(-218.46875px, -270.7762756347656px);}53.33%{-webkit-transform: translate(218.46875px, 270.7762756347656px) rotate(30deg) translate(-218.46875px, -270.7762756347656px);transform: translate(218.46875px, 270.7762756347656px) rotate(30deg) translate(-218.46875px, -270.7762756347656px);}66.67%{-webkit-transform: translate(218.46875px, 270.7762756347656px) rotate(-20deg) translate(-218.46875px, -270.7762756347656px);transform: translate(218.46875px, 270.7762756347656px) rotate(-20deg) translate(-218.46875px, -270.7762756347656px);}100%{-webkit-transform: translate(218.46875px, 270.7762756347656px) rotate(0deg) translate(-218.46875px, -270.7762756347656px);transform: translate(218.46875px, 270.7762756347656px) rotate(0deg) translate(-218.46875px, -270.7762756347656px);}}@-webkit-keyframes kf_el_nGJFMkbxi9z_an_yctvR108x{0%{-webkit-transform: translate(200.11984252929688px, 238.31524658203125px) rotate(0deg) translate(-200.11984252929688px, -238.31524658203125px);transform: translate(200.11984252929688px, 238.31524658203125px) rotate(0deg) translate(-200.11984252929688px, -238.31524658203125px);}17.78%{-webkit-transform: translate(200.11984252929688px, 238.31524658203125px) rotate(15deg) translate(-200.11984252929688px, -238.31524658203125px);transform: translate(200.11984252929688px, 238.31524658203125px) rotate(15deg) translate(-200.11984252929688px, -238.31524658203125px);}35.56%{-webkit-transform: translate(200.11984252929688px, 238.31524658203125px) rotate(-20deg) translate(-200.11984252929688px, -238.31524658203125px);transform: translate(200.11984252929688px, 238.31524658203125px) rotate(-20deg) translate(-200.11984252929688px, -238.31524658203125px);}53.33%{-webkit-transform: translate(200.11984252929688px, 238.31524658203125px) rotate(20deg) translate(-200.11984252929688px, -238.31524658203125px);transform: translate(200.11984252929688px, 238.31524658203125px) rotate(20deg) translate(-200.11984252929688px, -238.31524658203125px);}66.67%{-webkit-transform: translate(200.11984252929688px, 238.31524658203125px) rotate(-20deg) translate(-200.11984252929688px, -238.31524658203125px);transform: translate(200.11984252929688px, 238.31524658203125px) rotate(-20deg) translate(-200.11984252929688px, -238.31524658203125px);}100%{-webkit-transform: translate(200.11984252929688px, 238.31524658203125px) rotate(0deg) translate(-200.11984252929688px, -238.31524658203125px);transform: translate(200.11984252929688px, 238.31524658203125px) rotate(0deg) translate(-200.11984252929688px, -238.31524658203125px);}}@keyframes kf_el_nGJFMkbxi9z_an_yctvR108x{0%{-webkit-transform: translate(200.11984252929688px, 238.31524658203125px) rotate(0deg) translate(-200.11984252929688px, -238.31524658203125px);transform: translate(200.11984252929688px, 238.31524658203125px) rotate(0deg) translate(-200.11984252929688px, -238.31524658203125px);}17.78%{-webkit-transform: translate(200.11984252929688px, 238.31524658203125px) rotate(15deg) translate(-200.11984252929688px, -238.31524658203125px);transform: translate(200.11984252929688px, 238.31524658203125px) rotate(15deg) translate(-200.11984252929688px, -238.31524658203125px);}35.56%{-webkit-transform: translate(200.11984252929688px, 238.31524658203125px) rotate(-20deg) translate(-200.11984252929688px, -238.31524658203125px);transform: translate(200.11984252929688px, 238.31524658203125px) rotate(-20deg) translate(-200.11984252929688px, -238.31524658203125px);}53.33%{-webkit-transform: translate(200.11984252929688px, 238.31524658203125px) rotate(20deg) translate(-200.11984252929688px, -238.31524658203125px);transform: translate(200.11984252929688px, 238.31524658203125px) rotate(20deg) translate(-200.11984252929688px, -238.31524658203125px);}66.67%{-webkit-transform: translate(200.11984252929688px, 238.31524658203125px) rotate(-20deg) translate(-200.11984252929688px, -238.31524658203125px);transform: translate(200.11984252929688px, 238.31524658203125px) rotate(-20deg) translate(-200.11984252929688px, -238.31524658203125px);}100%{-webkit-transform: translate(200.11984252929688px, 238.31524658203125px) rotate(0deg) translate(-200.11984252929688px, -238.31524658203125px);transform: translate(200.11984252929688px, 238.31524658203125px) rotate(0deg) translate(-200.11984252929688px, -238.31524658203125px);}}@-webkit-keyframes kf_el_bM6rf2yl9NC_an_IIEpy_8mo{0%{-webkit-transform: translate(178.14569091796875px, 218.59701538085938px) rotate(0deg) translate(-178.14569091796875px, -218.59701538085938px);transform: translate(178.14569091796875px, 218.59701538085938px) rotate(0deg) translate(-178.14569091796875px, -218.59701538085938px);}17.78%{-webkit-transform: translate(178.14569091796875px, 218.59701538085938px) rotate(10deg) translate(-178.14569091796875px, -218.59701538085938px);transform: translate(178.14569091796875px, 218.59701538085938px) rotate(10deg) translate(-178.14569091796875px, -218.59701538085938px);}35.56%{-webkit-transform: translate(178.14569091796875px, 218.59701538085938px) rotate(-20deg) translate(-178.14569091796875px, -218.59701538085938px);transform: translate(178.14569091796875px, 218.59701538085938px) rotate(-20deg) translate(-178.14569091796875px, -218.59701538085938px);}53.33%{-webkit-transform: translate(178.14569091796875px, 218.59701538085938px) rotate(10deg) translate(-178.14569091796875px, -218.59701538085938px);transform: translate(178.14569091796875px, 218.59701538085938px) rotate(10deg) translate(-178.14569091796875px, -218.59701538085938px);}66.67%{-webkit-transform: translate(178.14569091796875px, 218.59701538085938px) rotate(-20deg) translate(-178.14569091796875px, -218.59701538085938px);transform: translate(178.14569091796875px, 218.59701538085938px) rotate(-20deg) translate(-178.14569091796875px, -218.59701538085938px);}100%{-webkit-transform: translate(178.14569091796875px, 218.59701538085938px) rotate(0deg) translate(-178.14569091796875px, -218.59701538085938px);transform: translate(178.14569091796875px, 218.59701538085938px) rotate(0deg) translate(-178.14569091796875px, -218.59701538085938px);}}@keyframes kf_el_bM6rf2yl9NC_an_IIEpy_8mo{0%{-webkit-transform: translate(178.14569091796875px, 218.59701538085938px) rotate(0deg) translate(-178.14569091796875px, -218.59701538085938px);transform: translate(178.14569091796875px, 218.59701538085938px) rotate(0deg) translate(-178.14569091796875px, -218.59701538085938px);}17.78%{-webkit-transform: translate(178.14569091796875px, 218.59701538085938px) rotate(10deg) translate(-178.14569091796875px, -218.59701538085938px);transform: translate(178.14569091796875px, 218.59701538085938px) rotate(10deg) translate(-178.14569091796875px, -218.59701538085938px);}35.56%{-webkit-transform: translate(178.14569091796875px, 218.59701538085938px) rotate(-20deg) translate(-178.14569091796875px, -218.59701538085938px);transform: translate(178.14569091796875px, 218.59701538085938px) rotate(-20deg) translate(-178.14569091796875px, -218.59701538085938px);}53.33%{-webkit-transform: translate(178.14569091796875px, 218.59701538085938px) rotate(10deg) translate(-178.14569091796875px, -218.59701538085938px);transform: translate(178.14569091796875px, 218.59701538085938px) rotate(10deg) translate(-178.14569091796875px, -218.59701538085938px);}66.67%{-webkit-transform: translate(178.14569091796875px, 218.59701538085938px) rotate(-20deg) translate(-178.14569091796875px, -218.59701538085938px);transform: translate(178.14569091796875px, 218.59701538085938px) rotate(-20deg) translate(-178.14569091796875px, -218.59701538085938px);}100%{-webkit-transform: translate(178.14569091796875px, 218.59701538085938px) rotate(0deg) translate(-178.14569091796875px, -218.59701538085938px);transform: translate(178.14569091796875px, 218.59701538085938px) rotate(0deg) translate(-178.14569091796875px, -218.59701538085938px);}}@-webkit-keyframes kf_el_ce21EOVNe0_an_aJlL2zrwT{0%{-webkit-transform: translate(177.66371154785156px, 218.72449493408203px) rotate(0deg) translate(-177.66371154785156px, -218.72449493408203px);transform: translate(177.66371154785156px, 218.72449493408203px) rotate(0deg) translate(-177.66371154785156px, -218.72449493408203px);}17.78%{-webkit-transform: translate(177.66371154785156px, 218.72449493408203px) rotate(10deg) translate(-177.66371154785156px, -218.72449493408203px);transform: translate(177.66371154785156px, 218.72449493408203px) rotate(10deg) translate(-177.66371154785156px, -218.72449493408203px);}35.56%{-webkit-transform: translate(177.66371154785156px, 218.72449493408203px) rotate(-20deg) translate(-177.66371154785156px, -218.72449493408203px);transform: translate(177.66371154785156px, 218.72449493408203px) rotate(-20deg) translate(-177.66371154785156px, -218.72449493408203px);}53.33%{-webkit-transform: translate(177.66371154785156px, 218.72449493408203px) rotate(0deg) translate(-177.66371154785156px, -218.72449493408203px);transform: translate(177.66371154785156px, 218.72449493408203px) rotate(0deg) translate(-177.66371154785156px, -218.72449493408203px);}66.67%{-webkit-transform: translate(177.66371154785156px, 218.72449493408203px) rotate(-20deg) translate(-177.66371154785156px, -218.72449493408203px);transform: translate(177.66371154785156px, 218.72449493408203px) rotate(-20deg) translate(-177.66371154785156px, -218.72449493408203px);}100%{-webkit-transform: translate(177.66371154785156px, 218.72449493408203px) rotate(0deg) translate(-177.66371154785156px, -218.72449493408203px);transform: translate(177.66371154785156px, 218.72449493408203px) rotate(0deg) translate(-177.66371154785156px, -218.72449493408203px);}}@keyframes kf_el_ce21EOVNe0_an_aJlL2zrwT{0%{-webkit-transform: translate(177.66371154785156px, 218.72449493408203px) rotate(0deg) translate(-177.66371154785156px, -218.72449493408203px);transform: translate(177.66371154785156px, 218.72449493408203px) rotate(0deg) translate(-177.66371154785156px, -218.72449493408203px);}17.78%{-webkit-transform: translate(177.66371154785156px, 218.72449493408203px) rotate(10deg) translate(-177.66371154785156px, -218.72449493408203px);transform: translate(177.66371154785156px, 218.72449493408203px) rotate(10deg) translate(-177.66371154785156px, -218.72449493408203px);}35.56%{-webkit-transform: translate(177.66371154785156px, 218.72449493408203px) rotate(-20deg) translate(-177.66371154785156px, -218.72449493408203px);transform: translate(177.66371154785156px, 218.72449493408203px) rotate(-20deg) translate(-177.66371154785156px, -218.72449493408203px);}53.33%{-webkit-transform: translate(177.66371154785156px, 218.72449493408203px) rotate(0deg) translate(-177.66371154785156px, -218.72449493408203px);transform: translate(177.66371154785156px, 218.72449493408203px) rotate(0deg) translate(-177.66371154785156px, -218.72449493408203px);}66.67%{-webkit-transform: translate(177.66371154785156px, 218.72449493408203px) rotate(-20deg) translate(-177.66371154785156px, -218.72449493408203px);transform: translate(177.66371154785156px, 218.72449493408203px) rotate(-20deg) translate(-177.66371154785156px, -218.72449493408203px);}100%{-webkit-transform: translate(177.66371154785156px, 218.72449493408203px) rotate(0deg) translate(-177.66371154785156px, -218.72449493408203px);transform: translate(177.66371154785156px, 218.72449493408203px) rotate(0deg) translate(-177.66371154785156px, -218.72449493408203px);}}#el_SQXZWJi_f *{-webkit-animation-duration: 3s;animation-duration: 3s;-webkit-animation-iteration-count: infinite;animation-iteration-count: infinite;-webkit-animation-timing-function: cubic-bezier(0, 0, 1, 1);animation-timing-function: cubic-bezier(0, 0, 1, 1);}#el_Dt6fjmxil5{fill: #CECECE;}#el_c-kiVWc9D6{fill: #CECECE;}#el_HXZSEo1ok7{fill: #CECECE;}#el_GIecElFygz{fill: #CECECE;}#el_y86bgsmAie{fill: #CECECE;}#el__qNLxVp-LR{fill: #CECECE;}#el__n7waG8rwe{fill: #CECECE;}#el_mLeDPErYeg{fill: #CECECE;}#el_cMZ7a5cayP{fill: #CECECE;}#el_u4iwu1s3li{fill: #CECECE;}#el_kCr1eJbddD{fill: #CECECE;}#el_YH2IUm73BQ0{fill: #CECECE;}#el_LMMJ7rFQHYV{fill: #CECECE;}#el_6Pg71f0QBGg{fill: #CECECE;}#el_TXHJX_WQbYU{fill: #CECECE;}#el_Eputh2nZt0r{fill: #CECECE;}#el_lJl9jINi2_h{fill: #CECECE;}#el_97h9y2Ov1FH{fill: #CECECE;}#el_6It2xwtZwZX{fill: #CECECE;}#el_75rvIvlkrCS{fill: #CECECE;}#el_e5qGnHtsEPj{fill: #CECECE;}#el_KiQHnOvYeI6{fill: #CECECE;}#el_jnK9_rdC3nB{fill: #CECECE;}#el_g2IYk6I9KL6{fill: #CECECE;}#el_GXFwdf5L_w3{fill: #CECECE;}#el_OLFY6HFDFd_{fill: #CECECE;}#el_SvvCKK_shjU{fill: #CECECE;}#el_YYnUxWOnkKx{fill: #CECECE;}#el_eGzWb5boYvM{fill: #CECECE;}#el_-W7mMt37F2h{fill: #CECECE;}#el_ce21EOVNe0_an_aJlL2zrwT{-webkit-animation-fill-mode: backwards;animation-fill-mode: backwards;-webkit-transform: translate(177.66371154785156px, 218.72449493408203px) rotate(0deg) translate(-177.66371154785156px, -218.72449493408203px);transform: translate(177.66371154785156px, 218.72449493408203px) rotate(0deg) translate(-177.66371154785156px, -218.72449493408203px);-webkit-animation-name: kf_el_ce21EOVNe0_an_aJlL2zrwT;animation-name: kf_el_ce21EOVNe0_an_aJlL2zrwT;-webkit-animation-timing-function: cubic-bezier(0, 0, 1, 1);animation-timing-function: cubic-bezier(0, 0, 1, 1);}#el_bM6rf2yl9NC_an_IIEpy_8mo{-webkit-animation-fill-mode: backwards;animation-fill-mode: backwards;-webkit-transform: translate(178.14569091796875px, 218.59701538085938px) rotate(0deg) translate(-178.14569091796875px, -218.59701538085938px);transform: translate(178.14569091796875px, 218.59701538085938px) rotate(0deg) translate(-178.14569091796875px, -218.59701538085938px);-webkit-animation-name: kf_el_bM6rf2yl9NC_an_IIEpy_8mo;animation-name: kf_el_bM6rf2yl9NC_an_IIEpy_8mo;-webkit-animation-timing-function: cubic-bezier(0, 0, 1, 1);animation-timing-function: cubic-bezier(0, 0, 1, 1);}#el_nGJFMkbxi9z_an_yctvR108x{-webkit-animation-fill-mode: backwards;animation-fill-mode: backwards;-webkit-transform: translate(200.11984252929688px, 238.31524658203125px) rotate(0deg) translate(-200.11984252929688px, -238.31524658203125px);transform: translate(200.11984252929688px, 238.31524658203125px) rotate(0deg) translate(-200.11984252929688px, -238.31524658203125px);-webkit-animation-name: kf_el_nGJFMkbxi9z_an_yctvR108x;animation-name: kf_el_nGJFMkbxi9z_an_yctvR108x;-webkit-animation-timing-function: cubic-bezier(0, 0, 1, 1);animation-timing-function: cubic-bezier(0, 0, 1, 1);}#el__HRpFdzC9j2_an_d8rlq_XLA{-webkit-animation-fill-mode: backwards;animation-fill-mode: backwards;-webkit-transform: translate(218.46875px, 270.7762756347656px) rotate(0deg) translate(-218.46875px, -270.7762756347656px);transform: translate(218.46875px, 270.7762756347656px) rotate(0deg) translate(-218.46875px, -270.7762756347656px);-webkit-animation-name: kf_el__HRpFdzC9j2_an_d8rlq_XLA;animation-name: kf_el__HRpFdzC9j2_an_d8rlq_XLA;-webkit-animation-timing-function: cubic-bezier(0, 0, 1, 1);animation-timing-function: cubic-bezier(0, 0, 1, 1);}#el_mN2JAMvKf7S_an_xO6LYioBf{-webkit-animation-fill-mode: backwards;animation-fill-mode: backwards;-webkit-transform: translate(222.8899688720703px, 289.2871398925781px) rotate(0deg) translate(-222.8899688720703px, -289.2871398925781px);transform: translate(222.8899688720703px, 289.2871398925781px) rotate(0deg) translate(-222.8899688720703px, -289.2871398925781px);-webkit-animation-name: kf_el_mN2JAMvKf7S_an_xO6LYioBf;animation-name: kf_el_mN2JAMvKf7S_an_xO6LYioBf;-webkit-animation-timing-function: cubic-bezier(0, 0, 1, 1);animation-timing-function: cubic-bezier(0, 0, 1, 1);}#el_PyYedabmZRK_an_pkqK21xTq{-webkit-animation-fill-mode: backwards;animation-fill-mode: backwards;-webkit-transform: translate(235.93724060058594px, 293.2594909667969px) rotate(0deg) translate(-235.93724060058594px, -293.2594909667969px);transform: translate(235.93724060058594px, 293.2594909667969px) rotate(0deg) translate(-235.93724060058594px, -293.2594909667969px);-webkit-animation-name: kf_el_PyYedabmZRK_an_pkqK21xTq;animation-name: kf_el_PyYedabmZRK_an_pkqK21xTq;-webkit-animation-timing-function: cubic-bezier(0, 0, 1, 1);animation-timing-function: cubic-bezier(0, 0, 1, 1);}#el_x00EfckyfWU_an_L6qHBp42L{-webkit-animation-fill-mode: backwards;animation-fill-mode: backwards;-webkit-transform: translate(233.0618133544922px, 314.85443115234375px) rotate(0deg) translate(-233.0618133544922px, -314.85443115234375px);transform: translate(233.0618133544922px, 314.85443115234375px) rotate(0deg) translate(-233.0618133544922px, -314.85443115234375px);-webkit-animation-name: kf_el_x00EfckyfWU_an_L6qHBp42L;animation-name: kf_el_x00EfckyfWU_an_L6qHBp42L;-webkit-animation-timing-function: cubic-bezier(0, 0, 1, 1);animation-timing-function: cubic-bezier(0, 0, 1, 1);}#el_eyAoMlm8IX_an_fulvKKQyx{-webkit-animation-fill-mode: backwards;animation-fill-mode: backwards;-webkit-transform: translate(229.78468322753906px, 323.2752990722656px) rotate(0deg) translate(-229.78468322753906px, -323.2752990722656px);transform: translate(229.78468322753906px, 323.2752990722656px) rotate(0deg) translate(-229.78468322753906px, -323.2752990722656px);-webkit-animation-name: kf_el_eyAoMlm8IX_an_fulvKKQyx;animation-name: kf_el_eyAoMlm8IX_an_fulvKKQyx;-webkit-animation-timing-function: cubic-bezier(0, 0, 1, 1);animation-timing-function: cubic-bezier(0, 0, 1, 1);}</style>

<g id="el_vvjSDXLret">
	<g id="el_ce21EOVNe0_an_aJlL2zrwT" data-animator-group="true" data-animator-type="1"><g id="el_ce21EOVNe0">
		<path d="M238.1,83.2c-0.1,0.2-0.2,0.5-0.2,0.7C237.9,83.7,238,83.5,238.1,83.2z" id="el_Dt6fjmxil5"/>
		<path d="M281.4,48.4c-5.3-2.7-13,3.8-17.1,6.4c-9.1,5.8-28.1,15.9-31.4,27.3c-8,0.3-14.9,14.5-18.1,20.2&#10;&#9;&#9;&#9;c-0.3,0-0.5,0-0.8,0c-9.1,0.8-17,19.7-19.9,26c-10.1,22-17,49.3-16.4,73.6c0.3,12.9,6.6,24.6,18.5,10.2&#10;&#9;&#9;&#9;c12.2-14.7,21.4-30.7,36.9-42.5c-2.2-1.9-4.5-4.3-7.2-5.5c7.8-9.1,16.3-17.6,24.7-26.1c8.5-8.6,20.9-15.6,27.5-25.8&#10;&#9;&#9;&#9;c1.2-1.6,2.9-4.8,1.9-7.8c-0.1-0.4-0.3-0.7-0.5-1c5-5.6,7.5-10.9,7.3-15.8l-0.1-3.5C294,76.9,292,52.8,281.4,48.4 M214.3,107.6&#10;&#9;&#9;&#9;c-0.3,1.8,0.9,6.4,0.9,6.4c0.8-2.8,14.7-29.2,17.9-26.6c3.9,3.2-1.3,14.8,3.2,19.4c-15.8,20.4-41,55.1-52.8,83.2&#10;&#9;&#9;&#9;C191.2,126.2,214.7,105.8,214.3,107.6z M273.8,109.8c-12,18.1-37.2,16.1-37.2,16.1c1.4,4.8,15.3,0.9,18.6,2&#10;&#9;&#9;&#9;c-21.9,17.2-41.4,42.9-41.4,42.9c7.5-4.1,10.8-1.3,10.8-1.3c-9,6.9-22.8,25.4-29.5,34.9c1.1-16.5,8.5-48.9,42-97.1&#10;&#9;&#9;&#9;c6.8,4.9,21.4,7.7,28.5,3.8C268.4,109.8,277.2,102,273.8,109.8z M285.2,70.7c0,0.1-0.2,0.2-0.2,0.3l-0.2,0.1&#10;&#9;&#9;&#9;c0,2.4,0.2,4.6-0.4,6.3c-2.3,5.7-19.7,15.2-26.7,15.2c0,0.1,0.1,0.2,0.1,0.2s1.1,0.3,1.6,0.2c0.1,0,0.6-0.1,0.7-0.2&#10;&#9;&#9;&#9;c7.3-0.4,13.9-2.1,20.6-4.9c0-0.1,0.3,0.6-0.1,1.4c0,0-1,3.2-0.8,2.7c-0.5,1.4-4.1,7.1-4.1,7.6c-0.2,0-0.3,0.1-0.5,0.2&#10;&#9;&#9;&#9;c-2.9,3.5-6.9,5.7-10,8.8c0,0-19.7,2-26.6-3.3l11.9-16.5l-0.4-1.3l-12.4,16.7c-2.3-4.5-2.1-10.9-1-15.7c0,0.1-0.1,0.2-0.1,0.3&#10;&#9;&#9;&#9;c1.9-15.4,27.6-31.5,41.3-36c0.1-0.2,3.1,2.7,3.1,2.7c1.7,3.2,3.8,10.9,3.8,11c0.1,0.1,0.5,2.9,0.5,3.9&#10;&#9;&#9;&#9;C285.2,70.6,285.2,70.6,285.2,70.7z" id="el_c-kiVWc9D6"/>
		<path d="M236.8,87.9c0,0.2-0.1,0.4-0.1,0.6C236.8,88.3,236.8,88.1,236.8,87.9z" id="el_HXZSEo1ok7"/>
	</g></g>
	<g id="el_eyAoMlm8IX_an_fulvKKQyx" data-animator-group="true" data-animator-type="1"><g id="el_eyAoMlm8IX">
		<path d="M296,461.1c0,0,0,0.1,0.1,0.1C295.8,460.7,295.8,460.7,296,461.1C296,461.2,295.9,461,296,461.1z" id="el_GIecElFygz"/>
		<path d="M298.2,465.5c0.1,0.1,0.1,0.2,0.2,0.3c-0.1-0.2-0.3-0.5-0.4-0.7C298.1,465.2,298.1,465.4,298.2,465.5&#10;&#9;&#9;&#9;C298.2,465.6,298.1,465.4,298.2,465.5z" id="el_y86bgsmAie"/>
		<path d="M296.8,462.9c-0.1-0.2-0.1-0.3-0.2-0.4C296.7,462.6,296.8,462.7,296.8,462.9z" id="el__qNLxVp-LR"/>
		<path d="M331.3,431.2c3.4-7-6.2-19.9-9.7-25.3c0.1-0.2,0.3-0.5,0.4-0.7c4.4-11.3-15.5-31.7-21.6-38.2&#10;&#9;&#9;&#9;c-10.7-11.6-23.1-21.8-36.2-30.7c-5.5-3.8-24.6-18.3-31.9-11c-4,3.3-2.5,9.2-0.5,13.2c9.6,16.2,18.2,34.4,21.6,53&#10;&#9;&#9;&#9;c2.7-1.1,5.9-1.9,8.1-3.8c4.7,11.7,8.7,23.6,12.5,35.6c2.9,9.1,4.3,36.6,15.2,39.7c0.2,0.2,2,0.3,1.9,0.3&#10;&#9;&#9;&#9;c2.8,7.1,7,12.2,14.1,15.2c0,1.6,1.8,4.2,2.6,5.3c6.5,7.2,26.8,10.5,31.6,6.5c2-1.9,3.6-3.3,1.4-23&#10;&#9;&#9;&#9;C339.5,456,339,438.9,331.3,431.2z M317.1,403.2c-1.5-1.1-6.1-2-6.1-2c3.8,3.7,17.8,20.5,15.6,26.5c-1.3,3.5-14.3-5.8-18.9-4.3&#10;&#9;&#9;&#9;c-10.9-23.4-30.4-61.6-49.9-84.9C311,374.1,318.5,404.3,317.1,403.2C315.6,402.1,318.5,404.3,317.1,403.2z M291.5,457.2&#10;&#9;&#9;&#9;c-1.4,1.5-3.2-2.1-3.2-2.1c-6.9-12.5-4.4-28.5,2.5-40.5c-0.1,0-0.1,0-0.2,0c0,0,0.1-0.1,0.1-0.1c-2.5,0-5,5-5.7,6.4c0,0,0,0,0,0&#10;&#9;&#9;&#9;c-1.7,3.5-2.1,6.6-4.7,9.4c-5.4-27.2-19.3-56.4-19.3-56.4c0.2,8.6-3.8,10.2-3.8,10.2c-2.6-14.8-11-28.9-17.6-42.2&#10;&#9;&#9;&#9;c29.9,19.9,50.6,50.4,67.3,81.7c-3.9,1.9-6.9,5.8-9.3,9.2c-2.8,3.9-5.5,8-6.2,12.8C291,448.4,293.2,455.3,291.5,457.2&#10;&#9;&#9;&#9;C290.1,458.7,292.6,456,291.5,457.2z M335.9,486.2c-4.9,0.5-9.7-0.1-14.5-1.4c0.3,0-4.4-1.4-4.4-1.4c-2.2-1-4.1-2.1-5.4-3.5&#10;&#9;&#9;&#9;c-6-6.5-2.4-23-1.5-31.3c-0.1,0-0.2,0.1-0.2,0.1s-1,2.2-1,2.3c-2.7,6.8-4.5,13.1-5.2,20.4h0.2c0,0.1-0.3,0.4-0.2,0.4&#10;&#9;&#9;&#9;c0,0-5.4-4.4-8-11c-1.8-4.7-2.3-9.4-2.6-12.4c-0.7-7.7,6.9-18.8,14.6-22.3l9.2,18.2l1.4,0.2l-9.2-18.6c5.7,0,10.4,3.8,15,6.6&#10;&#9;&#9;&#9;c0,0-0.1,0-0.1-0.1c3,2.1,4.5,3.3,6,6.2c0,0,0,0.1,0.1,0.1c0,7.1,4.3,16,5.2,23.4c0.9,6.8,3.5,16.6,1.4,23&#10;&#9;&#9;&#9;C336.8,485.4,336,486.2,335.9,486.2z" id="el__n7waG8rwe"/>
	</g></g>
	<g id="el_1Ig7mez0Aj">
		<path d="M126.7,345.4c0,0,11,17,15.4,24.7c4.5,8,16.8,23.1,16.8,23.1s9.8-8.2,10.3-15.6c0,0-11-8.3-19.4-13.7&#10;&#9;&#9;&#9;C143.2,359.7,127.7,343.5,126.7,345.4z" id="el_mLeDPErYeg"/>
		<path d="M156.9,345.4c-6.6-1.3-23.6-9.4-23.8-7.6c0,0,13.8,10,19.5,14.8c5.9,5,20.2,13.2,20.2,13.2s5.2-9.4,3.4-15.4&#10;&#9;&#9;&#9;C176.4,350.4,165.1,347.1,156.9,345.4z" id="el_cMZ7a5cayP"/>
		<path d="M179.6,339.8c0,0,5.7-5,2.8-8.9c0,0-17.1-2.1-23.6-1.2c-5.2,0.7-19.7-0.7-19.4,0.7c0,0,11.6,3.5,21.7,5.5&#10;&#9;&#9;&#9;C166.9,337,179.6,339.8,179.6,339.8z" id="el_u4iwu1s3li"/>
		<path d="M104,315.1v-1.7c0,0-6.2,9.4-7.6,20.6l7.7,2.7C103.9,336.4,101.1,326.1,104,315.1z" id="el_kCr1eJbddD"/>
		<path d="M222.9,306.5c-2.3-2.8-5.8-4.9-9.6-5.2h-0.1c-0.1,0-0.1,0-0.2,0c0,0,0.1,0,0.1,0c-0.3,0-0.6,0-1,0&#10;&#9;&#9;&#9;c-7.7,0-13.9,6.2-13.9,13.9c0,7.7,6.2,13.9,13.9,13.9c3.3,0,6.3-1.1,8.7-3c0.5-0.4,1-0.8,1.4-1.3c2.3-2.5,3.7-5.8,3.7-9.5&#10;&#9;&#9;&#9;C225.9,311.9,224.8,308.9,222.9,306.5z M218,317.1c-0.8,2.4-3.1,4.4-6,4.4c-3.4,0-6.2-2.7-6.2-6.2c0-3.4,2.7-6.2,6.2-6.2&#10;&#9;&#9;&#9;c1.5,0,2.8,0.5,3.9,1.4c1.4,1.1,2.3,2.8,2.3,4.8C218.3,315.8,218.2,316.5,218,317.1z" id="el_YH2IUm73BQ0"/>
		<path d="M213,301.3c-0.1-0.1-0.2-0.1-0.4-0.1C212.7,301.3,212.9,301.3,213,301.3z" id="el_LMMJ7rFQHYV"/>
		<path d="M242.4,463.7c0-0.1,0-0.1-0.1-0.2C242.3,463.6,242.3,463.6,242.4,463.7z" id="el_6Pg71f0QBGg"/>
		<path d="M240.8,458.3c0-0.3-0.1-0.6-0.1-0.8C240.7,457.8,240.8,458,240.8,458.3z" id="el_TXHJX_WQbYU"/>
		<path d="M279.7,433.6c-1.1-2-2-1.4-4-3c-0.4-0.3-0.7-0.5-1.1-0.7c0,0-1.3-1.9-3.2-3.7c-0.7-0.6-1.4-1.3-2.1-1.8&#10;&#9;&#9;&#9;c-1.5-1.1-3.2-2-5-2c-0.6-6.7-1.5-14.5-2.5-22.9c-0.5,1.5-1,3-1.6,4.6c1.1,5.8,2.2,11.8,3.1,18.3c-0.9,0.1-2,0.4-3.3,0.9l-0.3,0.1&#10;&#9;&#9;&#9;l-1.1,0.4c-0.7,0.2-1.4,0.6-2,0.9c-0.6,0.3-1.3,0.7-1.9,1.1l-1.7,1.1c-0.8,0.5-1.5,1-2.3,1.6c-0.2,0.1-0.3,0.2-0.5,0.3&#10;&#9;&#9;&#9;c0.1-0.2,0.2-0.4,0.3-0.6c-4.6,3.1-8.6,7-9.6,10.7c-2,3-1.6,8.8-3.2,9.6c-0.4,0.2-0.8,0.2-1,0c-0.1,0-0.1-0.1-0.2-0.1&#10;&#9;&#9;&#9;c-0.1,0-0.1-0.1-0.2-0.2c-0.1-0.1-0.1-0.2-0.2-0.2c-0.5-1-0.7-2.3-0.7-2.3c-3.6-21.3,16-37.2,16-37.2s0,0-0.1,0h-0.1&#10;&#9;&#9;&#9;c-0.1,0-0.1,0-0.2-0.1c0,0-0.1,0-0.1,0c0.1-0.1,0.2-0.2,0.2-0.2h-0.1h-0.1c-0.1,0-0.1,0-0.2-0.1c-0.3-0.1-0.6-0.1-0.9,0&#10;&#9;&#9;&#9;c-0.2,0-0.3,0.1-0.5,0.1s-0.3,0.1-0.5,0.2c-2.6,1.1-6.3,4.7-8.3,7.6c-0.5,0.8-1,1.3-1.5,1.8c-0.1,0.1-0.1,0.1-0.2,0.2&#10;&#9;&#9;&#9;c-0.1,0.1-0.3,0.3-0.4,0.4c-0.1,0.1-0.3,0.2-0.4,0.3c-0.1,0.1-0.2,0.1-0.3,0.2c-0.3,0.2-0.5,0.3-0.7,0.4c-0.2,0.1-0.3,0.1-0.5,0.1&#10;&#9;&#9;&#9;c0.3-1.7,0.5-3.4,0.7-5.1c0-0.4,0.1-0.8,0.1-1.1c0.2-1.8,0.4-3.5,0.5-5.4c0-0.7,0.1-1.4,0.1-2v-0.5c0.1-1.7,0.2-3.5,0.3-5.3&#10;&#9;&#9;&#9;c0-0.1,0-0.1,0-0.2c0.1-1.9,0.1-3.8,0.2-5.8c0.1-3.2,0.1-6.4,0-9.4c0-1.3,0-2.5-0.1-3.7c0-0.5,0-1,0-1.5c0-0.9-0.1-1.8-0.1-2.6&#10;&#9;&#9;&#9;v-0.1c0-0.9-0.1-1.7-0.1-2.5c-0.1-2.5-0.3-4.8-0.4-6.7c-0.3-4.6-0.6-7.3-0.6-7.3c-0.1,0.3-0.4-0.3-0.4-0.3c-2.2,6.6-5.4,8-6.6,8.3&#10;&#9;&#9;&#9;c1.2-7.8,0.4-20.7-0.8-31.8c6-6.7,10.3-18.9,9.9-23.7c-0.1-1.6,0-3,0.2-4.4c6-8.5,29.5-7.5,29.5-7.5&#10;&#9;&#9;&#9;c-13.2-4.7-25.6-22.6-25.6-22.6c3.7-12.4,27.1-16.5,27.7-16.6c-12.2-3.3-32.8-12.5-35.5-16.7c-2.6-4.1,16.7-14.6,13-16.5&#10;&#9;&#9;&#9;c-3.7-1.9-31.3-2.6-32.5-9.3c-1.2-6.7,10.8-17.7,10.3-19.1c-0.1-0.1-0.2-0.1-0.3-0.2c-2-0.4-12.2,4.4-19.7,8.5&#10;&#9;&#9;&#9;c-8.2,4.5-11.8-0.9-17.3-6c-2.4-2.2-5.5-8.7-8.1-15.3c-0.6,0.1-1.3,0.1-1.9,0.2c-7.6,0.9-15.5,3.2-23.4,7.3l-0.7,1.1&#10;&#9;&#9;&#9;c-19.9-1.5-30.9,17.7-30.9,17.7c0.9,0.7,1.7,1.3,2.6,2c-5.3,3.6-9.1,7.2-11.1,9.3c-1-0.5-1.5-0.7-1.5-0.7&#10;&#9;&#9;&#9;c-28.6,11.1-23.5,32.2-23.5,32.2c1.2,0.1,2.4,0.1,3.6,0.2c-2,3.9-8.2,17.3-9.4,32c-1.4,17.6,4.2,12,1,21.2&#10;&#9;&#9;&#9;c-3.2,9.2-20,37-6.2,45.9c8.7,5.6,11.5-5,14.5,5.5c2.8,10.4-5.7,6.5,3.1,14.4s-4.8,8.8,6.1,15.8c10.8,7.1-13.8,14.5,1.3,27.4&#10;&#9;&#9;&#9;c15.1,13.1,37.3,1.1,42.2,0.1c4.9-1.1,29.1,11.7,37.7,34.6l10.2,26.7c0,0,23.3,4.9,39.8-20.5l0.1,0.4c0.3-0.6,0.7-1.3,1-1.9&#10;&#9;&#9;&#9;c0,0,0-0.1,0-0.1c0,0.1,0,0.3,0.1,0.4c0.7,5.4,2.4,9.4,5.2,12.1l2.5,2.5c0,0.2,0,0.3,0,0.5c-0.1,2,0.2,3.8,0.8,5.4&#10;&#9;&#9;&#9;c3.6,8.9,21.7,18.9,27.6,16.7c2.3-0.9,4.5-1.6,8.9-20.9c2-8.5,3.4-16.8,4-23.2c0.2-1.8,0.3-3.4,0.3-4.9c0.1-4-0.3-6.9-1.2-8.9&#10;&#9;&#9;&#9;C283.6,437.4,279.7,433.6,279.7,433.6z M205.8,288.7c-0.5,0.1-1,0.2-1.4,0.4c-0.9-1.1-1.9-2.3-3.1-3.6l2.5-2.6&#10;&#9;&#9;&#9;C204.5,284.8,205.1,286.8,205.8,288.7z M200.7,275.1c0.8,2.1,1.7,4.4,2.5,6.5l-3.4,2.3c-1.4-1.6-2.8-3.3-4.5-5.2L200.7,275.1z&#10;&#9;&#9;&#9; M199.6,272.4l-5.9,4.6c-1.4-1.6-2.9-3.3-4.6-5.1c1.8-2,5.8-4.9,7.6-6.2C197.8,267.9,198.7,270.1,199.6,272.4z M175.3,271.2&#10;&#9;&#9;&#9;c1.1,1,2.2,2.1,3.3,3.2c-3.4,1.3-7,2.6-10.4,3.9c0,0,0,0-0.1,0c0.6-3.9,1.2-7.9,1.9-11.9c1.3,1.2,2.6,2.4,4,3.6l-1.7,3.8&#10;&#9;&#9;&#9;L175.3,271.2z M180.1,276.4c-0.8,2.8-1.5,5.8-2.3,8.6c-0.7-0.5-1.5-1.1-2.3-1.6l1.6-3.2l-2.9,2.3c-1.1-0.8-2.3-1.6-3.5-2.4&#10;&#9;&#9;&#9;C173.8,278.7,177,277.5,180.1,276.4z M185.1,281c0.9,1,1.8,1.9,2.7,2.9c-2.6,0.7-5.3,1.4-7.9,2c0.7-2.7,1.4-5.5,2.2-8.2&#10;&#9;&#9;&#9;c0.8,0.8,1.5,1.6,2.3,2.4l-1.3,2.2L185.1,281z M185.5,315.7c-14.5-8.9-14-23.4-14.3-25C173.5,299,185.2,315.3,185.5,315.7z&#10;&#9;&#9;&#9; M174.7,291.6c2.2,4.9,11.5,15.7,11.5,16C176.9,303.9,175,292.3,174.7,291.6z M184.3,289.8l1.5-1.7l-2.3,1&#10;&#9;&#9;&#9;c-0.5-0.4-1.1-0.9-1.7-1.3c2.4-0.6,4.9-1.3,7.4-1.9c-0.8,1.9-1.6,3.9-2.4,5.9C186,291.3,185.2,290.6,184.3,289.8z M190.9,287.6&#10;&#9;&#9;&#9;c0.5,0.6,1,1.2,1.5,1.8l-1.2,2.1l1.9-1.3c0.4,0.5,0.9,1.1,1.3,1.6c-1.9,0.5-3.7,1.1-5.7,1.6l-0.1-0.1&#10;&#9;&#9;&#9;C189.4,291.5,190.1,289.5,190.9,287.6z M194.9,294.1c-1,0.7-1.8,1.5-2.7,2.4c-0.4-0.4-0.9-0.8-1.4-1.2&#10;&#9;&#9;&#9;C192.1,294.9,193.6,294.5,194.9,294.1z M195.7,262.9c-2.6,1.2-6.8,4.2-8.6,6.3c-1.6-1.8-3.3-3.7-5.2-5.8c4.1-3.7,8.2-6.5,10.2-7.8&#10;&#9;&#9;&#9;C193.4,258,194.5,260.5,195.7,262.9z M190.6,252.8c-3.5,1.9-8.5,6.9-10.5,8.9l-0.1,0.1l-0.1-0.1c-2.2-2.3-4.4-4.9-6.7-7.3&#10;&#9;&#9;&#9;c0,0,0-0.1-0.1-0.1c0,0,0,0,0.1-0.1v0.2c6.2-6.5,11-8.9,13-9.9C187.7,247.6,189.2,249.9,190.6,252.8z M179.1,232.8&#10;&#9;&#9;&#9;c0,0,3.3,5.2,5.1,7.9c0,0.1,0.1,0.1,0.1,0.2h-0.1c-4.7,1.3-10.6,8-13,10.8c-2.9-2.6-5.6-5.3-8.2-8h-0.2c1-0.1,0.4-0.2,0.5-0.3&#10;&#9;&#9;&#9;c0.1-0.2,0.5-0.4,0.7-0.6c0.1-0.1,0.3-0.2,0.4-0.3c2.2-2.1,10.3-7.2,10.5-7.3c0.2-0.1,0.4-0.3,0.6-0.4&#10;&#9;&#9;&#9;C177,234,178.2,233.3,179.1,232.8z M161.1,274.1c-1.4-0.8-2.8-1.6-4.4-2.4c3.7-2,7.4-4.1,11.1-6.2c-0.6,3.8-1.2,7.7-1.8,11.6&#10;&#9;&#9;&#9;c-1.2-0.7-2.4-1.5-3.6-2.2l1.2-3.2L161.1,274.1z M146.4,266.5c-1.9-0.9-3.8-1.7-5.9-2.5c5.1-2.7,10.1-5.4,15.2-8.1&#10;&#9;&#9;&#9;c-1,4.6-2,9.2-3,13.8c-1.3-0.7-2.7-1.4-4.1-2l1.8-5L146.4,266.5z M126.9,259.3c-0.2-0.1-0.5-0.2-0.7-0.2c-0.2-0.1-0.4-0.1-0.6-0.2&#10;&#9;&#9;&#9;c-1.5-0.5-2.9-1-4.5-1.4c6.1-4.4,12-8.8,18.1-13.2v0.1v0.1c-0.1,0.4-0.1,0.8-0.2,1.1c-0.4,1.4-0.6,2.8-0.8,4.4c0,0,0,0,0,0.1&#10;&#9;&#9;&#9;c-0.2,1-0.4,2.1-0.5,3.2c-0.5,2.9-1,5.9-1.6,8.9c-1.2-0.5-2.4-0.9-3.6-1.4c-1.1-0.3-1.1-0.4-1.6-0.6l0.4-1.2v-0.1l2-5.3&#10;&#9;&#9;&#9;C133.3,253.6,126.9,259.2,126.9,259.3z M141.4,244.6c1.5,1,3.1,2.1,4.8,3.2l-2.7,8.3l5.8-6.2c1.8,1.2,3.5,2.5,5.4,3.9&#10;&#9;&#9;&#9;c-5.4,2.8-10.8,5.8-16.3,8.7C139.3,256.6,140.4,250.6,141.4,244.6z M157.9,256.5c1.4,1,2.7,2.1,4.1,3.2l-1.8,4.1l3.2-2.9&#10;&#9;&#9;&#9;c1,0.9,2.1,1.7,3.2,2.6c-3.9,2.1-7.8,4.4-11.7,6.5C155.9,265.5,156.9,261,157.9,256.5z M176.5,228.8c-5.3,2-13.7,8.5-16.9,11.3&#10;&#9;&#9;&#9;c-2.3-2.3-7-6.8-7-6.8c2.4-4.1,13.7-10.7,17.9-13.1C172.4,223,174.4,225.8,176.5,228.8z M161.2,208.5l6.8,8.5&#10;&#9;&#9;&#9;c-7.6,1-16.6,9.3-19.4,13.4c0-1,0-0.3-0.1-0.3c-2.9-3-6-6.2-8.9-8.1c0.1-0.1,1-0.9,1-1c0,0,0,0,0-0.1c0.4-0.4,7.2-5,7.6-5.3&#10;&#9;&#9;&#9;c2.1-1.3,4.5-2.6,6.5-3.8c0.4-0.2,0.8-0.4,1.2-0.7c0.3-0.2,0.6-0.4,1-0.5c0.7-0.4,1.3-0.7,1.9-1.1&#10;&#9;&#9;&#9;C159.5,209.1,161.2,208.5,161.2,208.5z M152.4,200.1c0.2,0,0.3,0.1,0.5,0.2c0.4,0.4,1,1,1.7,1.7c1,1,2.3,2.3,3.7,4.1h-0.2&#10;&#9;&#9;&#9;c-1.2,0.3-2.4,0.7-3.7,1.3c-1,0.4-1.9,0.9-2.9,1.4c-6.2,3.1-12.5,7.9-15.4,10.1c0,0-4.4-3.5-6.5-5.3c-0.2-0.1-0.3-0.3-0.5-0.4&#10;&#9;&#9;&#9;C132.6,208.6,140.7,200.1,152.4,200.1z M128.3,236.5l-3.1,9.4l6.8-7.3c1.8,1.1,3.8,2.3,5.9,3.6c-6.4,4.6-12.7,9.1-19.1,13.8&#10;&#9;&#9;&#9;c1.5-7.5,2.9-15,4.5-22.5C124.8,234.5,126.5,235.5,128.3,236.5z M116.4,256.1c-1.6-0.4-3.2-0.7-4.9-1l2.4-8.9l-6.8,8.1&#10;&#9;&#9;&#9;c-2.2-0.4-4.6-0.7-6.9-1c6.8-6.3,13.6-12.5,20.3-18.8C119.3,241.6,117.9,248.9,116.4,256.1z M111.7,229.5c0.6-0.3,1.2-0.5,1.8-0.8&#10;&#9;&#9;&#9;c1.3,0.6,3.5,1.7,6.4,3.2c-7.5,7-15.1,14-22.7,20.9c-0.3,0-0.7-0.1-1-0.1c-0.8-0.1-1.6-0.2-2.4-0.2&#10;&#9;&#9;&#9;C93.8,247.6,95.8,236.9,111.7,229.5z M113.2,412.7c-9.6-5.8,0.4-14.1,5.8-22.7c5.4-8.6-5-8.5-7.1-7.9c-2.1,0.6-3.8,0.4-6.8-4.6&#10;&#9;&#9;&#9;c-2.9-5.1,14.5-0.7,27-10.7c3.1-2.4-5.1,0.6-6.2,1.1c-2.5,1.1-7.9,1-12.3-0.3c-4.5-1.3-8.8,0.7-10.9-0.4c-2-1.1-3.5-6.6,2.2-15.9&#10;&#9;&#9;&#9;c5.8-9.4-6.8-12.7-7.2-10.5c-0.4,2.2,3.3,2.1,1.4,6.2c-1,2.1-4.4-0.4-6.5-0.5c-2.1,0-0.4,7.2-9.1,4.2c-8.8-2.9-3.4-20.1,2.2-27.5&#10;&#9;&#9;&#9;c3.5-4.6,5.9-11.8,6.9-19.3c0.4,0.2,1.3,0.5,2.2-0.7c1.3-1.6,2.9-0.5,5.3,0.4c2.2,0.9,3.3-0.6,1.9-1.9c-0.3-0.3-0.9-0.6-1.5-0.9&#10;&#9;&#9;&#9;c-0.1-0.1-0.2-0.1-0.4-0.2c-1.9-1.1-3.9-2.8,0.3-7.3c0,0,1.1,0.4,2.4,1.5c0,0,0,0.1,0,0.2v0.2c0,3.5,2.6,6.5,6.2,6.5&#10;&#9;&#9;&#9;c3.5,0,5.9-2.8,6-6.3l9.9-2.2c-6.6-4.1-15.4-3.8-18.8-3.4c1-0.6,6.6-3.4,13.7-2c3.2,0.7,6.6,4.6,6.6,4.6c-3.7,3,6,4.2,2.5,4.9&#10;&#9;&#9;&#9;c-1.8,0.3-3.3,0.7-4.6,1.3h-0.1c-0.3,0.1-0.6,0.3-0.9,0.4c-11.2,5.3-18.7,3-19.2,2.8c8.4,7.3,14.3,3.1,17.4-0.2&#10;&#9;&#9;&#9;c11.6-1.9,25.8-6.1,30.6-8.1c1.5-0.6,1.2-2.8-0.4-3c-3.6-0.6-8.7-1.5-13.5-2.6c-4.6-1.1-10.3-3.1-14.8-4.9&#10;&#9;&#9;&#9;c10.1-0.3,21.8,1.7,22.7,0.1c1.4-2.5-16.5-5.7-21.6-7.1c-5.2-1.4-17.9,3.8-23.8,9.2c-3,2.7-6,2.3-8,1.3c0.8-8.9,6.1-22.3,8.8-28.8&#10;&#9;&#9;&#9;c0.1,0,0.2,0,0.3,0c5,0.7,9.7,1.6,14.5,2.7c0.1,0,0.2,0.1,0.4,0.1c0,0,0,0,0.1,0c0.5,0.1,1.1,0.3,1.6,0.4c0.1,0,0.3,0.1,0.5,0.1&#10;&#9;&#9;&#9;c0,0,0,0,0.1,0c0,0,0,0,0.1,0c0.1,0,0.2,0.1,0.3,0.1c0.8,0.2,1.6,0.5,2.3,0.7c0.6,0.2,1.3,0.4,1.9,0.6c-1,1.3-6.3,7.4-15.2,8.9&#10;&#9;&#9;&#9;c0,0,1.3,8.4,25-5.3c0,0,18,7.3,29.3,15.9c1,6.9,2.7,12.9,5,18.5c2.2,5.7,5.1,10.8,8.1,14.9c0.3,1,11,17.9,24.7,25&#10;&#9;&#9;&#9;c-0.2,2.9-0.3,6.1-0.3,9.2c0,17.7,2.7,35.2,2.7,35.2s-9.3,2.6-9.3,2.7c-4,1.9-8.8,4.1-14.3,6.8&#10;&#9;&#9;&#9;C147.1,409.9,122.8,418.4,113.2,412.7z M195.6,462.1c0,0-24.4-37.5-15-45.3c9.4-7.8,22.6-22.2,22.6-22.2&#10;&#9;&#9;&#9;C216.8,424.9,195.6,462.1,195.6,462.1z M223,333.6c-3.2,1.9-7.1,3-11.1,3c-12,0-22-9.8-22-22c0-11.6,9.1-21.1,20.5-21.9&#10;&#9;&#9;&#9;c0.4,0,0.9,0,1.3,0c8.5,0,15.8,4.9,19.4,11.8c6.8,12.3-4,25.7-4,25.7l-0.3,0.4c-0.9,0.8-1.8,1.5-2.8,2.2c-0.2,0.1-0.4,0.3-0.6,0.4&#10;&#9;&#9;&#9;c-0.1,0-0.1,0.1-0.2,0.1C223.1,333.5,223.1,333.6,223,333.6z M279.7,443c0,0.1,0,0.2,0,0.2c0,0.2,0,0.3,0,0.5&#10;&#9;&#9;&#9;c0,0.2-0.2,0.5-0.2,0.8l-0.2,0.1v0.5c-0.2,0.8,0,2.2-0.1,3.7c0,0.5,0,1,0,1.5c-0.1,1.2-0.2,2.5-0.4,3.8c-0.1,0.7-0.2,1.3-0.3,2&#10;&#9;&#9;&#9;c-0.1,0.7-0.2,1.4-0.3,2.1c-0.1,0.7-0.2,1.3-0.3,2c-0.1,0.7-0.2,1.4-0.4,2.1c-0.1,0.7-0.3,1.4-0.4,2.1c0,0,0,0.1,0,0.2&#10;&#9;&#9;&#9;c-0.1,0.6-0.3,1.3-0.4,2c0,0.1,0,0.1,0,0.2c-0.1,0.6-0.3,1.3-0.4,1.9c0,0.1,0,0.2,0,0.2c-0.1,0.6-0.3,1.3-0.4,1.8&#10;&#9;&#9;&#9;c0,0.1,0,0.2-0.1,0.3c-0.1,0.6-0.3,1.2-0.4,1.8c-0.2,0.7-0.3,1.3-0.5,2c-0.1,0.4-0.2,0.8-0.3,1.3c-0.1,0.6-0.3,1.2-0.4,1.8&#10;&#9;&#9;&#9;c-1.1,4.2-2.2,7.9-3,10.1c-0.1,0.2-0.1,0.3-0.2,0.5c-0.3,0.6-0.5,1.1-0.7,1.4v0.2c-0.1,0.1,0,0.3-0.1,0.3v0.1&#10;&#9;&#9;&#9;c-0.1,0-0.1,0.1-0.1,0.1c0-0.1-0.7,0.1-0.7,0v-0.2c0,0,0,0,0-0.1c0-0.1,0-0.2,0-0.2c-0.1,0-0.3,0.1-0.4,0c-0.2,0-0.5,0-0.7-0.1&#10;&#9;&#9;&#9;c-0.1,0-0.2,0-0.2,0c-0.1,0-0.2,0-0.2,0c-0.1,0-0.1,0-0.2,0c-0.1,0-0.1-0.1-0.2-0.1c-0.2-0.1-0.4-0.2-0.7-0.2h-0.1&#10;&#9;&#9;&#9;c-1.4-0.5-3-1.2-4.9-2.1c-0.3-0.2-0.7-0.4-1.1-0.6c-0.1-0.1-0.2-0.1-0.3-0.2c-1.3-0.7-2.6-1.5-3.9-2.4c0.1,0,0.2-0.1,0.2-0.1&#10;&#9;&#9;&#9;c-0.1,0,0-0.3-0.1-0.3c-0.1,0-0.3,0-0.4,0c0.1,0.1,0.1,0.2,0.2,0.3c-0.1,0-0.2-0.1-0.3-0.2c0,0-0.1,0-0.1,0.1v-0.3h0.1&#10;&#9;&#9;&#9;c-0.8-0.6-1.1-1.2-2.1-1.9c0-0.1-0.4-0.2-0.5-0.3c-0.1-0.1-0.3-0.1-0.3-0.2c-0.1,0-0.1-0.1-0.2-0.1c-0.1-0.1,0-0.2-0.1-0.3&#10;&#9;&#9;&#9;l0.1-0.1c-2-1.6-3.3-3.2-4-5c-1.2-3,0.2-8.9,2.3-14.6c0.2-0.4,0.3-0.8,0.4-1.2c0.3-0.8,0.6-1.6,1-2.4c0.2-0.4,0.3-0.8,0.5-1.1&#10;&#9;&#9;&#9;c0.1-0.2,0.2-0.5,0.3-0.7c0.2-0.4,0.4-0.8,0.5-1.1c0.6-1.3,1.2-2.5,1.7-3.6c0.2-0.3,0.3-0.6,0.5-0.9c0.3-0.6,0.5-1.1,0.8-1.6&#10;&#9;&#9;&#9;c0.1-0.1,0.1-0.2,0.2-0.3c0.1-0.1,0.1-0.3,0.2-0.4c0-0.1,0.1-0.2,0.1-0.3c0.2-0.5,0.4-0.8,0.6-1.1c0-0.1,0.1-0.2,0.1-0.2l-0.1,0.1&#10;&#9;&#9;&#9;l-0.1,0.1v-0.1c0,0.1-0.2,0.1-0.2,0.2h-0.1c0,0-0.1,0-0.1,0.1l-0.1,0.1c-0.2,0.2-0.5,0.4-0.8,0.7c-0.1,0.1-0.2,0.2-0.3,0.4&#10;&#9;&#9;&#9;c0.1-0.1,0.2-0.1,0.2-0.2c0,0.1-0.1,0.2-0.1,0.2s-0.1,0-0.1,0.1l-0.1,0.1c0,0-0.1,0.1-0.1,0.2l-0.1,0.1c0,0,0,0,0,0.1l-0.3,0.4&#10;&#9;&#9;&#9;c-0.1,0.1-0.1,0.1-0.2,0.2c-0.4,0.4-0.8,0.8-1.2,1.3l-1.5,1.7c-0.3,0.3-0.5,0.5-0.8,0.8c-0.1,0.2-0.3,0.4-0.5,0.6&#10;&#9;&#9;&#9;c-0.3,0.4-0.5,0.7-0.8,1.1c-0.5,0.8-1.1,1.7-1.7,2.7c-0.1,0.1-0.2,0.3-0.3,0.5c0,0.1-0.1,0.2-0.2,0.3c-0.1,0.1-0.1,0.2-0.2,0.3&#10;&#9;&#9;&#9;c-0.1,0.1-0.2,0.3-0.2,0.4c-0.2,0.3-0.4,0.6-0.5,0.9c-1,1.8-2,3.7-3,6c0,0.1-0.3,0.3-0.3,0.3l0.1-0.2c-0.1-0.1-0.3-0.3-0.4-0.5&#10;&#9;&#9;&#9;c0-0.1-0.1-0.2-0.1-0.2c-0.1-0.1-0.2-0.3-0.3-0.4c0,0,0,0-0.1,0c0,0,0-0.1-0.1-0.1c0-0.1,0-0.2,0-0.3c0,0,0.1-0.3,0-0.3H243h-0.1&#10;&#9;&#9;&#9;c-0.1-0.1-0.1-0.2-0.2-0.3c-0.1-0.1-0.1-0.1-0.1-0.2c0-0.1-0.1-0.1-0.1-0.2l-0.1-0.1c-0.1,0-0.2-0.1-0.2-0.2l-0.1,0.1&#10;&#9;&#9;&#9;c-0.1-0.1,0-0.4-0.1-0.5c0-0.1,0-0.2,0-0.3c-0.2-0.3-0.3-0.7-0.4-1.1c-0.2-0.6-0.4-1.2-0.5-1.9v-0.1c-0.1-0.2-0.1-0.3-0.1-0.5&#10;&#9;&#9;&#9;c0,0.1,0,0.3,0.1,0.4c0-0.2-0.1-0.5-0.1-0.7c0,0.1,0,0.2,0,0.2c0-0.2-0.1-0.4-0.1-0.6c0,0,0,0,0,0c0-0.1-0.1-0.3-0.1-0.4v0&#10;&#9;&#9;&#9;c0,0,0,0,0,0c-0.2-0.9-0.1-11.1-0.1-11.5c0-0.3,0.1-0.7,0.1-1c0.1-0.5,0.1-0.9,0.2-1.3c0.1-0.7,0.2-1.3,0.3-1.9v-0.1&#10;&#9;&#9;&#9;c0-0.2,0.1-0.7,0.2-1.2c0-0.1,0-0.2,0.1-0.4c0,0,2.5-2.9,6.2-6.3c4.6-4.1,10.7-9,15.5-9.4l2.6,20.2l1.2,0.7l-2.4-20.6&#10;&#9;&#9;&#9;c1.1,0.4,3.1,1.4,5.6,3.6c1.3,1.2,2.8,2.7,4.4,4.9c0.5,0.8,1.1,1.5,1.6,2.4c0,0,0,0.1,0.1,0.1c0,0,0,0,0-0.1&#10;&#9;&#9;&#9;c0,0.1,0.1,0.1,0.1,0.2c0.2,0.3,0.4,0.6,0.6,0.9c0,0.1,0.1,0.1,0.1,0.2c0,0,0-0.1-0.1-0.1c0.2,0.3,0.4,0.6,0.7,0.9&#10;&#9;&#9;&#9;c-0.2-0.3-0.4-0.5-0.6-0.8c0.5,0.7,0.9,1.3,1.4,2c0.1,0.2,0.3,0.4,0.4,0.7c0-0.1,0-0.1-0.1-0.2c0.2,0.3,0.3,0.6,0.5,0.9&#10;&#9;&#9;&#9;c0,0.1,0.1,0.3,0.1,0.4c0,0.1,0.1,0.3,0.1,0.4c0,0.2,0.1,0.4,0.1,0.7C279.7,442.7,279.7,442.8,279.7,443z" id="el_Eputh2nZt0r"/>
		<polygon points="240.8,458.3 240.8,458.3 240.8,458.3 &#9;&#9;" id="el_lJl9jINi2_h"/>
		<path d="M240.5,455.8c0,0.1,0,0.2,0.1,0.3C240.6,456,240.6,455.9,240.5,455.8z" id="el_97h9y2Ov1FH"/>
		<path d="M276.2,436.4C276.2,436.3,276.2,436.3,276.2,436.4c-0.1-0.1-0.1-0.2-0.2-0.3&#10;&#9;&#9;&#9;C276.1,436.2,276.1,436.3,276.2,436.4z" id="el_6It2xwtZwZX"/>
		<path d="M256.4,448l-0.1,0.2C256.3,448.1,256.4,448.1,256.4,448z" id="el_75rvIvlkrCS"/>
		<path d="M257.7,446.7C257.8,446.6,257.7,446.6,257.7,446.7L257.7,446.7z" id="el_e5qGnHtsEPj"/>
		<path d="M257.8,446.6l0.1-0.1C257.8,446.5,257.8,446.6,257.8,446.6z" id="el_KiQHnOvYeI6"/>
		<path d="M269.5,490.5c-0.2,0-0.3,0-0.5,0C269.2,490.6,269.4,490.6,269.5,490.5z" id="el_jnK9_rdC3nB"/>
		<path d="M269.7,490.5C269.8,490.4,269.7,490.4,269.7,490.5L269.7,490.5z" id="el_g2IYk6I9KL6"/>
	</g>
	<g id="el_x00EfckyfWU_an_L6qHBp42L" data-animator-group="true" data-animator-type="1"><g id="el_x00EfckyfWU">
		<path d="M365.1,380.4c0.2-2.8-1.9-5.3-2.7-6.4c-3-3.5-9.2-9.1-15.7-13.5c0-9.3-15.4-17.7-22-21.6&#10;&#9;&#9;&#9;c-20.9-12.4-46.8-21.2-70.9-23.8c-12.5-1.3-29.9,2.3-15,17.1c13.6,13.5,28.8,23.9,39,40.5c2.1-2,4.7-4.1,6.1-6.7&#10;&#9;&#9;&#9;c9.2,9.2,17.5,19.2,25.8,29.2c5.2,6.2,19.7,34.8,30,29.6c5.2,5.5,10.2,8.4,15.1,8.6l3.5,0.2c7.5,7.5,25.5,7.9,33.7,0.4&#10;&#9;&#9;&#9;c7.4-6.7-1.4-17.8-4.7-23.9C381.9,400.2,375.2,384.7,365.1,380.4z M341.4,359.8c-1.8-0.5-6.4,0.4-6.4,0.4c5,2,24.2,12.3,24.4,18.7&#10;&#9;&#9;&#9;c0.1,3.6-15.4,0.1-19.1,3.1c-18.9-17.6-51.3-45.6-78.1-60C324.9,335.1,343.1,360.2,341.4,359.8&#10;&#9;&#9;&#9;C339.6,359.3,343.1,360.2,341.4,359.8z M334.1,418.5c-16.9-13.6-12.9-38.4-12.9-38.4c-5,1-2.3,15.2-3.7,18.4&#10;&#9;&#9;&#9;c-15.2-23.3-39.1-45-39.1-45c3.4,7.9,0.3,10.9,0.3,10.9c-6-9.6-23.3-25-32.2-32.5c16.4,2.6,47.9,12.9,93,50.5&#10;&#9;&#9;&#9;c-0.5,1.2-1.2,2.3-2.1,3.1c-3.5,6.6-6.5,17.6-3.5,24.5c0.8,3.4,4.7,7.7,4,9.3C337.1,421.3,334.1,418.5,334.1,418.5z M387.2,430.9&#10;&#9;&#9;&#9;c-3.1,1.4-8.2,2.8-11.5,2.8l-4.6,0c-13.1,0-16.6-19-19.1-29.4c0-0.1,0-0.1-0.1-0.1c-0.1,0.7-0.2,2.6-0.1,2.7c0,7.6,1.4,14,3,21.5&#10;&#9;&#9;&#9;l-0.1-0.2c-0.4,0-1-0.2-1.4-0.4c0,0-2.8-1.2-2.4-1c-1.2-0.5-6.4-5-6.9-5.1c0-1.7-7-10.1-8.5-11.5c0,0-0.2-19.8,5.7-26.2l15.4,13.4&#10;&#9;&#9;&#9;l1.4-0.3l-15.6-13.9c5.1-1.8,15.6,0.3,15.5,0.3c15.1,3.8,28.8,30.1,32.4,44.4C390.4,428,387.3,430.9,387.2,430.9z" id="el_GXFwdf5L_w3"/>
	</g></g>
	<g id="el_PyYedabmZRK_an_pkqK21xTq" data-animator-group="true" data-animator-type="1"><g id="el_PyYedabmZRK">
		<path d="M380.7,319c-0.9-2.7-3.6-4.2-4.9-4.9c-4-2.2-11.9-5.1-19.6-6.8c-0.1-0.3-0.1-0.5-0.2-0.8&#10;&#9;&#9;&#9;c-5.1-13.1-40.3-13-50.1-13.2c-17.7-0.3-36.9,1-54,6.1c-5.1,1.5-15.3,4.1-15.9,10.9c-0.7,5.3,4.6,8.2,8.7,9.8h0.1&#10;&#9;&#9;&#9;c18.1,6,36.5,12.1,51.9,23.6c1.1-2.6,2.9-5.5,3.1-8.4c11,4.9,21.5,10.6,32,16.3c10.7,5.7,20.9,15.6,32.5,19.1&#10;&#9;&#9;&#9;c3.3,1.2,6,0.8,8.9-1.1c6.8,3.2,12.5,4,17.2,2.5l3.4-1.1c7.4,7.4,27.9-4.8,31.5-12.1c4.4-8.9-7.1-15.5-13.2-20.5&#10;&#9;&#9;&#9;C403.7,331.3,391.8,319.5,380.7,319z M351.1,308.5c-1.8,0.2-5.8,2.7-5.8,2.7c2.8,0,32.2,5.9,30.5,9.7c-2.1,4.7-14.4,2.9-17.6,8.5&#10;&#9;&#9;&#9;c-24.1-9.4-64.5-23.7-94.7-27.2C326.6,291.6,352.9,308.3,351.1,308.5z M365.9,365.8c-20.7-6.4-26-31-26-31&#10;&#9;&#9;&#9;c-4.3,2.8,3.5,14.9,3.2,18.5c-22.7-16.1-52.8-27.5-52.8-27.5c6.1,6.1,4.2,10,4.2,10c-9.1-6.8-30.9-14.7-41.8-18.4&#10;&#9;&#9;&#9;c16.2-3.6,49.3-5.7,105,12.9c-2.6,7.8-1.3,22.1,4.8,27.6C364.4,360.7,374.5,366.5,365.9,365.8z M410.4,364.4&#10;&#9;&#9;&#9;c0.1,0-4.6,1.8-4.6,1.8c-9.5,3.9-16.3-5.1-21.8-11.7c-1.1-1.3-6.8-6.6-6.8-8.8c0,0.1-0.1,0-0.1,0.2c0,0.1,0,0.2,0,0.3&#10;&#9;&#9;&#9;c0,0.5,0.8,2.3,0.8,2.4c2.8,7,6.7,12.7,10.5,18.6c-0.3,0.2-1.1,0.1-1.4,0.1c0,0-3.4-0.2-2.8-0.2c-1.4-0.5-2.8-0.8-4.2-0.8&#10;&#9;&#9;&#9;c-0.4,0-3.8-0.9-4-1.2c-1.9-2.4-9.4-5-11.9-7.6c0,0-7.5-18.3-4.4-26.4l19.2,6.8l1.2-0.8l-19.5-7.2c4.1-3.8,10.2-4.6,15.4-5.6&#10;&#9;&#9;&#9;c-0.3,0,4.3-1.2,6.6-0.1h0.1c0.5,0,1.8,0.7,1.8,0.8c11.6,5.8,29.3,17.9,36.6,28.8c0,0.1,1.1,0.8,1.1,1.2&#10;&#9;&#9;&#9;C421.9,355.2,419.8,360.8,410.4,364.4z" id="el_OLFY6HFDFd_"/>
	</g></g>
	<g id="el_mN2JAMvKf7S_an_xO6LYioBf" data-animator-group="true" data-animator-type="1"><g id="el_mN2JAMvKf7S">
		<path d="M366.4,269.5c-3.7-7-19.7-7-26.1-7.3c-0.1-0.3-0.2-0.5-0.4-0.7c-1.3-2.1-3.8-2.9-5.2-3.4&#10;&#9;&#9;&#9;c-10.2-3.4-21.8-3.4-32.4-2.6c-23.4,1.6-52.5,7.1-72.3,20.1c-11.6,7.7-8.4,16.4,5.2,18.7c18.1,3.2,36.1,5.7,52.6,14&#10;&#9;&#9;&#9;c0.7-2.8,1.9-6,1.7-8.9c12.7,3.1,24.9,7.3,37.2,11.5c7.9,2.7,34.5,19.3,41,9.6c7.2,2,13.1,1.8,17.4-0.5l3.1-1.7&#10;&#9;&#9;&#9;c7.9,7.9,30.3-12.2,29.7-20.5c0.1-2.3,0-4.6-17.1-14.5C391.2,277.6,377.3,268,366.4,269.5z M335.4,264.1c-1.7,0.5-5.3,3.6-5.3,3.6&#10;&#9;&#9;&#9;c5.3-0.8,27-2,30.5,3.2c2,3.1-13.2,8.1-14.7,12.6c-25.3-5.2-67.5-12.3-97.9-10.6C308.5,251.7,337.1,263.6,335.4,264.1&#10;&#9;&#9;&#9;C333.7,264.7,337.1,263.6,335.4,264.1z M359.8,318.2c-21.6-2.7-31-26.1-31-26.1c-3.7,3.3,5.9,14.2,6.3,17.6&#10;&#9;&#9;&#9;c-25.1-12-56.8-18.1-56.8-18.1c7,5,6,9.2,6,9.2c-10.1-5.1-22.5-13-33.9-14.9c15.3-6.3,37.1-10.1,95.3-1.5&#10;&#9;&#9;&#9;c-1.7,7.5,3,23.4,9.4,26.8C357.1,313.8,368.5,317.6,359.8,318.2z M412.2,300.5c-1.6,3.2-5.9,6.8-8.6,8.8c0.2-0.3-0.4,0.3-0.4,0.3&#10;&#9;&#9;&#9;c-1,0.8-2.7,1.4-3.6,2.3h-0.1c-11.3,6.8-23.9-7.7-31.6-15.4c0,0.1,0.1,0.6,0.2,0.7c0.1,0.3,0.2,0.6,0.4,1c0.1,0.1,0.8,0.9,0.8,1&#10;&#9;&#9;&#9;c3.8,6.1,7.9,11.4,13.4,16.2c0,0.1-1.1,0.5-1.4,0.5c0,0-1.7,0.6-1.9,0.6c0,0-4.7,0.3-6.3-0.2c0.3,0-1.6-0.3-1.4-0.2&#10;&#9;&#9;&#9;c-0.5,0-9.8-3.4-13-4.7c-0.5-0.3-1.1-0.5-1.5-0.9c0,0-10.5-16.8-8.8-25.3l20.1,3.4l1-1l-20.4-3.7c2.9-3.7,11.7-7.9,13.5-7.9&#10;&#9;&#9;&#9;c3.6-1.2,6-2.1,9.4-1.1c1.9,1,18.8,5.7,18.8,8.3c4.5,2.3,23,10.1,23,14.2c-0.4,0.4-0.4,0.5-0.3,0.5&#10;&#9;&#9;&#9;C413.2,298.1,412.2,300.5,412.2,300.5z" id="el_SvvCKK_shjU"/>
	</g></g>
	<g id="el__HRpFdzC9j2_an_d8rlq_XLA" data-animator-group="true" data-animator-type="1"><g id="el__HRpFdzC9j2">
		<path d="M398.6,226.3c-10.4-4.3-28.6-13.5-40.4-10.2c-4.9-6.4-20.4-3.9-26.9-3.2c-0.1-0.2-0.3-0.5-0.5-0.7&#10;&#9;&#9;&#9;c-1.6-1.9-4.2-2.3-5.6-2.6c-10.6-1.8-22.1,0-32.5,2.3c-22.8,5.1-52.4,15-69.4,31.7c-9.3,9.2-4.4,16.1,8.1,16.8&#10;&#9;&#9;&#9;c18.7,1.1,36.9,0,54.9,6c0.3-2.9,1.1-6.1,0.3-9c12.8,1.2,25.3,3.5,37.9,5.7c8.1,1.4,35.5,13.3,42,4.4c0.2-0.3,0.4-0.6,0.6-1&#10;&#9;&#9;&#9;c7.5,0.9,13.2-0.1,17.1-3.1l2.8-2.1c10,0,29.1-12.4,26.4-24.9C413.2,233.9,402.9,228,398.6,226.3z M326.8,215.5&#10;&#9;&#9;&#9;c-1.6,0.8-4.7,4.5-4.7,4.5c2.4-0.8,32.7-4.3,32-0.5c-1.1,5.7-12.8,6.8-14,13.7c-25.8-1.2-68.6-2-98.5,4.2&#10;&#9;&#9;&#9;C298.3,207.3,328.4,214.8,326.8,215.5C325.2,216.3,328.4,214.8,326.8,215.5z M359,265.5c-21.7,0.5-34.5-21.2-34.5-21.2&#10;&#9;&#9;&#9;c-3.2,4,8,13.1,8.9,16.5c-26.6-8.1-58.9-9.3-58.9-9.3c7.7,3.8,7.3,8.2,7.3,8.2c-10.8-3.5-25.4-8.7-36.9-8.7&#10;&#9;&#9;&#9;c14.2-8.5,36.4-16.5,95.1-16.7c0,8.5,5.8,21.8,13.3,25.6c3,1.9,8.7,2.3,9.2,4C363.1,265.9,359,265.5,359,265.5z M408.2,239.9&#10;&#9;&#9;&#9;c0,0-4.5,6.8-7,9.8l-3.8,3.3c-7.8,6.5-17,0.5-24.4-4c-1.7-1.1-6.7-6.2-9.1-6.2c0.1,0.1,1.2,1.7,1.3,1.8c0,0,0.4,0.4,0.4,0.5&#10;&#9;&#9;&#9;c5,5.8,9.9,10,16.1,14.5l-3.2,1.4c0,0-2.1,0.3-2,0.3c-2,0.3-5.8,0.2-5.7,0.3c-0.5,0-1.2-0.1-1.6,0.2c-1.8-1.8-12-3.1-12-3.1&#10;&#9;&#9;&#9;c-0.5-0.2-1-0.3-1.5-0.5c0,0-13-15.1-12.4-23.7l20.3,0.3l0.9-1.1l-20.8-0.6c2.5-4.4,12.9-10.1,12.7-10.1&#10;&#9;&#9;&#9;c9.5-4.7,18.5,0.4,28.1,3.1h0.1c7.3,2.4,18.8,5.5,24,10.7C408.5,236.8,409.3,238.2,408.2,239.9z" id="el_YYnUxWOnkKx"/>
	</g></g>
	<g id="el_nGJFMkbxi9z_an_yctvR108x" data-animator-group="true" data-animator-type="1"><g id="el_nGJFMkbxi9z">
		<path d="M368.9,165.1c-11.4-1.8-30.8-6.3-41.7-0.3c-6.1-5-20.7,0.9-26.9,3.1c-0.2-0.2-0.4-0.4-0.6-0.5&#10;&#9;&#9;&#9;c-7.7-5.4-25.5,3.4-32.2,6.4c-22.6,10.1-47,26.6-62.3,46.1c-8.6,11-6.8,20.8,9.4,17.9c18.4-3.4,35.8-8.6,54.8-7.1&#10;&#9;&#9;&#9;c-0.4-2.9-0.3-6.2-1.7-8.8c11.6-1.7,23.2-2.5,34.8-3.3c12.6-0.9,26.6,2,38.8-1.2c1.9-0.4,5.3-1.6,6.6-4.7c0.1-0.4,0.3-0.7,0.3-1.1&#10;&#9;&#9;&#9;c7.5-0.9,12.7-3.2,15.9-7.1l2.2-2.7c1.9,0,4-0.5,5.8-1.3c8.6-4.5,16.8-23.4,14.1-29C384.9,169.1,373.8,165.9,368.9,165.1z&#10;&#9;&#9;&#9; M296.6,171.7c-1.4,1.1-3.4,5.4-3.4,5.4c2.1-1.3,30.9-11.7,31-8.1c0.1,6-10.8,9.4-10.3,16.6c-25.4,4.9-67.2,14.3-94.6,27.4&#10;&#9;&#9;&#9;C266.9,170.3,298,170.6,296.6,171.7C295.1,172.8,298,170.6,296.6,171.7z M339.7,212.4c-20.9,5.6-38.6-12.4-38.6-12.4&#10;&#9;&#9;&#9;c-2.2,4.6,10.9,10.9,12.5,14c-27.7-1.6-59.4,4.9-59.4,4.9c8.4,1.9,9,6.3,9,6.3c-11.3-0.8-26.2-2.8-37.5-0.1&#10;&#9;&#9;&#9;c11.7-11.6,31.1-24.2,88-38.2c1.8,8.1,11.2,19.6,19,21.5C335.8,209,347.5,208.8,339.7,212.4z M381,176.8&#10;&#9;&#9;&#9;c-0.7,3.5-2.5,7.2-4.1,10.3c0,0.3-3,4-3,4c-7.8,10.6-25.2,1.9-35.1-2.2c0.1,0.1,0.1,0.1,0.2,0.2c0,0,1.3,1.1,1.2,1.1&#10;&#9;&#9;&#9;c0.1,0,0.2,0,0.3,0.1c0.1,0.1,0.1,0.1,0.2,0.2c0.1,0,0.1,0.1,0.2,0.1l0.1,0.1c0,0,0,0,0.1,0c4.5,3.4,12.8,9.9,18.8,9.9&#10;&#9;&#9;&#9;c-0.1,0.3-0.9,0.6-1.1,0.8c0,0-8.5,4-10.6,4.2c-1.5,0.2-11.9-0.1-14-0.1c0,0-16.1-11.5-17.7-20.1l19.9-4.5l0.6-1.3l-20.3,4.4&#10;&#9;&#9;&#9;c1.6-5.4,9.6-12.4,9.4-12.3c2-1.9,3.8-3.2,6.2-4.4c14-2.5,35,0.1,48.5,4.6C380.8,172,381.8,173.1,381,176.8z" id="el_eGzWb5boYvM"/>
	</g></g>
	<g id="el_bM6rf2yl9NC_an_IIEpy_8mo" data-animator-group="true" data-animator-type="1"><g id="el_bM6rf2yl9NC">
		<path d="M328.7,111.3c-10.9,0.7-32.2,0.4-40.7,8.9c-6.9-3.6-20.1,5.5-25.5,9c-0.2-0.1-0.5-0.3-0.7-0.4&#10;&#9;&#9;&#9;c-2.2-1-4.9-0.2-6.2,0.1c-18.1,5.2-33.9,20.4-46.3,33.7c-11.2,12-26.4,27.7-30.6,44.1c-2.5,9.6,3.7,14.8,13.7,10.2l0.1-0.1&#10;&#9;&#9;&#9;c17-8.5,34.4-17.1,53.4-19.8c-1.1-2.8-1.8-6-3.7-8.3c11.7-4.6,23.8-7.9,35.9-11.6c8-2.4,38.4-3.7,40.1-14.9&#10;&#9;&#9;&#9;c0.1-0.4,0.1-0.8,0.1-1.1c7.1-2.5,11.7-6,14-10.4l1.6-3.2c1.6,0,4.2-1.7,5.4-2.5c7.4-6.3,11.2-26.4,7.4-31.4&#10;&#9;&#9;&#9;C345.2,111.7,333.4,111,328.7,111.3z M259.5,133.5c-1.1,1.4-2.2,6-2.2,6c3.9-3.7,21-17.2,26.9-14.9c3.4,1.3-6.2,14.1-4.9,18.7&#10;&#9;&#9;&#9;c-23.7,10.3-62.4,28.6-86.3,47.5C230.4,138.8,260.7,132.1,259.5,133.5C258.4,134.9,260.7,132.1,259.5,133.5z M310.6,164.1&#10;&#9;&#9;&#9;c-19.2,10.1-40.4-3.7-40.4-3.7c-1,5,12.9,8.1,15.3,10.7c-27.4,4.6-56.9,17.7-56.9,17.7c8.6,0,10.1,4.1,10.1,4.1&#10;&#9;&#9;&#9;c-11.2,1.6-32.2,11.3-42.6,16.4c8.9-14,31-38.8,83.6-65c1.8,3.5,4.8,6.3,7.5,9c5.8,5,11,7.6,18.5,8&#10;&#9;&#9;&#9;C308.9,161.5,316.8,159.9,310.6,164.1z M343.2,119.4c0,4-0.9,8.1-2,11.9c0,0-2,4.6-2,4.6c-5.5,12.1-24,7.3-34.7,5.6&#10;&#9;&#9;&#9;c0.1,0.1,0,0.3,0,0.3c0.1,0.1,2,0.8,2,0.8c0.2,0,0.4,0.1,0.6,0.1c6.9,2.9,13.2,4.4,20.5,5.8c0,0-0.8,0.7-1,1.1c0,0,0,0,0,0.1&#10;&#9;&#9;&#9;c-0.1,0.1-1.3,1.5-1.3,1.5c-0.2,0.2-1.1,0.7-1.3,0.9c0.2-0.1-2,1.3-2,1.3c-0.5,0.4-1.1,0.7-1.7,0.9c0.1,0-2.8,0.9-3.2,1.7&#10;&#9;&#9;&#9;c-0.9-0.5-12.4,2.2-13.8,2.9c0,0-18.2-7.7-21.7-15.7l18.4-8.7l0.3-1.4l-18.9,8.7c0.3-5.4,6.6-14.3,6.4-14.1&#10;&#9;&#9;&#9;c2.4-3.1,3.6-4.8,6.8-6.4c0,0,0.1,0,0.1-0.1c14.3,0,31.9-10.1,46.5-5.3C341.4,116,343.2,119.4,343.2,119.4z" id="el_-W7mMt37F2h"/>
	</g></g>
</g>
</svg>