<svg id="Layer_3" enable-background="new 0 0 64 64" height="512" viewBox="0 0 64 64" width="512" xmlns="http://www.w3.org/2000/svg"><path d="m34 6v2h-32v-2c0-2.21 1.79-4 4-4h24c2.21 0 4 1.79 4 4z" fill="#aab2bd"/><path d="m34 56v2c0 2.21-1.79 4-4 4h-24c-2.21 0-4-1.79-4-4v-4h22l.48-.1c.68 1.25 2 2.1 3.52 2.1z" fill="#aab2bd"/><path d="m60 30h-32c-2.209 0-4-1.791-4-4 0-2.209 1.791-4 4-4h28c2.209 0 4 1.791 4 4z" fill="#8cc152"/><path d="m34.03 12.02c-1.88 2.12-3.03 4.92-3.03 7.98 0 .67.06 1.33.17 1.97l-.17.03h-3c-2.21 0-4 1.79-4 4v26c0 .69.18 1.34.48 1.9l-.48.1h-22v-46h32v4z" fill="#69d6f4"/><path d="m62 48v4c0 2.21-1.79 4-4 4h-24-6c-1.52 0-2.84-.85-3.52-2.1-.3-.56-.48-1.21-.48-1.9v-26c0 1.1.45 2.1 1.17 2.83.73.72 1.73 1.17 2.83 1.17h8.37 6.63 6.63 8.37c2.21 0 4 1.79 4 4v4h-13c-1.38 0-2.63.56-3.54 1.46-.9.91-1.46 2.16-1.46 3.54 0 2.76 2.24 5 5 5z" fill="#b4dd7f"/><path d="m62 38v10h-13c-2.76 0-5-2.24-5-5 0-1.38.56-2.63 1.46-3.54.91-.9 2.16-1.46 3.54-1.46z" fill="#8cc152"/><path d="m43 30h-6.63c-2.71-1.8-4.65-4.68-5.2-8.03-.11-.64-.17-1.3-.17-1.97 0-3.06 1.15-5.86 3.03-7.98 2.2-2.47 5.4-4.02 8.97-4.02 6.63 0 12 5.37 12 12 0 4.18-2.14 7.85-5.37 10z" fill="#fcd770"/><path d="m15 57h6v2h-6z"/><path d="m60.969 30h.031v-4c0-2.757-2.243-5-5-5h-.062c.026-.333.062-.663.062-1 0-7.168-5.832-13-13-13-3.018 0-5.791 1.043-8 2.774v-3.774c0-2.757-2.243-5-5-5h-24c-2.757 0-5 2.243-5 5v52c0 2.757 2.243 5 5 5h24c2.757 0 5-2.243 5-5v-1h23c2.757 0 5-2.243 5-5v-18c0-1.641-.806-3.088-2.031-4zm-4.969-7c1.654 0 3 1.346 3 3v3.101c-.323-.066-.658-.101-1-.101h-5.647c1.615-1.676 2.751-3.741 3.286-6zm-13-14c6.065 0 11 4.935 11 11 0 3.599-1.76 6.936-4.705 9h-5.295v-2.142c1.72-.447 3-2 3-3.858 0-2.206-1.794-4-4-4-1.103 0-2-.897-2-2s.897-2 2-2 2 .897 2 2h2c0-1.858-1.28-3.411-3-3.858v-2.142h-2v2.142c-1.72.447-3 2-3 3.858 0 2.206 1.794 4 4 4 1.103 0 2 .897 2 2s-.897 2-2 2-2-.897-2-2h-2c0 1.858 1.28 3.411 3 3.858v2.142h-5.295c-2.945-2.064-4.705-5.401-4.705-9 0-6.065 4.935-11 11-11zm-19.899 44h-20.101v-44h30v2.705c-1.872 2.253-3 5.144-3 8.295 0 .337.036.667.062 1h-2.062c-2.757 0-5 2.243-5 5v26c0 .342.035.677.101 1zm4.899-30h2.361c.163.687.385 1.353.655 2h-3.016v2h4v-.116c.474.757 1.021 1.467 1.647 2.116h-5.647c-1.654 0-3-1.346-3-3s1.346-3 3-3zm-22-20h24c1.654 0 3 1.346 3 3v1h-30v-1c0-1.654 1.346-3 3-3zm27 55c0 1.654-1.346 3-3 3h-24c-1.654 0-3-1.346-3-3v-3h21v-.031c.912 1.225 2.359 2.031 4 2.031h5zm25-3h-30c-1.654 0-3-1.346-3-3v-22.002c.836.628 1.875 1.002 3 1.002h30c1.654 0 3 1.346 3 3v3h-12c-3.309 0-6 2.691-6 6s2.691 6 6 6h12v3c0 1.654-1.346 3-3 3zm3-16v8h-12c-2.206 0-4-1.794-4-4s1.794-4 4-4z"/><path d="m47 42h2v2h-2z"/><path d="m50 19h2v2h-2z"/><path d="m34 19h2v2h-2z"/><path d="m59 11h2v2h-2z"/><path d="m59 15h2v2h-2z"/><path d="m61 13h2v2h-2z"/><path d="m57 13h2v2h-2z"/><path d="m25 13h2v2h-2z"/><path d="m25 17h2v2h-2z"/><path d="m27 15h2v2h-2z"/><path d="m23 15h2v2h-2z"/><path d="m51 1h2v2h-2z"/><path d="m51 5h2v2h-2z"/><path d="m53 3h2v2h-2z"/><path d="m49 3h2v2h-2z"/></svg>