<?xml version="1.0"?>
<svg xmlns="http://www.w3.org/2000/svg" viewBox="-4 0 511 512" width="512px" height="512px"><g><script xmlns="" id="tinyhippos-injected" class="active-path" style=""/><path d="m252.691406 0c12.023438 0 20.320313 9.480469 28.539063 18.871094 4.867187 5.5625 9.691406 11.074218 12.644531 11.609375 3.023438.550781 9.515625-3.054688 15.96875-6.640625 10.675781-5.933594 21.292969-11.828125 32.164062-7.78125 10.992188 4.09375 15.109376 15.617187 19.210938 27.101562 2.429688 6.796875 4.847656 13.570313 7.160156 14.925782 2.316406 1.355468 9.4375.109374 16.546875-1.132813 11.9375-2.089844 23.859375-4.175781 32.710938 3.289063 8.804687 7.429687 8.75 19.558593 8.695312 31.6875-.03125 7.160156-.066406 14.320312 1.664063 16.371093 1.730468 2.054688 8.785156 3.242188 15.84375 4.429688 11.980468 2.019531 23.980468 4.039062 29.851562 14.058593 5.855469 9.996094 1.816406 21.398438-2.238281 32.839844-2.433594 6.863282-4.875 13.75-3.890625 16.394532.984375 2.636718 7.230469 6.269531 13.507812 9.921874 10.640626 6.1875 21.34375 12.410157 23.464844 24.09375 2.085938 11.484376-5.503906 21.035157-13.160156 30.675782-4.695312 5.914062-9.433594 11.878906-9.433594 15.285156 0 3.410156 4.738282 9.375 9.433594 15.289062 7.65625 9.636719 15.246094 19.1875 13.160156 30.671876-2.121094 11.683593-12.824218 17.910156-23.464844 24.097656-6.277343 3.648437-12.523437 7.28125-13.507812 9.921875-.984375 2.644531 1.457031 9.53125 3.890625 16.394531 4.054687 11.441406 8.09375 22.84375 2.238281 32.835938-5.871094 10.023437-17.871094 12.042968-29.851562 14.058593-7.058594 1.191407-14.113282 2.378907-15.84375 4.429688-1.730469 2.054687-1.695313 9.214843-1.664063 16.375.054688 12.128906.109375 24.257812-8.695312 31.6875-8.851563 7.464843-20.773438 5.378906-32.710938 3.289062-7.109375-1.242187-14.230469-2.488281-16.546875-1.132812-2.3125 1.355469-4.730468 8.128906-7.160156 14.925781-4.101562 11.484375-8.21875 23.007812-19.210938 27.101562-10.871093 4.046876-21.488281-1.851562-32.164062-7.78125-6.453125-3.585937-12.941406-7.191406-15.96875-6.640624-2.953125.535156-7.777344 6.046874-12.644531 11.605468-8.21875 9.390625-16.515625 18.871094-28.539063 18.871094-12.019531 0-20.316406-9.480469-28.539062-18.871094-4.863282-5.5625-9.6875-11.074218-12.644532-11.609375-3.023437-.550781-9.511718 3.054688-15.96875 6.640625-10.675781 5.933594-21.289062 11.828125-32.160156 7.78125-10.996094-4.09375-15.109375-15.617187-19.214844-27.101562-2.425781-6.792969-4.847656-13.570313-7.160156-14.925782-2.3125-1.355468-9.433594-.109374-16.546875 1.136719-11.9375 2.085938-23.859375 4.171875-32.710937-3.292969-8.804688-7.429687-8.75-19.558593-8.695313-31.6875.035157-7.160156.066407-14.320312-1.664062-16.371093-1.730469-2.054688-8.78125-3.242188-15.84375-4.429688-11.980469-2.015625-23.980469-4.039062-29.851563-14.058593-5.851562-9.996094-1.8125-21.398438 2.242188-32.839844 2.433594-6.863282 4.871094-13.75 3.886718-16.394532-.980468-2.636718-7.226562-6.269531-13.507812-9.921874-10.636719-6.1875-21.34375-12.410157-23.460938-24.09375-2.085937-11.484376 5.5-21.039063 13.15625-30.675782 4.699219-5.914062 9.4375-11.878906 9.4375-15.289062 0-3.40625-4.738281-9.371094-9.4375-15.285156-7.65625-9.640626-15.242187-19.1875-13.15625-30.675782 2.117188-11.683594 12.824219-17.90625 23.460938-24.09375 6.28125-3.652344 12.527344-7.285156 13.507812-9.921875.984376-2.644531-1.453124-9.53125-3.886718-16.394531-4.054688-11.441406-8.097656-22.84375-2.242188-32.835938 5.871094-10.023437 17.871094-12.042968 29.851563-14.058593 7.0625-1.191407 14.113281-2.378907 15.84375-4.429688 1.730469-2.054687 1.699219-9.214843 1.664062-16.375-.054687-12.128906-.109375-24.261719 8.695313-31.683593 8.851562-7.464844 20.773437-5.382813 32.710937-3.292969 7.113281 1.242187 14.234375 2.488281 16.546875 1.132812 2.3125-1.351562 4.734375-8.128906 7.160156-14.925781 4.101563-11.480469 8.222657-23.007812 19.214844-27.101562 10.871094-4.046876 21.484375 1.851562 32.160156 7.78125 6.457032 3.585937 12.945313 7.191406 15.96875 6.640624 2.957032-.535156 7.78125-6.046874 12.644532-11.605468 8.222656-9.390625 16.519531-18.871094 28.539062-18.871094zm123.921875 129.175781c-5.523437 0-10 4.476563-10 10 0 2.460938.890625 4.714844 2.367188 6.457031v.003907l-.003907-.003907.03125.035157c.203126.238281.417969.464843.640626.679687 26.894531 28.671875 43.363281 67.238282 43.363281 109.652344 0 44.273438-17.941407 84.351562-46.953125 113.363281-29.011719 29.015625-69.09375 46.957031-113.367188 46.957031-18.953125 0-37.136718-3.289062-54.011718-9.328124-.300782-.125-.613282-.234376-.929688-.332032l-.023438-.011718v.003906c-.917968-.277344-1.894531-.429688-2.902343-.429688-5.519531 0-10 4.476563-10 10 0 4.53125 3.015625 8.355469 7.144531 9.585938 18.972656 6.785156 39.417969 10.484375 60.722656 10.484375 49.785156 0 94.859375-20.183594 127.484375-52.808594 32.628907-32.628906 52.808594-77.699219 52.808594-127.484375 0-47.640625-18.480469-90.960938-48.65625-123.191406-1.835937-2.21875-4.609375-3.632813-7.714844-3.632813zm-30.179687-25.382812c-5.519532 0-10 4.476562-10 10 0 5.519531 4.480468 10 10 10 5.523437 0 10-4.480469 10-10 0-5.523438-4.476563-10-10-10zm-32.457032-17.398438c-19.132812-6.914062-39.765624-10.6875-61.285156-10.6875-49.785156 0-94.855468 20.179688-127.484375 52.808594-32.625 32.625-52.808593 77.699219-52.808593 127.484375 0 47.539062 18.402343 90.777344 48.464843 122.988281 1.835938 2.195313 4.59375 3.59375 7.679688 3.59375 5.523437 0 10-4.476562 10-10 0-2.453125-.882813-4.699219-2.351563-6.4375v-.007812l-.039062-.042969c-.195313-.230469-.402344-.449219-.617188-.65625-26.773437-28.652344-43.164062-67.128906-43.164062-109.4375 0-44.273438 17.945312-84.355469 46.957031-113.363281 29.011719-29.015625 69.09375-46.957031 113.363281-46.957031 19.132813 0 37.480469 3.351562 54.492188 9.5h.003906c1.203125.511718 2.523438.792968 3.914062.792968 5.523438 0 10-4.476562 10-10 0-4.523437-3.003906-8.34375-7.125-9.578125zm-155.027343 301.8125c-5.519531 0-10 4.476563-10 10 0 5.523438 4.480469 10 10 10 5.523437 0 10-4.476562 10-10 0-5.523437-4.476563-10-10-10zm35.523437-230.488281c-11.464844 0-21.84375 4.644531-29.359375 12.160156-7.511719 7.515625-12.160156 17.894532-12.160156 29.359375 0 11.460938 4.648437 21.84375 12.160156 29.355469 7.515625 7.515625 17.894531 12.164062 29.359375 12.164062s21.84375-4.648437 29.359375-12.164062c7.511719-7.511719 12.160157-17.894531 12.160157-29.355469 0-11.464843-4.648438-21.84375-12.160157-29.359375-7.515625-7.515625-17.894531-12.160156-29.359375-12.160156zm15.238282 26.28125c-3.898438-3.898438-9.285157-6.3125-15.238282-6.3125-5.949218 0-11.339844 2.414062-15.238281 6.3125s-6.308594 9.285156-6.308594 15.238281c0 5.949219 2.410157 11.339844 6.308594 15.238281 3.898437 3.894532 9.289063 6.308594 15.238281 6.308594 5.953125 0 11.339844-2.410156 15.238282-6.308594 3.898437-3.898437 6.308593-9.289062 6.308593-15.238281 0-5.953125-2.410156-11.339843-6.308593-15.238281zm92.894531-21.757812-116.441407 176.59375c-3.015624 4.589843-1.742187 10.753906 2.847657 13.769531 4.589843 3.015625 10.753906 1.742187 13.769531-2.847657l116.441406-176.59375c3.015625-4.589843 1.742188-10.753906-2.847656-13.769531s-10.753906-1.742187-13.769531 2.847657zm8.308593 109c-11.464843 0-21.847656 4.648437-29.359374 12.160156-7.511719 7.515625-12.160157 17.898437-12.160157 29.359375 0 11.464843 4.648438 21.84375 12.160157 29.359375 7.515624 7.511718 17.894531 12.160156 29.359374 12.160156 11.464844 0 21.84375-4.648438 29.355469-12.160156 7.515625-7.515625 12.164063-17.894532 12.164063-29.359375 0-11.464844-4.648438-21.84375-12.164063-29.359375-7.511719-7.511719-17.890625-12.160156-29.355469-12.160156zm15.234376 26.28125c-3.894532-3.894532-9.285157-6.308594-15.234376-6.308594-5.953124 0-11.339843 2.410156-15.238281 6.308594-3.898437 3.898437-6.3125 9.289062-6.3125 15.238281 0 5.953125 2.414063 11.339843 6.3125 15.238281 3.898438 3.898438 9.285157 6.308594 15.238281 6.308594 5.949219 0 11.339844-2.410156 15.234376-6.308594 3.902343-3.898438 6.3125-9.285156 6.3125-15.238281 0-5.949219-2.410157-11.335938-6.3125-15.238281zm-59.894532-265.542969c-5.230468-5.976563-10.507812-12.007813-13.558594-12.007813-3.054687 0-8.332031 6.03125-13.5625 12.007813-7.160156 8.179687-14.261718 16.292969-24.113281 18.082031-10 1.816406-19.601562-3.519531-29.152343-8.828125-6.65625-3.699219-13.277344-7.375-15.542969-6.53125-2.234375.832031-4.800781 8.011719-7.355469 15.164063-3.636719 10.175781-7.257812 20.320312-15.898438 25.378906-8.699218 5.097656-19.378906 3.230468-30.042968 1.363281-7.363282-1.285156-14.722656-2.574219-16.402344-1.152344-1.742188 1.46875-1.710938 8.933594-1.675781 16.394531.050781 10.839844.097656 21.679688-6.347657 29.324219-6.425781 7.621094-17.097656 9.417969-27.78125 11.214844-7.394531 1.246094-14.808593 2.492187-15.960937 4.464844-1.148437 1.957031 1.359375 9.039062 3.878906 16.140625 3.625 10.230468 7.261719 20.492187 3.730469 29.96875-3.484375 9.355468-12.800781 14.773437-22.167969 20.222656-6.679687 3.882812-13.402343 7.792969-13.867187 10.363281-.472656 2.605469 4.332031 8.652344 9.179687 14.757813 6.875 8.652344 13.808594 17.378906 13.808594 27.691406 0 10.316406-6.933594 19.039062-13.808594 27.695312-4.847656 6.101563-9.652343 12.148438-9.179687 14.757813.464844 2.570313 7.1875 6.476563 13.867187 10.363281 9.367188 5.445313 18.683594 10.863282 22.167969 20.21875 3.53125 9.480469-.105469 19.742188-3.730469 29.972656-2.519531 7.101563-5.027343 14.179688-3.878906 16.140626 1.152344 1.96875 8.5625 3.21875 15.960937 4.460937 10.6875 1.800781 21.355469 3.59375 27.78125 11.21875 6.445313 7.640625 6.398438 18.480469 6.347657 29.324219-.035157 7.460937-.066407 14.921875 1.675781 16.394531 1.683594 1.417969 9.039062.132813 16.402344-1.15625 10.664062-1.863281 21.34375-3.734375 30.042968 1.363281 8.640626 5.058594 12.265626 15.203125 15.898438 25.378906 2.554688 7.152344 5.121094 14.335938 7.355469 15.164063 2.265625.84375 8.886719-2.832031 15.542969-6.53125 9.550781-5.304687 19.152343-10.640625 29.152343-8.824219 9.855469 1.785156 16.953125 9.898438 24.113281 18.082032 5.230469 5.976562 10.507813 12.007812 13.5625 12.007812 3.050782 0 8.328126-6.03125 13.558594-12.007812 7.160156-8.183594 14.261719-16.296876 24.109375-18.082032 10-1.816406 19.605469 3.519532 29.15625 8.824219 6.65625 3.699219 13.277344 7.375 15.542969 6.53125 2.234375-.828125 4.800781-8.011719 7.355469-15.164063 3.636719-10.175781 7.257812-20.316406 15.894531-25.378906 8.703125-5.097656 19.378906-3.230468 30.042969-1.363281 7.367187 1.289063 14.722656 2.578125 16.410156 1.15625 1.738281-1.472656 1.707031-8.933594 1.671875-16.394531-.050781-10.839844-.097656-21.683594 6.347656-29.324219 6.425782-7.625 17.09375-9.417969 27.777344-11.21875 7.398438-1.242187 14.8125-2.492187 15.964844-4.460937 1.148437-1.960938-1.359375-9.039063-3.878906-16.140626-3.625-10.230468-7.261719-20.492187-3.730469-29.972656 3.480469-9.355468 12.800781-14.773437 22.164062-20.21875 6.683594-3.886718 13.402344-7.792968 13.871094-10.363281.472656-2.609375-4.332031-8.65625-9.179687-14.757813-6.875-8.65625-13.808594-17.378906-13.808594-27.695312 0-10.3125 6.933594-19.039062 13.808594-27.691406 4.847656-6.105469 9.652343-12.152344 9.179687-14.757813-.46875-2.570312-7.1875-6.480469-13.871094-10.363281-9.363281-5.449219-18.683593-10.867188-22.164062-20.222656-3.53125-9.476563.105469-19.738282 3.730469-29.96875 2.519531-7.101563 5.027343-14.183594 3.878906-16.140625-1.152344-1.972657-8.566406-3.21875-15.964844-4.464844-10.683594-1.796875-21.351562-3.59375-27.777344-11.214844-6.445312-7.644531-6.398437-18.484375-6.347656-29.324219.035156-7.460937.066406-14.925781-1.671875-16.394531-1.6875-1.421875-9.042969-.132812-16.410156 1.152344-10.664063 1.867187-21.339844 3.734375-30.039063-1.363281-8.640625-5.058594-12.265625-15.203125-15.898437-25.378906-2.554688-7.152344-5.121094-14.332032-7.355469-15.164063-2.265625-.84375-8.886719 2.832031-15.542969 6.53125-9.554687 5.308594-19.15625 10.644531-29.15625 8.828125-9.851562-1.789062-16.949219-9.902344-24.109375-18.082031zm0 0" fill-rule="evenodd" data-original="#000000" class="active-path" fill="#2B2B2B"/></g> </svg>
