<?xml version="1.0" encoding="iso-8859-1"?>
<!-- Generator: Adobe Illustrator 18.0.0, SVG Export Plug-In . SVG Version: 6.00 Build 0)  -->
<!DOCTYPE svg PUBLIC "-//W3C//DTD SVG 1.1//EN" "http://www.w3.org/Graphics/SVG/1.1/DTD/svg11.dtd">
<svg version="1.1" id="Capa_1" xmlns="http://www.w3.org/2000/svg" xmlns:xlink="http://www.w3.org/1999/xlink" x="0px" y="0px"
	 viewBox="0 0 60.06 60.06" style="enable-background:new 0 0 60.06 60.06;" xml:space="preserve">
<g>
	<path d="M58.03,41.94V19.304c1.241-1.41,2-3.253,2-5.274v-1.84c0-0.16-0.033-0.312-0.091-0.45
		c-0.002-0.109-0.014-0.218-0.045-0.325l-0.146,0.042c-0.002-0.003-0.003-0.006-0.006-0.008l0.149-0.044
		C58.254,5.391,53.151,0.976,47.03,0.169V0.03l-16,0v0h-0.18h-1.64h-0.18V0.03l-14.001,0C8.099,0.042,1.989,4.719,0.173,11.39
		c-0.032,0.111-0.044,0.225-0.045,0.339C0.066,11.871,0.03,12.026,0.03,12.19v1.84c0,2.021,0.759,3.864,2,5.274V41.94L0,53.103
		l2.309,6.927h19h2.108h13.226h2.108h19l2.309-6.927L58.03,41.94z M54.03,51.03c-0.552,0-1,0.448-1,1h-4c0-0.552-0.448-1-1-1
		s-1,0.448-1,1h-4c0-0.552-0.448-1-1-1s-1,0.448-1,1h-0.165l-1.468-8.074c0.37-0.147,0.633-0.504,0.633-0.926h4c0,0.552,0.448,1,1,1
		s1-0.448,1-1h4c0,0.552,0.448,1,1,1s1-0.448,1-1h4c0,0.277,0.113,0.527,0.294,0.708l0.783,4.308
		c-0.027-0.002-0.05-0.016-0.077-0.016c-0.552,0-1,0.448-1,1c0,0.552,0.448,1,1,1c0.151,0,0.291-0.039,0.42-0.099l0.382,2.099H55.03
		C55.03,51.477,54.582,51.03,54.03,51.03z M36.03,51.03c-0.552,0-1,0.448-1,1h-4c0-0.552-0.448-1-1-1s-1,0.448-1,1h-4
		c0-0.552-0.448-1-1-1s-1,0.448-1,1h-1.802l0.404-2.222c0.236-0.183,0.398-0.456,0.398-0.778c0-0.192-0.069-0.362-0.163-0.514
		l0.997-5.486h3.165c0,0.552,0.448,1,1,1s1-0.448,1-1h4c0,0.552,0.448,1,1,1s1-0.448,1-1h3.165l0.997,5.486
		c-0.094,0.152-0.163,0.322-0.163,0.514c0,0.322,0.162,0.595,0.398,0.778l0.404,2.222H37.03C37.03,51.477,36.582,51.03,36.03,51.03z
		 M18.03,51.03c-0.552,0-1,0.448-1,1h-4c0-0.552-0.448-1-1-1s-1,0.448-1,1h-4c0-0.552-0.448-1-1-1s-1,0.448-1,1H2.228L2.61,49.93
		c0.129,0.06,0.269,0.099,0.42,0.099c0.552,0,1-0.448,1-1c0-0.552-0.448-1-1-1c-0.027,0-0.051,0.013-0.077,0.016l0.783-4.308
		c0.182-0.181,0.294-0.431,0.294-0.708h4c0,0.552,0.448,1,1,1s1-0.448,1-1h4c0,0.552,0.448,1,1,1s1-0.448,1-1h4
		c0,0.422,0.263,0.779,0.633,0.926l-1.468,8.074H19.03C19.03,51.477,18.582,51.03,18.03,51.03z M2.03,13.03h12.802h0.198v1
		c0,3.309-2.691,6-6,6h-1c-0.196,0-0.39-0.011-0.582-0.029l-0.276-0.04c-0.635-0.091-1.237-0.283-1.797-0.558
		c-0.032-0.016-0.065-0.03-0.097-0.047c-0.253-0.13-0.495-0.281-0.727-0.447c-0.046-0.033-0.09-0.067-0.135-0.101
		c-0.229-0.173-0.449-0.36-0.654-0.567c-1.069-1.084-1.732-2.571-1.732-4.21V13.03z M56.001,20.965
		c0.009-0.005,0.019-0.009,0.028-0.014V41.03h-2V21.768c0.007-0.002,0.014-0.005,0.021-0.007
		C54.742,21.58,55.396,21.313,56.001,20.965z M52.03,41.03h-2.556c0.344-0.591,0.556-1.268,0.556-2c0-2.062-1.574-3.744-3.579-3.957
		c0.36-0.6,0.579-1.293,0.579-2.043c0-2.206-1.794-4-4-4s-4,1.794-4,4c0,0.749,0.22,1.443,0.579,2.043
		c-2.006,0.214-3.579,1.895-3.579,3.957c0,0.732,0.212,1.409,0.556,2H23.228h-2.033H21.03v-1.026h4c0.552,0,1-0.447,1-1
		s-0.448-1-1-1h-4h-0.586l7-7l-1.833-1.833c-2.025-2.025-4.717-3.141-7.581-3.141s-5.556,1.115-7.581,3.141l-1.833,1.833l7.001,7
		H15.03h-4c-0.552,0-1,0.447-1,1s0.448,1,1,1h4v1.026h-7v-19h1c3.01,0,5.635-1.673,7-4.136c1.365,2.463,3.99,4.136,7,4.136
		s5.635-1.673,7-4.136c1.365,2.463,3.99,4.136,7,4.136s5.635-1.673,7-4.136c1.365,2.463,3.99,4.136,7,4.136h1V41.03z M38.03,39.03
		c0-1.103,0.897-2,2-2s2,0.897,2,2s-0.897,2-2,2S38.03,40.132,38.03,39.03z M43.03,35.03c-1.103,0-2-0.897-2-2s0.897-2,2-2
		s2,0.897,2,2S44.133,35.03,43.03,35.03z M44.03,39.03c0-1.103,0.897-2,2-2s2,0.897,2,2s-0.897,2-2,2S44.03,40.132,44.03,39.03z
		 M17.03,40.003h0.588l0.413,0.413l0.413-0.413h0.586v1h-2V40.003z M18.03,30.003c-0.552,0-1,0.447-1,1v5.586l-5.586-5.586
		l0.419-0.419c1.647-1.647,3.837-2.555,6.167-2.555s4.52,0.907,6.167,2.555l0.419,0.419l-5.586,5.584v-5.584
		C19.03,30.451,18.582,30.003,18.03,30.003z M43.03,14.03c0,3.309-2.691,6-6,6s-6-2.691-6-6v-1h12V14.03z M31.03,11.03V2.031
		c5.511,0.079,10.259,3.774,11.742,8.999H31.03z M29.03,11.03H17.288c1.483-5.225,6.231-8.92,11.742-8.999V11.03z M29.03,13.03v1
		c0,3.309-2.691,6-6,6s-6-2.691-6-6v-1H29.03z M4.03,20.951c0.009,0.005,0.019,0.009,0.028,0.014c0.605,0.348,1.26,0.616,1.95,0.796
		c0.007,0.002,0.014,0.005,0.021,0.007V41.03h-2V20.951z M58.03,14.03c0,1.64-0.662,3.126-1.732,4.21
		c-0.205,0.208-0.425,0.394-0.654,0.567c-0.045,0.034-0.089,0.068-0.135,0.101c-0.233,0.166-0.475,0.317-0.727,0.447
		c-0.032,0.017-0.065,0.031-0.097,0.047c-0.56,0.276-1.162,0.467-1.797,0.558L52.612,20c-0.192,0.019-0.386,0.029-0.582,0.029h-1
		c-3.309,0-6-2.691-6-6v-1h0.198H58.03V14.03z M45.959,2.07c5.365,0.38,9.964,3.933,11.723,8.96H45.03h-0.203
		c-0.938-3.868-3.391-7.069-6.661-9h6.841L45.959,2.07z M15.054,2.03h6.841c-3.27,1.931-5.723,5.132-6.661,9H15.03H2.378
		C4.242,5.696,9.318,2.041,15.054,2.03z M3.75,58.03l-1.333-4h16.892l1.333,4H3.75z M22.75,58.03l-1.333-4h17.225l-1.333,4H22.75z
		 M39.417,58.03l1.333-4h16.892l-1.333,4H39.417z"/>
	<circle cx="24.03" cy="46.03" r="1"/>
	<circle cx="30.03" cy="46.03" r="1"/>
	<circle cx="18.03" cy="46.03" r="1"/>
	<circle cx="6.03" cy="46.03" r="1"/>
	<circle cx="12.03" cy="46.03" r="1"/>
	<circle cx="54.03" cy="46.03" r="1"/>
	<circle cx="48.03" cy="46.03" r="1"/>
	<circle cx="36.03" cy="46.03" r="1"/>
	<circle cx="42.03" cy="46.03" r="1"/>
	<circle cx="27.03" cy="49.03" r="1"/>
	<circle cx="9.03" cy="49.03" r="1"/>
	<circle cx="15.03" cy="49.03" r="1"/>
	<circle cx="51.03" cy="49.03" r="1"/>
	<circle cx="33.03" cy="49.03" r="1"/>
	<circle cx="45.03" cy="49.03" r="1"/>
</g>
<g>
</g>
<g>
</g>
<g>
</g>
<g>
</g>
<g>
</g>
<g>
</g>
<g>
</g>
<g>
</g>
<g>
</g>
<g>
</g>
<g>
</g>
<g>
</g>
<g>
</g>
<g>
</g>
<g>
</g>
</svg>
