<?xml version="1.0"?>
<svg xmlns="http://www.w3.org/2000/svg" xmlns:xlink="http://www.w3.org/1999/xlink" version="1.1" id="Layer_1" x="0px" y="0px" viewBox="0 0 512 512" style="enable-background:new 0 0 512 512;" xml:space="preserve" width="512px" height="512px" class=""><g><script xmlns="" id="tinyhippos-injected" class="active-path" style=""/><g>
	<g>
		<path d="M45.993,0c-7.248,0-13.125,5.876-13.125,13.125v118.129c0,7.249,5.876,13.125,13.125,13.125    c7.248,0,13.125-5.876,13.125-13.125V13.125C59.119,5.876,53.241,0,45.993,0z" data-original="#000000" class="active-path" fill="#2B2B2B"/>
	</g>
</g><g>
	<g>
		<path d="M75.526,301.993H28.93V269.18h46.595c7.248,0,12.469-5.985,12.469-13.234v-59.064c0-7.249-5.221-13.016-12.469-13.016    H16.461c-7.248,0-13.125,5.876-13.125,13.125s5.878,13.125,13.125,13.125h45.283v32.813H16.461    c-7.248,0-13.782,5.767-13.782,13.016v59.064c0,7.249,6.534,13.234,13.782,13.234h59.064c7.248,0,13.125-5.876,13.125-13.125    S82.773,301.993,75.526,301.993z" data-original="#000000" class="active-path" fill="#2B2B2B"/>
	</g>
</g><g>
	<g>
		<path d="M75.526,367.62H16.461c-7.248,0-13.125,5.876-13.125,13.125c0,7.249,5.878,13.125,13.125,13.125h45.283v32.814H16.461    c-7.248,0-13.125,5.876-13.125,13.125c0,7.249,5.878,13.125,13.125,13.125h45.283v32.813H16.461    c-7.248,0-13.125,5.876-13.125,13.125c0,7.249,5.878,13.125,13.125,13.125h59.064c7.248,0,12.469-5.985,12.469-13.234V380.637    C87.995,373.388,82.773,367.62,75.526,367.62z" data-original="#000000" class="active-path" fill="#2B2B2B"/>
	</g>
</g><g>
	<g>
		<path d="M496.195,28.985H161.497c-7.248,0-13.125,5.876-13.125,13.125c0,7.249,5.876,13.125,13.125,13.125h334.698    c7.248,0,13.125-5.876,13.125-13.125C509.32,34.861,503.443,28.985,496.195,28.985z" data-original="#000000" class="active-path" fill="#2B2B2B"/>
	</g>
</g><g>
	<g>
		<path d="M496.195,88.049H161.497c-7.248,0-13.125,5.876-13.125,13.125c0,7.249,5.878,13.125,13.125,13.125h334.698    c7.248,0,13.125-5.876,13.125-13.125C509.32,93.925,503.443,88.049,496.195,88.049z" data-original="#000000" class="active-path" fill="#2B2B2B"/>
	</g>
</g><g>
	<g>
		<path d="M496.195,212.741H161.497c-7.248,0-13.125,5.876-13.125,13.125c0,7.249,5.878,13.125,13.125,13.125h334.698    c7.248,0,13.125-5.876,13.125-13.125C509.32,218.617,503.443,212.741,496.195,212.741z" data-original="#000000" class="active-path" fill="#2B2B2B"/>
	</g>
</g><g>
	<g>
		<path d="M496.195,271.805H161.497c-7.248,0-13.125,5.876-13.125,13.125s5.878,13.125,13.125,13.125h334.698    c7.248,0,13.125-5.876,13.125-13.125S503.443,271.805,496.195,271.805z" data-original="#000000" class="active-path" fill="#2B2B2B"/>
	</g>
</g><g>
	<g>
		<path d="M496.195,389.934H161.497c-7.248,0-13.125,5.876-13.125,13.125c0,7.249,5.878,13.125,13.125,13.125h334.698    c7.248,0,13.125-5.876,13.125-13.125C509.32,395.81,503.443,389.934,496.195,389.934z" data-original="#000000" class="active-path" fill="#2B2B2B"/>
	</g>
</g><g>
	<g>
		<path d="M496.195,455.561H161.497c-7.248,0-13.125,5.876-13.125,13.125c0,7.249,5.878,13.125,13.125,13.125h334.698    c7.248,0,13.125-5.876,13.125-13.125C509.32,461.437,503.443,455.561,496.195,455.561z" data-original="#000000" class="active-path" fill="#2B2B2B"/>
	</g>
</g></g> </svg>
