<?xml version="1.0"?>
<svg xmlns="http://www.w3.org/2000/svg" height="512px" viewBox="-4 0 488 488" width="512px"><g><script xmlns="" id="tinyhippos-injected" class="active-path" style=""/><path d="m472 440h-40v-153.863281l15.0625 10.398437c1.335938.917969 2.917969 1.410156 4.539062 1.410156 2.8125.011719 5.421876-1.464843 6.863282-3.882812l20.390625-33.917969c2.171875-3.621093 1.15625-8.308593-2.320313-10.703125l-48.421875-33.371094c25.421875-37.109374 51.886719-82.757812 51.886719-112.070312 0-57.4375-46.5625-104-104-104s-104 46.5625-104 104c0 1.449219.105469 2.953125.222656 4.472656l-27.6875-19.066406c-2.730468-1.878906-6.339844-1.878906-9.070312 0l-232 160c-3.4765628 2.398438-4.492188 7.085938-2.320313 10.707031l20.390625 33.917969c1.449219 2.410156 4.054688 3.882812 6.863282 3.878906 1.621093.003906 3.207031-.488281 4.539062-1.414062l15.0625-10.375v153.878906h-40c-4.417969 0-8 3.582031-8 8v32c0 4.417969 3.582031 8 8 8h464c4.417969 0 8-3.582031 8-8v-32c0-4.417969-3.582031-8-8-8zm-10.734375-181.679688-12.128906 20.183594-44.144531-30.398437c4.34375-5.746094 9.046874-12.105469 13.9375-18.953125zm-85.265625-242.320312c48.578125.058594 87.941406 39.421875 88 88 0 33.785156-46.046875 101.023438-76.945312 141.265625 0 .046875-.085938.070313-.117188.117187v.089844c-3.90625 5.085938-7.609375 9.808594-10.898438 13.894532-29.351562-36.421876-88.039062-117.222657-88.039062-155.367188.058594-48.578125 39.421875-87.941406 88-88zm-345.136719 262.503906-12.136719-20.183594 221.273438-152.609374 37.519531 25.839843c5.328125 14.652344 11.953125 28.796875 19.792969 42.273438l-52.800781-36.410157c-2.730469-1.878906-6.339844-1.878906-9.070313 0zm33.136719-3.414062 176-121.371094 78.265625 53.992188c24.335937 36.5625 49.597656 66.976562 51.589844 69.417968 1.519531 1.820313 3.769531 2.875 6.144531 2.875s4.625-1.054687 6.144531-2.875c.847657-1.023437 5.824219-7.023437 13.085938-16.3125l20.769531 14.304688v164.878906h-128v-120c0-4.417969-3.582031-8-8-8h-80c-4.417969 0-8 3.582031-8 8v120h-128zm208 164.910156h-64v-112h64zm192 32h-448v-16h448zm0 0" data-original="#000000" class="active-path" fill="#2B2B2B"/><path d="m312 408h80c4.417969 0 8-3.582031 8-8v-48c0-4.417969-3.582031-8-8-8h-80c-4.417969 0-8 3.582031-8 8v48c0 4.417969 3.582031 8 8 8zm8-48h64v32h-64zm0 0" data-original="#000000" class="active-path" fill="#2B2B2B"/><path d="m168 344h-80c-4.417969 0-8 3.582031-8 8v48c0 4.417969 3.582031 8 8 8h80c4.417969 0 8-3.582031 8-8v-48c0-4.417969-3.582031-8-8-8zm-8 48h-64v-32h64zm0 0" data-original="#000000" class="active-path" fill="#2B2B2B"/><path d="m382.246094 138.632812c3.679687 2.453126 8.648437 1.457032 11.101562-2.222656 2.453125-3.675781 1.457032-8.644531-2.21875-11.097656-9.15625-6.128906-21.101562-6.128906-30.257812 0-3.675782 2.453125-4.671875 7.421875-2.21875 11.097656 2.453125 3.679688 7.421875 4.675782 11.101562 2.222656 3.777344-2.539062 8.714844-2.539062 12.492188 0zm0 0" data-original="#000000" class="active-path" fill="#2B2B2B"/><path d="m408.871094 98.6875c3.675781 2.453125 8.644531 1.460938 11.097656-2.214844 2.453125-3.675781 1.460938-8.644531-2.214844-11.097656-25.269531-16.902344-58.238281-16.902344-83.507812 0-3.675782 2.453125-4.667969 7.421875-2.214844 11.097656 2.453125 3.675782 7.421875 4.667969 11.097656 2.214844 19.894532-13.304688 45.847656-13.304688 65.742188 0zm0 0" data-original="#000000" class="active-path" fill="#2B2B2B"/><path d="m395.558594 118.65625c3.675781 2.453125 8.644531 1.460938 11.097656-2.214844 2.453125-3.675781 1.460938-8.644531-2.214844-11.097656-17.21875-11.5-39.664062-11.5-56.882812 0-3.675782 2.453125-4.667969 7.421875-2.214844 11.097656 2.453125 3.675782 7.421875 4.667969 11.097656 2.214844 11.839844-7.914062 27.277344-7.914062 39.117188 0zm0 0" data-original="#000000" class="active-path" fill="#2B2B2B"/><path d="m448 104c0-39.765625-32.234375-72-72-72s-72 32.234375-72 72 32.234375 72 72 72c39.746094-.042969 71.957031-32.253906 72-72zm-128 0c0-30.929688 25.070312-56 56-56s56 25.070312 56 56-25.070312 56-56 56c-30.914062-.035156-55.964844-25.085938-56-56zm0 0" data-original="#000000" class="active-path" fill="#2B2B2B"/><path d="m240 296c30.929688 0 56-25.070312 56-56s-25.070312-56-56-56-56 25.070312-56 56c.035156 30.914062 25.085938 55.964844 56 56zm-39.199219-48h31.199219v31.199219c-15.699219-3.234375-27.964844-15.5-31.199219-31.199219zm47.199219 31.199219v-31.199219h31.199219c-3.234375 15.699219-15.5 27.964844-31.199219 31.199219zm31.199219-47.199219h-31.199219v-31.199219c15.699219 3.234375 27.964844 15.5 31.199219 31.199219zm-47.199219-31.199219v31.199219h-31.199219c3.234375-15.699219 15.5-27.964844 31.199219-31.199219zm0 0" data-original="#000000" class="active-path" fill="#2B2B2B"/></g> </svg>
