<svg viewBox="-35 1 511 511.999" xmlns="http://www.w3.org/2000/svg"><path d="m271.050781 180c5.519531 0 10-4.480469 10-10s-4.480469-10-10-10c-5.53125 0-10 4.480469-10 10s4.46875 10 10 10zm0 0"/><path d="m171.050781 180c5.519531 0 10-4.480469 10-10s-4.480469-10-10-10c-5.53125 0-10 4.480469-10 10s4.46875 10 10 10zm0 0"/><path d="m194.316406 248.734375c8.394532 3.957031 17.390625 5.964844 26.730469 5.964844 9.136719 0 17.957031-1.925781 26.21875-5.722657 5.019531-2.308593 7.214844-8.246093 4.910156-13.265624-2.308593-5.015626-8.246093-7.214844-13.265625-4.90625-5.621094 2.582031-11.632812 3.894531-17.863281 3.894531-6.371094 0-12.496094-1.363281-18.203125-4.054688-4.996094-2.355469-10.957031-.214843-13.308594 4.78125-2.355468 4.996094-.214844 10.953125 4.78125 13.308594zm0 0"/><path d="m441.589844 405.769531c0-54.988281-62.625-98.113281-116.304688-100.15625l-27.386718-24.605469c33.355468-24.335937 53.601562-63.445312 53.601562-105.007812v-66c0-60.652344-49.503906-110-110.351562-110h-40c-60.765626 0-109.648438 49.171875-109.648438 110v66c0 41.492188 19.976562 80.527344 52.898438 104.820312l-27.59375 24.792969c-53.5625 2.039063-116.304688 45.054688-116.304688 100.15625v96.230469c0 5.523438 4.476562 10 10 10h421.089844c5.523437 0 10-4.476562 10-10zm-242.695313 40.230469h44.246094l10.484375 46h-65.519531zm45.105469-20h-45.738281l-7.671875-23.902344 30.460937-15.230468 31.113281 15.5625zm-22.953125-69.179688-34.75-55.589843c11.285156 3.136719 23.011719 4.765625 34.851563 4.765625 11.726562 0 23.367187-1.597656 34.59375-4.683594zm14.3125 14.84375 48.011719-76.824218 25.894531 23.265625-32.949219 74.042969zm-34.210937-351.664062h40c49.820312 0 90.351562 40.371094 90.351562 90v8.265625l-18.777344-27.039063c-1.699218-2.449218-4.40625-4.011718-7.378906-4.261718-2.976562-.25-5.898438.839844-7.984375 2.972656-20.328125 20.789062-43.863281 30.0625-76.308594 30.0625-32.441406 0-55.980469-9.273438-76.324219-30.0625-2.09375-2.144531-5.042968-3.230469-8.023437-2.96875-2.984375.261719-5.695313 1.847656-7.382813 4.324219l-17.820312 26.113281v-7.40625c0-49.628906 40.214844-90 89.648438-90zm-89.648438 156v-23.113281l27.773438-40.699219c22.25 18.925781 48.542968 27.8125 81.777343 27.8125 33.269531 0 59.582031-8.90625 81.835938-27.871094l28.613281 41.203125v22.667969c0 59.886719-48.949219 110-110.351562 110-61.203126 0-109.648438-49.957031-109.648438-110zm47.21875 118.84375 48.019531 76.820312-40.964843 20.484376-32.949219-74.042969zm-138.21875 110.925781c0-41.195312 50.078125-76.765625 93.839844-80l37.414062 84.066407c1.109375 2.492187 3.191406 4.425781 5.761719 5.347656s5.402344.75 7.847656-.46875l7.125-3.566406 8.113281 25.265624-13.039062 55.585938h-147.0625zm401.089844 86.230469h-147.453125l-12.632813-55.433594 8.699219-25.117187 6.523437 3.265625c2.460938 1.230468 5.300782 1.382812 7.847657.46875 2.570312-.921875 4.652343-2.855469 5.761719-5.347656l37.414062-84.066407c43.761719 3.238281 93.839844 38.804688 93.839844 80zm0 0"/><path d="m351.050781 446h-40c-5.523437 0-10 4.476562-10 10s4.476563 10 10 10h40c5.523438 0 10-4.476562 10-10s-4.476562-10-10-10zm0 0"/><path d="m390.5 446c5.519531 0 10 4.480469 10 10s-4.480469 10-10 10-10-4.480469-10-10 4.480469-10 10-10zm0 0"/></svg>