<?xml version="1.0"?>
<svg xmlns="http://www.w3.org/2000/svg" height="512px" viewBox="-56 0 496 496" width="512px"><g><script xmlns="" id="tinyhippos-injected" class="active-path" style=""/><path d="m192 0c-105.863281 0-192 86.136719-192 192v2.105469c0 41.648437 13.863281 82.855469 39.03125 116.039062l133.753906 176.3125c4.542969 5.976563 11.71875 9.542969 19.214844 9.542969s14.671875-3.566406 19.207031-9.535156l133.753907-176.3125c25.175781-33.183594 39.039062-74.398438 39.039062-116.046875v-2.105469c0-105.863281-86.136719-192-192-192zm176 194.105469c0 38.175781-12.703125 75.949219-35.785156 106.367187l-133.75 176.320313c-3.050782 4.023437-9.871094 4.023437-12.921875 0l-133.757813-176.3125c-23.082031-30.425781-35.785156-68.191407-35.785156-106.375v-2.105469c0-97.046875 78.953125-176 176-176s176 78.953125 176 176zm0 0" data-original="#000000" class="active-path" fill="#2B2B2B"/><path d="m192 48c-79.398438 0-144 64.601562-144 144s64.601562 144 144 144 144-64.601562 144-144-64.601562-144-144-144zm0 272c-70.574219 0-128-57.425781-128-128s57.425781-128 128-128 128 57.425781 128 128-57.425781 128-128 128zm0 0" data-original="#000000" class="active-path" fill="#2B2B2B"/><path d="m75.351562 177.488281 9.296876 13.023438 27.351562-19.535157v101.023438h160v-101.023438l27.351562 19.535157 9.296876-13.023438-116.648438-83.320312zm132.648438 78.511719h-32v-48h32zm48 0h-32v-64h-64v64h-32v-96.457031l64-45.710938 64 45.710938zm0 0" data-original="#000000" class="active-path" fill="#2B2B2B"/><path d="m184 384h16v16h-16zm0 0" data-original="#000000" class="active-path" fill="#2B2B2B"/><path d="m216 384h16v16h-16zm0 0" data-original="#000000" class="active-path" fill="#2B2B2B"/><path d="m152 384h16v16h-16zm0 0" data-original="#000000" class="active-path" fill="#2B2B2B"/></g> </svg>
