<?xml version="1.0"?>
<svg xmlns="http://www.w3.org/2000/svg" xmlns:xlink="http://www.w3.org/1999/xlink" version="1.1" id="Capa_1" x="0px" y="0px" viewBox="0 0 414.221 414.221" style="enable-background:new 0 0 414.221 414.221;" xml:space="preserve" width="512px" height="512px"><g><script xmlns="" id="tinyhippos-injected" class="active-path" style=""/><g>
	<g>
		<path d="M301.829,23.599C272.725,8.186,240.308,0.087,207.375,0C95.283-0.02,4.398,90.832,4.378,202.924    c-0.01,52.909,20.643,103.731,57.556,141.636l-8.48,60.32c-0.74,4.356,2.19,8.487,6.546,9.227    c2.011,0.342,4.076-0.097,5.774-1.227l46.08-30.56c99.058,52.46,221.888,14.684,274.348-84.374S400.887,76.058,301.829,23.599z     M340.41,334.315c-35.113,35.607-83.027,55.662-133.035,55.685c-32.195,0.044-63.856-8.222-91.92-24c-2.475-1.429-5.525-1.429-8,0    l-36.08,23.44l6.96-46.48c0.345-2.506-0.515-5.028-2.32-6.8C2.495,263.659,1.669,145.285,74.17,71.765    S265.045-2.581,338.565,69.92S412.911,260.795,340.41,334.315z" data-original="#000000" class="active-path" fill="#2B2B2B"/>
	</g>
</g><g>
	<g>
		<path d="M253.215,274.8h-6.64V156.56c0-4.418-3.582-8-8-8h-69.04c-4.418,0-8,3.582-8,8v28.8c0,4.418,3.582,8,8,8h6.72v81.44h-6.72    c-4.418,0-8,3.582-8,8v28.8c0,4.418,3.582,8,8,8h83.68c4.418,0,8-3.582,8-8v-28.8C261.215,278.382,257.633,274.8,253.215,274.8z     M177.535,303.6v-12.8h6.72c4.418,0,8-3.582,8-8v-97.44c0-4.418-3.582-8-8-8h-6.72v-12.8h52.96V282.8c0,4.418,3.582,8,8,8h6.64    l0.08,12.8H177.535z" data-original="#000000" class="active-path" fill="#2B2B2B"/>
	</g>
</g><g>
	<g>
		<path d="M207.375,70.4c-18.513,0-33.52,15.007-33.52,33.52c0,18.513,15.007,33.52,33.52,33.52s33.52-15.007,33.52-33.52    C240.895,85.407,225.887,70.4,207.375,70.4z M207.375,121.52c-9.676,0-17.52-7.844-17.52-17.52    c-0.044-9.676,7.764-17.556,17.44-17.6c0.027,0,0.053,0,0.08,0v0.08c9.676,0,17.52,7.844,17.52,17.52    S217.051,121.52,207.375,121.52z" data-original="#000000" class="active-path" fill="#2B2B2B"/>
	</g>
</g></g> </svg>
