<?xml version="1.0"?>
<svg xmlns="http://www.w3.org/2000/svg" xmlns:xlink="http://www.w3.org/1999/xlink" version="1.1" id="Capa_1" x="0px" y="0px" viewBox="0 0 512 512" style="enable-background:new 0 0 512 512;" xml:space="preserve" width="512px" height="512px"><g><script xmlns="" id="tinyhippos-injected" class="active-path" style=""/><g>
	<path d="M332,280.003c-4.418,0-8,3.582-8,8V432H52V80h88c4.418,0,8-3.582,8-8s-3.582-8-8-8H52v-8c0-22.056,17.944-40,40-40h192   c4.418,0,8-3.582,8-8s-3.582-8-8-8H92C61.122,0,36,25.122,36,56v400c0,30.878,25.122,56,56,56h192c30.878,0,56-25.122,56-56   V288.003C340,283.585,336.418,280.003,332,280.003z M284,496H92c-22.056,0-40-17.944-40-40v-8h272v8   C324,478.056,306.056,496,284,496z" data-original="#000000" class="active-path" fill="#CCCCCC"/>
	<path d="M204,464h-32c-4.418,0-8,3.582-8,8s3.582,8,8,8h32c4.418,0,8-3.582,8-8S208.418,464,204,464z" data-original="#000000" class="active-path" fill="#CCCCCC"/>
	<path d="M134.34,34.34C132.85,35.83,132,37.9,132,40c0,2.1,0.85,4.17,2.34,5.66c1.49,1.49,3.55,2.34,5.66,2.34   c2.11,0,4.17-0.85,5.66-2.34c1.49-1.49,2.34-3.55,2.34-5.66c0-2.11-0.85-4.17-2.34-5.66C144.17,32.85,142.11,32,140,32   C137.89,32,135.83,32.85,134.34,34.34z" data-original="#000000" class="active-path" fill="#CCCCCC"/>
	<path d="M212,136h48c4.418,0,8-3.582,8-8s-3.582-8-8-8h-48c-4.418,0-8,3.582-8,8S207.582,136,212,136z" data-original="#000000" class="active-path" fill="#CCCCCC"/>
	<path d="M420,120H292c-4.418,0-8,3.582-8,8s3.582,8,8,8h128c4.418,0,8-3.582,8-8S424.418,120,420,120z" data-original="#000000" class="active-path" fill="#CCCCCC"/>
	<path d="M420,160h-48c-4.418,0-8,3.582-8,8s3.582,8,8,8h48c4.418,0,8-3.582,8-8S424.418,160,420,160z" data-original="#000000" class="active-path" fill="#CCCCCC"/>
	<path d="M212,176h128c4.418,0,8-3.582,8-8s-3.582-8-8-8H212c-4.418,0-8,3.582-8,8S207.582,176,212,176z" data-original="#000000" class="active-path" fill="#CCCCCC"/>
	<path d="M420,80H212c-4.418,0-8,3.582-8,8s3.582,8,8,8h208c4.418,0,8-3.582,8-8S424.418,80,420,80z" data-original="#000000" class="active-path" fill="#CCCCCC"/>
	<path d="M420,200H212c-4.418,0-8,3.582-8,8s3.582,8,8,8h208c4.418,0,8-3.582,8-8S424.418,200,420,200z" data-original="#000000" class="active-path" fill="#CCCCCC"/>
	<path d="M420,32H212c-30.878,0-56,25.122-56,56v120c0,28.163,20.897,51.537,48,55.43v29.256c0,6.495,3.877,12.297,9.877,14.782   c1.992,0.825,4.075,1.226,6.14,1.226c4.155,0,8.229-1.626,11.297-4.694l40-40H420c30.878,0,56-25.122,56-56V88   C476,57.122,450.878,32,420,32z M460,208c0,22.056-17.944,40-40,40H268c-2.122,0-4.157,0.843-5.657,2.343L220,292.68V256   c0-4.418-3.582-8-8-8c-22.056,0-40-17.944-40-40V88c0-22.056,17.944-40,40-40h208c22.056,0,40,17.944,40,40V208z" data-original="#000000" class="active-path" fill="#CCCCCC"/>
</g></g> </svg>
