<svg id="el_bbLGYzzCJ" xmlns="http://www.w3.org/2000/svg" viewBox="0 0 600 300"><style>@-webkit-keyframes el_iVSldYYt400_O0MImrT4b_Animation{0%,46.67%{-webkit-transform:rotate(0deg);transform:rotate(0deg)}63.33%,to{-webkit-transform:rotate(40deg);transform:rotate(40deg)}}@keyframes el_iVSldYYt400_O0MImrT4b_Animation{0%,46.67%{-webkit-transform:rotate(0deg);transform:rotate(0deg)}63.33%,to{-webkit-transform:rotate(40deg);transform:rotate(40deg)}}@-webkit-keyframes el_iVSldYYt400_0qKXebW9J_Animation{0%,24.44%{-webkit-transform:translate(-160px,0);transform:translate(-160px,0)}30%{-webkit-transform:translate(-140px,0);transform:translate(-140px,0)}46.67%{-webkit-transform:translate(-95px,0);transform:translate(-95px,0)}63.33%,to{-webkit-transform:translate(-60px,-5px);transform:translate(-60px,-5px)}}@keyframes el_iVSldYYt400_0qKXebW9J_Animation{0%,24.44%{-webkit-transform:translate(-160px,0);transform:translate(-160px,0)}30%{-webkit-transform:translate(-140px,0);transform:translate(-140px,0)}46.67%{-webkit-transform:translate(-95px,0);transform:translate(-95px,0)}63.33%,to{-webkit-transform:translate(-60px,-5px);transform:translate(-60px,-5px)}}@-webkit-keyframes el_UyLt-79IIld_z1ikMugso_Animation{0%{-webkit-transform:translate(-180px,0);transform:translate(-180px,0)}24.44%{-webkit-transform:translate(-160px,0);transform:translate(-160px,0)}30%{-webkit-transform:translate(-140px,0);transform:translate(-140px,0)}46.67%{-webkit-transform:translate(-85px,0);transform:translate(-85px,0)}63.33%,to{-webkit-transform:translate(-28px,0);transform:translate(-28px,0)}}@keyframes el_UyLt-79IIld_z1ikMugso_Animation{0%{-webkit-transform:translate(-180px,0);transform:translate(-180px,0)}24.44%{-webkit-transform:translate(-160px,0);transform:translate(-160px,0)}30%{-webkit-transform:translate(-140px,0);transform:translate(-140px,0)}46.67%{-webkit-transform:translate(-85px,0);transform:translate(-85px,0)}63.33%,to{-webkit-transform:translate(-28px,0);transform:translate(-28px,0)}}@-webkit-keyframes el_UyLt-79IIld_-M5sZkXrx_Animation{0%,30%{-webkit-transform:rotate(0deg);transform:rotate(0deg)}46.67%{-webkit-transform:rotate(10deg);transform:rotate(10deg)}63.33%,to{-webkit-transform:rotate(34deg);transform:rotate(34deg)}}@keyframes el_UyLt-79IIld_-M5sZkXrx_Animation{0%,30%{-webkit-transform:rotate(0deg);transform:rotate(0deg)}46.67%{-webkit-transform:rotate(10deg);transform:rotate(10deg)}63.33%,to{-webkit-transform:rotate(34deg);transform:rotate(34deg)}}@-webkit-keyframes el_w6IYMUoEWM0_TAw6sIIT4_Animation{0%{-webkit-transform:translate(-180px,0);transform:translate(-180px,0)}24.44%{-webkit-transform:translate(-160px,0);transform:translate(-160px,0)}30%{-webkit-transform:translate(-140px,0);transform:translate(-140px,0)}38.89%{-webkit-transform:translate(-103px,0);transform:translate(-103px,0)}46.67%{-webkit-transform:translate(-70px,0);transform:translate(-70px,0)}63.33%,to{-webkit-transform:translate(0,0);transform:translate(0,0)}}@keyframes el_w6IYMUoEWM0_TAw6sIIT4_Animation{0%{-webkit-transform:translate(-180px,0);transform:translate(-180px,0)}24.44%{-webkit-transform:translate(-160px,0);transform:translate(-160px,0)}30%{-webkit-transform:translate(-140px,0);transform:translate(-140px,0)}38.89%{-webkit-transform:translate(-103px,0);transform:translate(-103px,0)}46.67%{-webkit-transform:translate(-70px,0);transform:translate(-70px,0)}63.33%,to{-webkit-transform:translate(0,0);transform:translate(0,0)}}@-webkit-keyframes el_w6IYMUoEWM0_7epvL7wsMnK_Animation{0%,30%{-webkit-transform:rotate(0deg);transform:rotate(0deg)}46.67%{-webkit-transform:rotate(22deg);transform:rotate(22deg)}63.33%,to{-webkit-transform:rotate(46deg);transform:rotate(46deg)}}@keyframes el_w6IYMUoEWM0_7epvL7wsMnK_Animation{0%,30%{-webkit-transform:rotate(0deg);transform:rotate(0deg)}46.67%{-webkit-transform:rotate(22deg);transform:rotate(22deg)}63.33%,to{-webkit-transform:rotate(46deg);transform:rotate(46deg)}}@-webkit-keyframes el_bxQbe42P-8t_9SBfdrs9u_Animation{0%,30%{-webkit-transform:translate(-140px,0);transform:translate(-140px,0)}46.67%{-webkit-transform:translate(-55px,-5px);transform:translate(-55px,-5px)}54.44%{-webkit-transform:translate(25px,-5px);transform:translate(25px,-5px)}63.33%,to{-webkit-transform:translate(60px,-10px);transform:translate(60px,-10px)}}@keyframes el_bxQbe42P-8t_9SBfdrs9u_Animation{0%,30%{-webkit-transform:translate(-140px,0);transform:translate(-140px,0)}46.67%{-webkit-transform:translate(-55px,-5px);transform:translate(-55px,-5px)}54.44%{-webkit-transform:translate(25px,-5px);transform:translate(25px,-5px)}63.33%,to{-webkit-transform:translate(60px,-10px);transform:translate(60px,-10px)}}@-webkit-keyframes el_bxQbe42P-8t_jiuwPr6iT_Animation{0%,30%,46.67%{-webkit-transform:rotate(15deg);transform:rotate(15deg)}54.44%,63.33%,to{-webkit-transform:rotate(-40deg);transform:rotate(-40deg)}}@keyframes el_bxQbe42P-8t_jiuwPr6iT_Animation{0%,30%,46.67%{-webkit-transform:rotate(15deg);transform:rotate(15deg)}54.44%,63.33%,to{-webkit-transform:rotate(-40deg);transform:rotate(-40deg)}}@-webkit-keyframes el_JvaO6fxl8qX_7WVKDhrhU_Animation{0%,30%{-webkit-transform:translate(-140px,0);transform:translate(-140px,0)}46.67%{-webkit-transform:translate(-46px,-5px);transform:translate(-46px,-5px)}54.44%{-webkit-transform:translate(14px,-5px);transform:translate(14px,-5px)}63.33%,to{-webkit-transform:translate(44px,-5px);transform:translate(44px,-5px)}}@keyframes el_JvaO6fxl8qX_7WVKDhrhU_Animation{0%,30%{-webkit-transform:translate(-140px,0);transform:translate(-140px,0)}46.67%{-webkit-transform:translate(-46px,-5px);transform:translate(-46px,-5px)}54.44%{-webkit-transform:translate(14px,-5px);transform:translate(14px,-5px)}63.33%,to{-webkit-transform:translate(44px,-5px);transform:translate(44px,-5px)}}@-webkit-keyframes el_JvaO6fxl8qX_64Js0xukddd_Animation{0%,30%{-webkit-transform:rotate(3deg);transform:rotate(3deg)}46.67%{-webkit-transform:rotate(15deg);transform:rotate(15deg)}54.44%{-webkit-transform:rotate(-50deg);transform:rotate(-50deg)}63.33%,to{-webkit-transform:rotate(-60deg);transform:rotate(-60deg)}}@keyframes el_JvaO6fxl8qX_64Js0xukddd_Animation{0%,30%{-webkit-transform:rotate(3deg);transform:rotate(3deg)}46.67%{-webkit-transform:rotate(15deg);transform:rotate(15deg)}54.44%{-webkit-transform:rotate(-50deg);transform:rotate(-50deg)}63.33%,to{-webkit-transform:rotate(-60deg);transform:rotate(-60deg)}}@-webkit-keyframes el_J7cJlpcjwAZ_XuFXvS36U_Animation{0%,30%{-webkit-transform:translate(-140px,0);transform:translate(-140px,0)}46.67%{-webkit-transform:translate(-70px,0);transform:translate(-70px,0)}63.33%,to{-webkit-transform:translate(0,0);transform:translate(0,0)}}@keyframes el_J7cJlpcjwAZ_XuFXvS36U_Animation{0%,30%{-webkit-transform:translate(-140px,0);transform:translate(-140px,0)}46.67%{-webkit-transform:translate(-70px,0);transform:translate(-70px,0)}63.33%,to{-webkit-transform:translate(0,0);transform:translate(0,0)}}@-webkit-keyframes el_J7cJlpcjwAZ_f8_A0LO2Ic-_Animation{0%,30%{-webkit-transform:rotate(0deg);transform:rotate(0deg)}46.67%{-webkit-transform:rotate(-30deg);transform:rotate(-30deg)}54.44%{-webkit-transform:rotate(-50deg);transform:rotate(-50deg)}63.33%,to{-webkit-transform:rotate(-40deg);transform:rotate(-40deg)}}@keyframes el_J7cJlpcjwAZ_f8_A0LO2Ic-_Animation{0%,30%{-webkit-transform:rotate(0deg);transform:rotate(0deg)}46.67%{-webkit-transform:rotate(-30deg);transform:rotate(-30deg)}54.44%{-webkit-transform:rotate(-50deg);transform:rotate(-50deg)}63.33%,to{-webkit-transform:rotate(-40deg);transform:rotate(-40deg)}}@-webkit-keyframes el_Z7sOLnBHk___2CCubGwWA_Animation{0%,30%{-webkit-transform:translate(-140px,0);transform:translate(-140px,0)}46.67%{-webkit-transform:translate(-70px,5px);transform:translate(-70px,5px)}63.33%,to{-webkit-transform:translate(0,0);transform:translate(0,0)}}@keyframes el_Z7sOLnBHk___2CCubGwWA_Animation{0%,30%{-webkit-transform:translate(-140px,0);transform:translate(-140px,0)}46.67%{-webkit-transform:translate(-70px,5px);transform:translate(-70px,5px)}63.33%,to{-webkit-transform:translate(0,0);transform:translate(0,0)}}@-webkit-keyframes el_D1G0B6FrZFZ_aHTSyuQwM_Animation{0%{-webkit-transform:translate(-70px,0);transform:translate(-70px,0)}16.67%{-webkit-transform:translate(-52px,-2px);transform:translate(-52px,-2px)}33.33%,to{-webkit-transform:translate(-48px,-5px);transform:translate(-48px,-5px)}}@keyframes el_D1G0B6FrZFZ_aHTSyuQwM_Animation{0%{-webkit-transform:translate(-70px,0);transform:translate(-70px,0)}16.67%{-webkit-transform:translate(-52px,-2px);transform:translate(-52px,-2px)}33.33%,to{-webkit-transform:translate(-48px,-5px);transform:translate(-48px,-5px)}}@-webkit-keyframes el_D1G0B6FrZFZ_H0084itXm_Animation{0%,16.67%{-webkit-transform:rotate(0deg);transform:rotate(0deg)}33.33%,to{-webkit-transform:rotate(40deg);transform:rotate(40deg)}}@keyframes el_D1G0B6FrZFZ_H0084itXm_Animation{0%,16.67%{-webkit-transform:rotate(0deg);transform:rotate(0deg)}33.33%,to{-webkit-transform:rotate(40deg);transform:rotate(40deg)}}@-webkit-keyframes el_-g-g8gHyRQ0_e6XsQG8Gc_Animation{0%{-webkit-transform:translate(-70px,0);transform:translate(-70px,0)}16.67%{-webkit-transform:translate(-25px,-5px);transform:translate(-25px,-5px)}21.11%{-webkit-transform:translate(12px,0);transform:translate(12px,0)}25.56%{-webkit-transform:translate(40px,0);transform:translate(40px,0)}33.33%,to{-webkit-transform:translate(60px,0);transform:translate(60px,0)}}@keyframes el_-g-g8gHyRQ0_e6XsQG8Gc_Animation{0%{-webkit-transform:translate(-70px,0);transform:translate(-70px,0)}16.67%{-webkit-transform:translate(-25px,-5px);transform:translate(-25px,-5px)}21.11%{-webkit-transform:translate(12px,0);transform:translate(12px,0)}25.56%{-webkit-transform:translate(40px,0);transform:translate(40px,0)}33.33%,to{-webkit-transform:translate(60px,0);transform:translate(60px,0)}}@-webkit-keyframes el_-g-g8gHyRQ0_P-FYzii42Q5_Animation{0%,16.67%{-webkit-transform:rotate(15deg);transform:rotate(15deg)}25.56%{-webkit-transform:rotate(-30deg);transform:rotate(-30deg)}33.33%,to{-webkit-transform:rotate(-50deg);transform:rotate(-50deg)}}@keyframes el_-g-g8gHyRQ0_P-FYzii42Q5_Animation{0%,16.67%{-webkit-transform:rotate(15deg);transform:rotate(15deg)}25.56%{-webkit-transform:rotate(-30deg);transform:rotate(-30deg)}33.33%,to{-webkit-transform:rotate(-50deg);transform:rotate(-50deg)}}@-webkit-keyframes el_0Fyvb7C3MMA_farHQ8uAW_Animation{0%{-webkit-transform:translate(-70px,0);transform:translate(-70px,0)}16.67%{-webkit-transform:translate(-50px,0);transform:translate(-50px,0)}33.33%,to{-webkit-transform:translate(-35px,0);transform:translate(-35px,0)}}@keyframes el_0Fyvb7C3MMA_farHQ8uAW_Animation{0%{-webkit-transform:translate(-70px,0);transform:translate(-70px,0)}16.67%{-webkit-transform:translate(-50px,0);transform:translate(-50px,0)}33.33%,to{-webkit-transform:translate(-35px,0);transform:translate(-35px,0)}}@-webkit-keyframes el_0Fyvb7C3MMA_-v6md7IwhI8_Animation{0%{-webkit-transform:rotate(0deg);transform:rotate(0deg)}16.67%{-webkit-transform:rotate(10deg);transform:rotate(10deg)}33.33%,to{-webkit-transform:rotate(34deg);transform:rotate(34deg)}}@keyframes el_0Fyvb7C3MMA_-v6md7IwhI8_Animation{0%{-webkit-transform:rotate(0deg);transform:rotate(0deg)}16.67%{-webkit-transform:rotate(10deg);transform:rotate(10deg)}33.33%,to{-webkit-transform:rotate(34deg);transform:rotate(34deg)}}@-webkit-keyframes el_YKGIbhGvTm-_wcTlVtaPX_Animation{0%{-webkit-transform:translate(-70px,0);transform:translate(-70px,0)}16.67%{-webkit-transform:translate(-35px,0);transform:translate(-35px,0)}33.33%,to{-webkit-transform:translate(0,0);transform:translate(0,0)}}@keyframes el_YKGIbhGvTm-_wcTlVtaPX_Animation{0%{-webkit-transform:translate(-70px,0);transform:translate(-70px,0)}16.67%{-webkit-transform:translate(-35px,0);transform:translate(-35px,0)}33.33%,to{-webkit-transform:translate(0,0);transform:translate(0,0)}}@-webkit-keyframes el_YKGIbhGvTm-_NkaEfs3f8_Animation{0%{-webkit-transform:rotate(0deg);transform:rotate(0deg)}16.67%{-webkit-transform:rotate(22deg);transform:rotate(22deg)}33.33%,to{-webkit-transform:rotate(46deg);transform:rotate(46deg)}}@keyframes el_YKGIbhGvTm-_NkaEfs3f8_Animation{0%{-webkit-transform:rotate(0deg);transform:rotate(0deg)}16.67%{-webkit-transform:rotate(22deg);transform:rotate(22deg)}33.33%,to{-webkit-transform:rotate(46deg);transform:rotate(46deg)}}@-webkit-keyframes el_T7u1zwYbST5_74GmgDNdj_Animation{0%{-webkit-transform:translate(-50px,0);transform:translate(-50px,0)}16.67%{-webkit-transform:translate(-20px,0);transform:translate(-20px,0)}25.56%{-webkit-transform:translate(25px,0);transform:translate(25px,0)}33.33%,to{-webkit-transform:translate(39px,0);transform:translate(39px,0)}}@keyframes el_T7u1zwYbST5_74GmgDNdj_Animation{0%{-webkit-transform:translate(-50px,0);transform:translate(-50px,0)}16.67%{-webkit-transform:translate(-20px,0);transform:translate(-20px,0)}25.56%{-webkit-transform:translate(25px,0);transform:translate(25px,0)}33.33%,to{-webkit-transform:translate(39px,0);transform:translate(39px,0)}}@-webkit-keyframes el_T7u1zwYbST5_J-V4pch-I-Y_Animation{0%{-webkit-transform:rotate(3deg);transform:rotate(3deg)}16.67%{-webkit-transform:rotate(15deg);transform:rotate(15deg)}25.56%{-webkit-transform:rotate(-50deg);transform:rotate(-50deg)}33.33%,to{-webkit-transform:rotate(-60deg);transform:rotate(-60deg)}}@keyframes el_T7u1zwYbST5_J-V4pch-I-Y_Animation{0%{-webkit-transform:rotate(3deg);transform:rotate(3deg)}16.67%{-webkit-transform:rotate(15deg);transform:rotate(15deg)}25.56%{-webkit-transform:rotate(-50deg);transform:rotate(-50deg)}33.33%,to{-webkit-transform:rotate(-60deg);transform:rotate(-60deg)}}@-webkit-keyframes el_nl-kATqQuI-_C1XCDkiJv_Animation{0%{-webkit-transform:translate(-70px,0);transform:translate(-70px,0)}16.67%{-webkit-transform:translate(-35px,0);transform:translate(-35px,0)}33.33%,to{-webkit-transform:translate(0,0);transform:translate(0,0)}}@keyframes el_nl-kATqQuI-_C1XCDkiJv_Animation{0%{-webkit-transform:translate(-70px,0);transform:translate(-70px,0)}16.67%{-webkit-transform:translate(-35px,0);transform:translate(-35px,0)}33.33%,to{-webkit-transform:translate(0,0);transform:translate(0,0)}}@-webkit-keyframes el_nl-kATqQuI-_bOYxyZ9Ko_Animation{0%,16.67%{-webkit-transform:rotate(-30deg);transform:rotate(-30deg)}25.56%{-webkit-transform:rotate(-50deg);transform:rotate(-50deg)}33.33%,to{-webkit-transform:rotate(-40deg);transform:rotate(-40deg)}}@keyframes el_nl-kATqQuI-_bOYxyZ9Ko_Animation{0%,16.67%{-webkit-transform:rotate(-30deg);transform:rotate(-30deg)}25.56%{-webkit-transform:rotate(-50deg);transform:rotate(-50deg)}33.33%,to{-webkit-transform:rotate(-40deg);transform:rotate(-40deg)}}@-webkit-keyframes el_k9ms0FKvn9B_edOh9palB_Animation{0%{-webkit-transform:translate(-70px,0);transform:translate(-70px,0)}16.67%{-webkit-transform:translate(-35px,5px);transform:translate(-35px,5px)}33.33%,to{-webkit-transform:translate(0,0);transform:translate(0,0)}}@keyframes el_k9ms0FKvn9B_edOh9palB_Animation{0%{-webkit-transform:translate(-70px,0);transform:translate(-70px,0)}16.67%{-webkit-transform:translate(-35px,5px);transform:translate(-35px,5px)}33.33%,to{-webkit-transform:translate(0,0);transform:translate(0,0)}}#el_bbLGYzzCJ *{-webkit-animation-duration:3s;animation-duration:3s;-webkit-animation-timing-function:cubic-bezier(0,0,1,1);animation-timing-function:cubic-bezier(0,0,1,1)}#el_-g-g8gHyRQ0,#el_0Fyvb7C3MMA,#el_5T7xK9KRHP,#el_759Rgc33qM,#el_AjiU9bHpI1,#el_BKNrAUMniT,#el_CnnYs1YYhd,#el_D1G0B6FrZFZ,#el_FLncq_x-slU,#el_J7cJlpcjwAZ,#el_JvaO6fxl8qX,#el_KjxoZVrkg2,#el_L7r4kUGngh,#el_OoaM-xbDee,#el_T7u1zwYbST5,#el_UyLt-79IIld,#el_V7NLFR3gHx,#el_W5g4hLhfAD,#el_XJ7WeQC4bfr,#el_YKGIbhGvTm-,#el_Z7sOLnBHk__,#el__Jznb6rKCg,#el_bH8GsTxp4E,#el_bxQbe42P-8t,#el_c6qtX5SAtPs,#el_eq-BjHddzz,#el_fun1Uxb8nH,#el_iVSldYYt400,#el_k9ms0FKvn9B,#el_mVxC2d7o4Qw,#el_nl-kATqQuI-,#el_oBvgcyzRPhg,#el_w6IYMUoEWM0{fill:#fff}#el_k9ms0FKvn9B_edOh9palB{-webkit-animation-name:el_k9ms0FKvn9B_edOh9palB_Animation;animation-name:el_k9ms0FKvn9B_edOh9palB_Animation;-webkit-transform-origin:50% 50%;transform-origin:50% 50%;transform-box:fill-box;-webkit-transform:translate(0,0);transform:translate(0,0)}#el_nl-kATqQuI-_C1XCDkiJv,#el_nl-kATqQuI-_bOYxyZ9Ko{-webkit-transform-origin:100% 0%;transform-origin:100% 0%;transform-box:fill-box}#el_nl-kATqQuI-_bOYxyZ9Ko{-webkit-transform:rotate(-40deg);transform:rotate(-40deg);-webkit-animation-name:el_nl-kATqQuI-_bOYxyZ9Ko_Animation;animation-name:el_nl-kATqQuI-_bOYxyZ9Ko_Animation}#el_nl-kATqQuI-_C1XCDkiJv{-webkit-animation-name:el_nl-kATqQuI-_C1XCDkiJv_Animation;animation-name:el_nl-kATqQuI-_C1XCDkiJv_Animation;-webkit-transform:translate(0,0);transform:translate(0,0)}#el_T7u1zwYbST5_74GmgDNdj,#el_T7u1zwYbST5_J-V4pch-I-Y{-webkit-transform-origin:50% 50%;transform-origin:50% 50%;transform-box:fill-box}#el_T7u1zwYbST5_J-V4pch-I-Y{-webkit-transform:rotate(-60deg);transform:rotate(-60deg);-webkit-animation-name:el_T7u1zwYbST5_J-V4pch-I-Y_Animation;animation-name:el_T7u1zwYbST5_J-V4pch-I-Y_Animation}#el_T7u1zwYbST5_74GmgDNdj{-webkit-animation-name:el_T7u1zwYbST5_74GmgDNdj_Animation;animation-name:el_T7u1zwYbST5_74GmgDNdj_Animation;-webkit-transform:translate(39px,0);transform:translate(39px,0)}#el_YKGIbhGvTm-_NkaEfs3f8,#el_YKGIbhGvTm-_wcTlVtaPX{-webkit-transform-origin:0% 0%;transform-origin:0% 0%;transform-box:fill-box}#el_YKGIbhGvTm-_NkaEfs3f8{-webkit-transform:rotate(46deg);transform:rotate(46deg);-webkit-animation-name:el_YKGIbhGvTm-_NkaEfs3f8_Animation;animation-name:el_YKGIbhGvTm-_NkaEfs3f8_Animation}#el_YKGIbhGvTm-_wcTlVtaPX{-webkit-animation-name:el_YKGIbhGvTm-_wcTlVtaPX_Animation;animation-name:el_YKGIbhGvTm-_wcTlVtaPX_Animation;-webkit-transform:translate(0,0);transform:translate(0,0)}#el_0Fyvb7C3MMA_-v6md7IwhI8{-webkit-animation-name:el_0Fyvb7C3MMA_-v6md7IwhI8_Animation;animation-name:el_0Fyvb7C3MMA_-v6md7IwhI8_Animation;-webkit-transform:rotate(34deg);transform:rotate(34deg)}#el_-g-g8gHyRQ0_P-FYzii42Q5,#el_0Fyvb7C3MMA_-v6md7IwhI8,#el_0Fyvb7C3MMA_farHQ8uAW{-webkit-transform-origin:50% 50%;transform-origin:50% 50%;transform-box:fill-box}#el_0Fyvb7C3MMA_farHQ8uAW{-webkit-transform:translate(-35px,0);transform:translate(-35px,0);-webkit-animation-name:el_0Fyvb7C3MMA_farHQ8uAW_Animation;animation-name:el_0Fyvb7C3MMA_farHQ8uAW_Animation}#el_-g-g8gHyRQ0_P-FYzii42Q5{-webkit-animation-name:el_-g-g8gHyRQ0_P-FYzii42Q5_Animation;animation-name:el_-g-g8gHyRQ0_P-FYzii42Q5_Animation;-webkit-transform:rotate(-50deg);transform:rotate(-50deg)}#el_-g-g8gHyRQ0_e6XsQG8Gc{-webkit-animation-name:el_-g-g8gHyRQ0_e6XsQG8Gc_Animation;animation-name:el_-g-g8gHyRQ0_e6XsQG8Gc_Animation;-webkit-transform:translate(60px,0);transform:translate(60px,0)}#el_-g-g8gHyRQ0_e6XsQG8Gc,#el_D1G0B6FrZFZ_H0084itXm,#el_D1G0B6FrZFZ_aHTSyuQwM,#el_Z7sOLnBHk___2CCubGwWA{-webkit-transform-origin:50% 50%;transform-origin:50% 50%;transform-box:fill-box}#el_D1G0B6FrZFZ_H0084itXm{-webkit-transform:rotate(40deg);transform:rotate(40deg);-webkit-animation-name:el_D1G0B6FrZFZ_H0084itXm_Animation;animation-name:el_D1G0B6FrZFZ_H0084itXm_Animation}#el_D1G0B6FrZFZ_aHTSyuQwM{-webkit-animation-name:el_D1G0B6FrZFZ_aHTSyuQwM_Animation;animation-name:el_D1G0B6FrZFZ_aHTSyuQwM_Animation;-webkit-transform:translate(-48px,-5px);transform:translate(-48px,-5px)}#el_Z7sOLnBHk___2CCubGwWA{-webkit-transform:translate(0,0);transform:translate(0,0);-webkit-animation-name:el_Z7sOLnBHk___2CCubGwWA_Animation;animation-name:el_Z7sOLnBHk___2CCubGwWA_Animation}#el_J7cJlpcjwAZ_XuFXvS36U,#el_J7cJlpcjwAZ_f8_A0LO2Ic-{-webkit-transform-origin:100% 0%;transform-origin:100% 0%;transform-box:fill-box}#el_J7cJlpcjwAZ_f8_A0LO2Ic-{-webkit-transform:rotate(-40deg);transform:rotate(-40deg);-webkit-animation-name:el_J7cJlpcjwAZ_f8_A0LO2Ic-_Animation;animation-name:el_J7cJlpcjwAZ_f8_A0LO2Ic-_Animation}#el_J7cJlpcjwAZ_XuFXvS36U{-webkit-animation-name:el_J7cJlpcjwAZ_XuFXvS36U_Animation;animation-name:el_J7cJlpcjwAZ_XuFXvS36U_Animation;-webkit-transform:translate(0,0);transform:translate(0,0)}#el_JvaO6fxl8qX_64Js0xukddd,#el_JvaO6fxl8qX_7WVKDhrhU{-webkit-transform-origin:50% 50%;transform-origin:50% 50%;transform-box:fill-box}#el_JvaO6fxl8qX_64Js0xukddd{-webkit-transform:rotate(-60deg);transform:rotate(-60deg);-webkit-animation-name:el_JvaO6fxl8qX_64Js0xukddd_Animation;animation-name:el_JvaO6fxl8qX_64Js0xukddd_Animation}#el_JvaO6fxl8qX_7WVKDhrhU{-webkit-animation-name:el_JvaO6fxl8qX_7WVKDhrhU_Animation;animation-name:el_JvaO6fxl8qX_7WVKDhrhU_Animation;-webkit-transform:translate(44px,-5px);transform:translate(44px,-5px)}#el_bxQbe42P-8t_9SBfdrs9u,#el_bxQbe42P-8t_jiuwPr6iT{-webkit-transform-origin:100% 0%;transform-origin:100% 0%;transform-box:fill-box}#el_bxQbe42P-8t_jiuwPr6iT{-webkit-transform:rotate(-40deg);transform:rotate(-40deg);-webkit-animation-name:el_bxQbe42P-8t_jiuwPr6iT_Animation;animation-name:el_bxQbe42P-8t_jiuwPr6iT_Animation}#el_bxQbe42P-8t_9SBfdrs9u{-webkit-animation-name:el_bxQbe42P-8t_9SBfdrs9u_Animation;animation-name:el_bxQbe42P-8t_9SBfdrs9u_Animation;-webkit-transform:translate(60px,-10px);transform:translate(60px,-10px)}#el_w6IYMUoEWM0_7epvL7wsMnK,#el_w6IYMUoEWM0_TAw6sIIT4{-webkit-transform-origin:0% 0%;transform-origin:0% 0%;transform-box:fill-box}#el_w6IYMUoEWM0_7epvL7wsMnK{-webkit-transform:rotate(46deg);transform:rotate(46deg);-webkit-animation-name:el_w6IYMUoEWM0_7epvL7wsMnK_Animation;animation-name:el_w6IYMUoEWM0_7epvL7wsMnK_Animation}#el_w6IYMUoEWM0_TAw6sIIT4{-webkit-animation-name:el_w6IYMUoEWM0_TAw6sIIT4_Animation;animation-name:el_w6IYMUoEWM0_TAw6sIIT4_Animation;-webkit-transform:translate(0,0);transform:translate(0,0)}#el_UyLt-79IIld_-M5sZkXrx,#el_UyLt-79IIld_z1ikMugso{-webkit-transform-origin:50% 0%;transform-origin:50% 0%;transform-box:fill-box}#el_UyLt-79IIld_-M5sZkXrx{-webkit-transform:rotate(34deg);transform:rotate(34deg);-webkit-animation-name:el_UyLt-79IIld_-M5sZkXrx_Animation;animation-name:el_UyLt-79IIld_-M5sZkXrx_Animation}#el_UyLt-79IIld_z1ikMugso{-webkit-animation-name:el_UyLt-79IIld_z1ikMugso_Animation;animation-name:el_UyLt-79IIld_z1ikMugso_Animation;-webkit-transform:translate(-28px,0);transform:translate(-28px,0)}#el_iVSldYYt400_0qKXebW9J,#el_iVSldYYt400_O0MImrT4b{-webkit-transform-origin:50% 50%;transform-origin:50% 50%;transform-box:fill-box}#el_iVSldYYt400_0qKXebW9J{-webkit-transform:translate(-60px,-5px);transform:translate(-60px,-5px);-webkit-animation-name:el_iVSldYYt400_0qKXebW9J_Animation;animation-name:el_iVSldYYt400_0qKXebW9J_Animation}#el_iVSldYYt400_O0MImrT4b{-webkit-animation-name:el_iVSldYYt400_O0MImrT4b_Animation;animation-name:el_iVSldYYt400_O0MImrT4b_Animation;-webkit-transform:rotate(40deg);transform:rotate(40deg)}</style><g id="el_LDNa6-m9O1"><path d="M228.019 166.719l4.61-32.477c1.024-7.069 2.458-16.801 4.2-25.306h-.307c-3.587 8.094-7.684 17.007-11.474 24.282l-17.006 32.681h-9.222l-3.585-32.168c-.819-7.684-1.434-16.597-1.845-24.794h-.205c-1.845 7.89-3.893 18.339-5.634 25.306l-7.89 32.477h-11.064l17.519-69.052h15.776l3.688 32.272c.514 6.146 1.229 13.318 1.333 19.875h.409c2.459-6.557 5.737-13.83 8.709-19.771l16.698-32.375h15.983l-9.118 69.052h-11.575z" id="el_L7r4kUGngh"/><path d="M297.583 136.393c0 16.904-11.884 31.452-28.891 31.452-12.602 0-20.388-8.706-20.388-20.593 0-16.903 11.782-31.554 28.79-31.554 13.42 0 20.489 9.63 20.489 20.695zm-36.985 10.552c0 6.864 3.688 11.679 9.733 11.679 8.914 0 14.856-12.292 14.856-22.231 0-5.123-2.254-11.474-9.527-11.474-9.529 0-15.062 12.704-15.062 22.026z" id="el_759Rgc33qM"/><path d="M333.852 164.978c-2.869 1.434-7.991 2.765-14.344 2.765-12.498 0-20.182-7.991-20.182-19.875 0-17.416 13.217-32.169 31.759-32.169 4.406 0 8.298 1.127 10.143 1.947l-3.073 9.322c-1.845-.819-4.202-1.536-7.479-1.536-11.578 0-18.852 10.654-18.852 21.002 0 7.479 4.303 11.679 10.963 11.679 4.609 0 8.093-1.229 10.654-2.357l.411 9.222z" id="el_W5g4hLhfAD"/><path d="M337.336 166.719l13.728-72.74h11.987l-5.841 30.326h.205c4.201-5.226 9.732-8.606 16.7-8.606 6.864 0 12.499 4.303 12.499 13.421 0 2.562-.309 6.045-.82 8.811l-5.533 28.789h-11.884l5.327-27.969c.308-1.947.615-4.099.615-6.557 0-3.791-1.742-6.761-6.249-6.761-5.84 0-12.397 6.966-14.344 17.518l-4.508 23.77h-11.882z" id="el_BKNrAUMniT"/><path id="el_eq-BjHddzz" d="M410.185 116.821l-2.053 10.735-7.476 39.168H388.77l7.392-39.168 2.025-10.735z"/><path d="M428.782 157.183c-.472 9.056-.874 9.527-7.433 9.541h-1.747c-8.364-.014-8.309-8.642-7.712-13.204.013-.056.013-.125.027-.181l.443-2.385.042-.18 10.887-56.795h11.887L423.9 153.326c.125 5.063 4.882 3.857 4.882 3.857z" id="el_bH8GsTxp4E"/><path d="M469.087 163.85c-4.919 2.562-11.579 3.893-17.624 3.893-13.829 0-20.489-8.4-20.489-20.592 0-15.061 11.064-31.452 28.276-31.452 9.837 0 16.086 5.737 16.086 14.036 0 12.806-13.422 16.904-32.684 16.495-.203 1.741.206 5.122 1.333 7.068 1.947 3.382 5.532 5.123 10.245 5.123 5.634 0 10.143-1.435 13.728-3.277l1.129 8.706zm-11.374-39.238c-7.478 0-12.396 6.658-13.83 12.703 12.295.205 20.183-1.536 20.183-7.479-.001-3.278-2.562-5.224-6.353-5.224z" id="el_OoaM-xbDee"/><path d="M474.107 166.719l5.839-30.735c1.333-7.068 1.946-14.651 2.561-19.158h10.348c-.307 3.38-.614 6.864-1.126 10.552h.307c3.382-6.761 8.812-11.679 15.676-11.679.819 0 1.741.103 2.562.205l-2.356 11.679a14.2 14.2 0 0 0-2.255-.205c-8.503 0-13.933 8.606-15.879 19.261l-3.791 20.081h-11.886z" id="el_5T7xK9KRHP"/><path d="M554.836 136.393c0 16.904-11.885 31.452-28.891 31.452-12.602 0-20.389-8.706-20.389-20.593 0-16.903 11.782-31.554 28.79-31.554 13.42 0 20.49 9.63 20.49 20.695zm-36.984 10.552c0 6.864 3.688 11.679 9.732 11.679 8.914 0 14.855-12.292 14.855-22.231 0-5.123-2.254-11.474-9.527-11.474-9.528 0-15.06 12.704-15.06 22.026z" id="el_V7NLFR3gHx"/><path d="M556.272 155.551c2.561 1.435 7.478 3.382 11.985 3.382 4.816-.103 7.684-2.869 7.684-6.147 0-3.176-1.639-5.123-6.556-7.684-5.737-2.972-9.835-7.274-9.835-13.012 0-9.63 8.401-16.391 20.183-16.391 5.225 0 9.527 1.23 11.781 2.562l-3.073 8.606c-1.846-1.026-5.226-2.253-9.323-2.253-4.509 0-7.581 2.458-7.581 5.839 0 2.767 2.254 4.713 6.454 6.864 5.429 2.972 10.347 7.069 10.347 13.421 0 10.963-9.22 17.006-21.207 17.006-5.839 0-11.27-1.639-13.934-3.585l3.075-8.608z" id="el_KjxoZVrkg2"/><path d="M408.054 203.105c-1.747.873-4.867 1.684-8.737 1.684-7.614 0-12.295-4.866-12.295-12.106 0-10.61 8.051-19.597 19.348-19.597 2.684 0 5.055.687 6.178 1.187l-1.872 5.679c-1.122-.5-2.559-.936-4.557-.936-7.052 0-11.482 6.49-11.482 12.793 0 4.556 2.621 7.114 6.678 7.114 2.81 0 4.93-.747 6.491-1.435l.248 5.617z" id="el_AjiU9bHpI1"/><path d="M441.755 185.692c0 10.298-7.24 19.16-17.6 19.16-7.677 0-12.42-5.306-12.42-12.545 0-10.298 7.177-19.222 17.538-19.222 8.176.001 12.482 5.866 12.482 12.607zm-22.529 6.429c0 4.181 2.247 7.115 5.929 7.115 5.43 0 9.05-7.491 9.05-13.544 0-3.12-1.373-6.99-5.805-6.99-5.805 0-9.174 7.739-9.174 13.419z" id="el_CnnYs1YYhd"/><path d="M443.318 204.166l3.868-20.97c.687-3.62 1.187-6.804 1.498-9.424h6.303l-.624 5.305h.063c2.871-4.056 6.617-5.991 10.548-5.991 4.743 0 6.928 2.996 7.179 6.24 2.682-4.18 6.552-6.178 10.733-6.24 4.18 0 7.426 2.683 7.426 8.112 0 1.312-.249 3.558-.498 5.181l-3.37 17.787h-7.053l3.183-16.975c.188-1.249.437-2.623.437-3.871 0-2.558-1.061-4.305-3.744-4.305-3.309 0-6.99 4.181-8.176 10.609l-2.745 14.541h-6.991l3.246-17.226c.25-1.248.374-2.435.374-3.557 0-2.311-.687-4.368-3.62-4.368-3.369 0-7.239 4.555-8.362 10.733l-2.622 14.417h-7.053z" id="el__Jznb6rKCg"/><path d="M506.291 204.166l3.868-20.97c.687-3.62 1.187-6.804 1.499-9.424h6.303l-.624 5.305h.062c2.872-4.056 6.617-5.991 10.549-5.991 4.743 0 6.926 2.996 7.177 6.24 2.683-4.18 6.554-6.178 10.733-6.24 4.182 0 7.427 2.683 7.427 8.112 0 1.312-.249 3.558-.498 5.181l-3.37 17.787h-7.053l3.184-16.975c.187-1.249.436-2.623.436-3.871 0-2.558-1.061-4.305-3.743-4.305-3.31 0-6.991 4.181-8.177 10.609l-2.746 14.541h-6.989l3.244-17.226c.251-1.248.376-2.435.376-3.557 0-2.311-.687-4.368-3.62-4.368-3.37 0-7.24 4.555-8.363 10.733l-2.621 14.417h-7.054z" id="el_fun1Uxb8nH"/><path d="M565.706 173.772l2.372 5.492c.874 2.185 1.436 3.745 1.936 4.992h.187c1.123-1.623 1.935-2.871 3.308-4.743l4.367-5.741h8.364l-12.856 14.79 7.115 15.604h-7.926l-2.435-5.742a70.857 70.857 0 0 1-2.06-5.492h-.187c-.875 1.437-1.749 2.934-3.06 4.931l-4.806 6.304h-8.361l13.229-15.666-7.115-14.728h7.928z" id="el_mVxC2d7o4Qw"/><path d="M412.361 150.954l-.443 2.385c.152-1.151.347-2.025.443-2.385z" id="el_oBvgcyzRPhg"/><path id="el_XJ7WeQC4bfr" d="M414.887 93.979l-2.053 10.735h-11.969l2.025-10.735z"/><path id="el_c6qtX5SAtPs" d="M381.432 195.154l-1.716 8.968h-10l1.692-8.968z"/><path id="el_FLncq_x-slU" d="M503.564 195.197l-1.715 8.969h-9.999l1.692-8.969z"/></g><g id="el_Z7sOLnBHk___2CCubGwWA" data-animator-group="true" data-animator-type="0"><path d="M117.839 156.245c10.028.758 10.856-7.378 6.255-20.608l-.08-14.046 1.962-6.75-.237-11.928s-1.018-3.451-1.645-4.001c-.629-.55-.394-1.1-1.101-1.805s-1.702-1.804-1.557-3.138c.146-1.334 3.102-1.674 4.2-2.093 1.098-.418.81-1.909 1.568-2.355.758-.443 1.491-3.139 1.491-3.139V73.409s-1.046-3.114-3.922-3.872c-2.88-.759-3.403-.863-4.395-.812-.996.053-3.48-.011-3.48-.011l-3.529.98-3.766 3.715v4.027h-2.042s-1.204.525-1.621.785c-.418.262-1.152 1.099-1.152 1.099v5.021l1.729 1.728h5.022l-1.049 2.929s-3.189.943-4.76 1.936h-1.936V84.03l-1.831-1.857h-3.189L81.56 90.726l-1.045 1.307-4.813 26.732v3.192l4.864 9.259v3.975l-1.831 1.99v6.121l3.767 7.532s2.251.208 3.558 2.719l5.598.263 6.979-2.678s1.424 6.055 9.179 6.622c7.752.567 10.023-1.515 10.023-1.515z" id="el_Z7sOLnBHk__"/></g><g id="el_J7cJlpcjwAZ_XuFXvS36U" data-animator-group="true" data-animator-type="0"><g id="el_J7cJlpcjwAZ_f8_A0LO2Ic-" data-animator-group="true" data-animator-type="1"><path d="M102.245 150.652l-4.486 23.742-2.778 3.78-.47 4.955s5.092 7.525 5.698 7.792c.604.27 6.372-1.24 6.372-1.24l2.315-1.335 2.537-4.115.211-1.398 1.943-3.049 1.625-3.38 1.634-2.693 2.535-1.811s1.978-6.716 2.111-7.019c.135-.302 2.449-10.279 2.449-10.279l.543-5.726-4.659-3.794-9.291-2.049-8.289 7.619z" id="el_J7cJlpcjwAZ"/></g></g><g id="el_w6IYMUoEWM0_TAw6sIIT4" data-animator-group="true" data-animator-type="0"><g id="el_w6IYMUoEWM0_7epvL7wsMnK" data-animator-group="true" data-animator-type="1"><path d="M111.427 164.49l12.493 20.68.455 4.67 2.955 4.006s8.814 2.207 9.442 2.002c.631-.203 3.92-5.174 3.92-5.174l.834-2.539-.856-4.758-.774-1.186-.584-3.565-1.048-3.604-.578-3.097-1.809-4.932s-.514-4.43-.617-4.744c-.103-.315-5.033-9.289-5.033-9.289l-5.011-5.259-4.206-1.654-8.488 7.235-1.095 11.208z" id="el_w6IYMUoEWM0"/></g></g><g id="el_UyLt-79IIld_z1ikMugso" data-animator-group="true" data-animator-type="0"><g id="el_UyLt-79IIld_-M5sZkXrx" data-animator-group="true" data-animator-type="1"><path d="M123.354 186.776s4.333 15.355 4.627 16.3c.291.945 3.021 8.987 3.021 8.987l1.091 10.274-.621 1.341 2.697 1.098 13.729-1.61.635-3.918-1.401-7.915-3.31-3.94s-3.78-24.034-4.524-24.334c-.744-.301-1.988-3.241-2.715-3.225-.729.013-3.351-3.004-3.351-3.004l-8.791-.205c.001-.002-1.718 9.41-1.087 10.151z" id="el_UyLt-79IIld"/></g></g><g id="el_JvaO6fxl8qX_7WVKDhrhU" data-animator-group="true" data-animator-type="0"><g id="el_JvaO6fxl8qX_64Js0xukddd" data-animator-group="true" data-animator-type="1"><path d="M93.884 183.107s-9.358 12.924-9.918 13.737c-.56.817-5.176 7.944-5.176 7.944l-7.381 7.229-1.437.345.81 2.798 12.743 4.029 2.262.059 3.583-2.256 1.041-5.042s16.506-17.869 16.281-18.641c-.223-.769 1.312-3.568.849-4.131-.463-.561.274-4.491.274-4.491l-5.289-7.022c-.002-.001-8.453 4.487-8.642 5.442z" id="el_JvaO6fxl8qX"/></g></g><g id="el_iVSldYYt400_0qKXebW9J" data-animator-group="true" data-animator-type="0"><g id="el_iVSldYYt400_O0MImrT4b" data-animator-group="true" data-animator-type="1"><path id="el_iVSldYYt400" d="M135.876 220.573l-2.232 9.412.064 3.029 2.175.923h19.496l1.712-.857.922-.986v-2.967l-.922-.921-4.941-.923-.656-.723-1.78-.922-.658-.726-4.67-7.056"/></g></g><g id="el_bxQbe42P-8t_9SBfdrs9u" data-animator-group="true" data-animator-type="0"><g id="el_bxQbe42P-8t_jiuwPr6iT" data-animator-group="true" data-animator-type="1"><path id="el_bxQbe42P-8t" d="M74.94 212.333l-4.712 3.332-2.022 2.257.959 2.158 14.244 13.312 1.835.545 4.562-.093.91-3.271-1.693-1.937-2.782-.384-.635-2.902-.669-1.887.013-.981 1.404-8.343"/></g></g><g id="el_k9ms0FKvn9B_edOh9palB" data-animator-group="true" data-animator-type="0"><path d="M51.61 140.447c8.217.62 8.897-6.046 5.125-16.889l-.064-11.511 1.607-5.532-.194-9.775s-.834-2.828-1.349-3.279c-.514-.451-.321-.902-.9-1.48-.58-.579-1.396-1.478-1.278-2.571.121-1.094 2.542-1.373 3.443-1.715.898-.344.664-1.565 1.286-1.931.622-.363 1.222-2.572 1.222-2.572v-10.63s-.859-2.552-3.214-3.172c-2.361-.623-2.789-.708-3.603-.666-.815.043-2.852-.009-2.852-.009l-2.893.803-3.087 3.044v3.301h-1.672s-.986.429-1.329.642c-.342.215-.944.901-.944.901v4.115l1.417 1.416h4.115l-.858 2.401s-2.614.773-3.901 1.586H40.1v-5.659l-1.5-1.522h-2.614l-14.106 7.01-.856 1.072-3.944 21.907v2.616l3.986 7.588v3.257l-1.501 1.63v5.016l3.087 6.173s1.845.171 2.916 2.229l4.588.215 5.719-2.196s1.167 4.963 7.521 5.429c6.353.464 8.214-1.242 8.214-1.242z" id="el_k9ms0FKvn9B"/></g><g id="el_nl-kATqQuI-_C1XCDkiJv" data-animator-group="true" data-animator-type="0"><g id="el_nl-kATqQuI-_bOYxyZ9Ko" data-animator-group="true" data-animator-type="1"><path d="M38.831 135.863l-3.676 19.457-2.277 3.099-.386 4.062s4.175 6.166 4.67 6.384c.496.221 5.221-1.016 5.221-1.016l1.898-1.094 2.079-3.372.173-1.146 1.593-2.497 1.333-2.771 1.338-2.208 2.078-1.483s1.621-5.504 1.73-5.751c.111-.248 2.006-8.424 2.006-8.424l.446-4.693-3.818-3.108-7.614-1.68-6.794 6.241z" id="el_nl-kATqQuI-"/></g></g><g id="el_YKGIbhGvTm-_wcTlVtaPX" data-animator-group="true" data-animator-type="0"><g id="el_YKGIbhGvTm-_NkaEfs3f8" data-animator-group="true" data-animator-type="1"><path d="M46.354 147.204l10.238 16.947.374 3.828 2.421 3.281s7.222 1.81 7.738 1.643c.518-.167 3.211-4.242 3.211-4.242l.685-2.08-.702-3.899-.636-.971-.478-2.922-.859-2.953-.474-2.538-1.483-4.042s-.42-3.631-.505-3.888c-.084-.259-4.124-7.612-4.124-7.612l-4.107-4.31-3.447-1.357-6.957 5.93-.895 9.185z" id="el_YKGIbhGvTm-"/></g></g><g id="el_0Fyvb7C3MMA_farHQ8uAW" data-animator-group="true" data-animator-type="0"><g id="el_0Fyvb7C3MMA_-v6md7IwhI8" data-animator-group="true" data-animator-type="1"><path d="M56.129 165.467s3.55 12.583 3.792 13.358c.238.774 2.477 7.364 2.477 7.364l.894 8.421-.508 1.099 2.209.899 11.251-1.32.52-3.209-1.146-6.487-2.713-3.229s-3.098-19.696-3.707-19.943c-.609-.246-1.629-2.655-2.225-2.643-.598.012-2.747-2.46-2.747-2.46l-7.203-.169c-.001-.002-1.412 7.711-.894 8.319z" id="el_0Fyvb7C3MMA"/></g></g><g id="el_T7u1zwYbST5_74GmgDNdj" data-animator-group="true" data-animator-type="0"><g id="el_T7u1zwYbST5_J-V4pch-I-Y" data-animator-group="true" data-animator-type="1"><path d="M31.979 162.46s-7.669 10.592-8.127 11.259c-.46.668-4.243 6.511-4.243 6.511l-6.049 5.923-1.177.282.664 2.292 10.442 3.302 1.853.051 2.937-1.851.852-4.132s13.528-14.645 13.343-15.276c-.183-.629 1.075-2.924.695-3.384-.379-.461.226-3.681.226-3.681L39.059 158c0-.001-6.925 3.677-7.08 4.46z" id="el_T7u1zwYbST5"/></g></g><g id="el_D1G0B6FrZFZ_aHTSyuQwM" data-animator-group="true" data-animator-type="0"><g id="el_D1G0B6FrZFZ_H0084itXm" data-animator-group="true" data-animator-type="1"><path id="el_D1G0B6FrZFZ" d="M66.39 193.164l-1.828 7.713.052 2.481 1.783.756h15.977l1.403-.702.756-.808v-2.429l-.756-.756-4.049-.756-.539-.594-1.458-.756-.539-.594-3.827-5.781"/></g></g><g id="el_-g-g8gHyRQ0_e6XsQG8Gc" data-animator-group="true" data-animator-type="0"><g id="el_-g-g8gHyRQ0_P-FYzii42Q5" data-animator-group="true" data-animator-type="1"><path id="el_-g-g8gHyRQ0" d="M16.454 186.41l-3.862 2.731-1.657 1.849.785 1.77 11.674 10.909 1.503.445 3.74-.074.745-2.682-1.387-1.587-2.28-.315-.521-2.378-.548-1.547.012-.802 1.149-6.838"/></g></g><script>(function(){var a=document.querySelector(&apos;#el_bbLGYzzCJ&apos;),b=a.querySelectorAll(&apos;style&apos;),c=function(d){b.forEach(function(f){var g=f.textContent;g&amp;&amp;(f.textContent=g.replace(/transform-box:[^;\r\n]*/gi,&apos;transform-box: &apos;+d))})};c(&apos;initial&apos;),window.requestAnimationFrame(function(){return c(&apos;fill-box&apos;)})})();</script></svg>