<?xml version="1.0" encoding="iso-8859-1"?>
<!-- Generator: Adobe Illustrator 19.0.0, SVG Export Plug-In . SVG Version: 6.00 Build 0)  -->
<svg version="1.1" id="Capa_1" xmlns="http://www.w3.org/2000/svg" xmlns:xlink="http://www.w3.org/1999/xlink" x="0px" y="0px"
	 viewBox="0 0 480 480" style="enable-background:new 0 0 480 480;" xml:space="preserve">
<g>
	<g>
		<path d="M319.656,298.112c4.033,0.063,7.861,1.785,10.584,4.76l79.904,86.56l11.744-10.864L367.808,320H368V104
			c-0.026-22.08-17.92-39.974-40-40h-32v16h32c13.255,0,24,10.745,24,24v8h-56v16h56v174.872L341.984,292
			c-5.663-6.169-13.611-9.741-21.984-9.88c-2.126-0.092-4.255,0.044-6.352,0.408l6.152-24.592L326.248,232H336v-16h-16
			c-3.672,0.001-6.871,2.501-7.76,6.064L305.76,248H184c-4.418,0.001-7.999,3.584-7.998,8.002c0,0.652,0.08,1.301,0.238,1.934l16,64
			c0.889,3.563,4.088,6.063,7.76,6.064h92.528c1.064,1.928,2.333,3.736,3.784,5.392l6.272,7.056c-1.472,2.2-3.937,3.53-6.584,3.552
			H192v16h104c6.551-0.029,12.805-2.734,17.312-7.488l29.736,33.456c-5.639,20.704-2.873,42.797,7.696,61.472
			c-3.193,9.865-12.375,16.551-22.744,16.56H168c-13.255,0-24-10.745-24-24v-8h184v-16H144V192h-16v248
			c0.026,22.08,17.92,39.974,40,40h160c13.322,0,25.769-6.631,33.2-17.688c2.654,2.939,5.511,5.687,8.552,8.224l9.128,7.616
			l10.24-12.304L380,458.24c-21.008-17.364-29.126-45.889-20.408-71.712c0.906-2.711,0.296-5.7-1.6-7.84l-49.704-55.92
			c-5.201-5.866-4.942-14.766,0.592-20.32C311.784,299.676,315.641,298.124,319.656,298.112z M198.248,280l-4-16h22.688l2,16
			H198.248z M206.248,312l-4-16h18.688l2,16H206.248z M256.936,312h-17.872l-2-16h21.872L256.936,312z M260.936,280h-25.872l-2-16
			h29.872L260.936,280z M288.544,312h-15.48l2-16H293.6C290.465,300.762,288.715,306.301,288.544,312z M297.752,280h-20.688l2-16
			h22.688L297.752,280z"/>
	</g>
</g>
<g>
	<g>
		<circle cx="208" cy="384" r="16"/>
	</g>
</g>
<g>
	<g>
		<circle cx="288" cy="384" r="16"/>
	</g>
</g>
<g>
	<g>
		<path d="M248,0H40C22.327,0,8,14.327,8,32v112c0,17.673,14.327,32,32,32h208c17.673,0,32-14.327,32-32V32
			C280,14.327,265.673,0,248,0z M264,144c0,8.837-7.163,16-16,16H40c-8.837,0-16-7.163-16-16V32c0-8.837,7.163-16,16-16h208
			c8.837,0,16,7.163,16,16V144z"/>
	</g>
</g>
<g>
	<g>
		<rect x="40" y="40" width="144" height="16"/>
	</g>
</g>
<g>
	<g>
		<path d="M236.268,91.32c-7.509-4.416-16.822-4.416-24.332,0c-3.614-2.146-7.733-3.292-11.936-3.32c-13.255,0-24,10.745-24,24
			s10.745,24,24,24c4.201-0.023,8.321-1.163,11.936-3.304c11.426,6.719,26.135,2.904,32.854-8.522
			C251.509,112.748,247.693,98.039,236.268,91.32z M200,120c-4.418,0-8-3.582-8-8s3.582-8,8-8s8,3.582,8,8S204.418,120,200,120z
			 M224,120c-0.477-0.023-0.951-0.09-1.416-0.2c1.883-5.027,1.883-10.565,0-15.592c0.465-0.11,0.939-0.18,1.416-0.208
			c4.418,0,8,3.582,8,8S228.418,120,224,120z"/>
	</g>
</g>
<g>
	<g>
		<rect x="40" y="88" width="16" height="16"/>
	</g>
</g>
<g>
	<g>
		<rect x="72" y="88" width="16" height="16"/>
	</g>
</g>
<g>
	<g>
		<rect x="104" y="88" width="16" height="16"/>
	</g>
</g>
<g>
	<g>
		<rect x="136" y="88" width="16" height="16"/>
	</g>
</g>
<g>
	<g>
		<rect x="40" y="120" width="112" height="16"/>
	</g>
</g>
<g>
	<g>
		<path d="M457.104,308.8l-67.2-74.192l-11.856,10.736l67.24,74.264c6.895,7.394,10.724,17.13,10.712,27.24V480h16V346.848
			C472.035,332.736,466.711,319.137,457.104,308.8z"/>
	</g>
</g>
<g>
	<g>
		<path d="M267.56,201.344L256,209.048V192h-16v17.048l-11.56-7.704l-8.88,13.312l24,16c2.688,1.794,6.192,1.794,8.88,0l24-16
			L267.56,201.344z"/>
	</g>
</g>
<g>
</g>
<g>
</g>
<g>
</g>
<g>
</g>
<g>
</g>
<g>
</g>
<g>
</g>
<g>
</g>
<g>
</g>
<g>
</g>
<g>
</g>
<g>
</g>
<g>
</g>
<g>
</g>
<g>
</g>
</svg>
