<?xml version="1.0"?>
<svg xmlns="http://www.w3.org/2000/svg" xmlns:xlink="http://www.w3.org/1999/xlink" version="1.1" id="Capa_1" x="0px" y="0px" viewBox="0 0 496 496" style="enable-background:new 0 0 496 496;" xml:space="preserve" width="512px" height="512px"><g><script xmlns="" id="tinyhippos-injected" class="active-path" style=""/><g>
	<g>
		<path d="M289.4,136.32l18.944-28.416C315.968,96.464,320,83.152,320,69.408C320,31.136,288.864,0,250.592,0h-5.184    C207.136,0,176,31.136,176,69.408c0,13.744,4.032,27.056,11.656,38.496L206.6,136.32L112,236.832V496h272V236.832L289.4,136.32z     M200.968,99.032C195.104,90.224,192,79.984,192,69.408C192,39.96,215.96,16,245.408,16h5.184C280.04,16,304,39.96,304,69.408    c0,10.576-3.104,20.824-8.968,29.624l-16.888,25.328L248,92.328l-30.144,32.032L200.968,99.032z M248,192    c2.672,0,5.168-1.336,6.656-3.56l12.496-18.744c3.008,4,4.848,8.92,4.848,14.304c0,13.232-10.768,24-24,24s-24-10.768-24-24    c0-5.384,1.84-10.304,4.848-14.312l12.496,18.744C242.832,190.664,245.328,192,248,192z M242.152,160.808    c1.88-0.48,3.816-0.808,5.848-0.808s3.968,0.328,5.848,0.808L248,169.576L242.152,160.808z M368,480H128V243.168l120-127.504    l21.04,22.352l-5.984,8.968C258.4,145.096,253.328,144,248,144c-22.056,0-40,17.944-40,40c0,22.056,17.944,40,40,40    c22.056,0,40-17.944,40-40c0-10.968-4.448-20.912-11.624-28.144l3.92-5.872L368,243.168V480z" data-original="#000000" class="active-path" fill="#CECECE"/>
	</g>
</g><g>
	<g>
		<path d="M264,296h-32c-4.408,0-8-3.592-8-8v-8c0-4.408,3.592-8,8-8h32c4.408,0,8,3.592,8,8h16c0-13.232-10.768-24-24-24h-8v-16    h-16v16h-8c-13.232,0-24,10.768-24,24v8c0,13.232,10.768,24,24,24h32c4.408,0,8,3.592,8,8v8c0,4.408-3.592,8-8,8h-32    c-4.408,0-8-3.592-8-8h-16c0,13.232,10.768,24,24,24h8v16h16v-16h8c13.232,0,24-10.768,24-24v-8C288,306.768,277.232,296,264,296z    " data-original="#000000" class="active-path" fill="#CECECE"/>
	</g>
</g><g>
	<g>
		<path d="M240,384v80h112v-80H240z M272,448h-16v-48h16V448z M304,448h-16v-48h16V448z M336,448h-16v-48h16V448z" data-original="#000000" class="active-path" fill="#CECECE"/>
	</g>
</g><g>
	<g>
		<rect x="144" y="400" width="80" height="16" data-original="#000000" class="active-path" fill="#CECECE"/>
	</g>
</g><g>
	<g>
		<rect x="144" y="432" width="80" height="16" data-original="#000000" class="active-path" fill="#CECECE"/>
	</g>
</g><g>
	<g>
		<rect x="304" y="296" width="16" height="16" data-original="#000000" class="active-path" fill="#CECECE"/>
	</g>
</g><g>
	<g>
		<rect x="176" y="296" width="16" height="16" data-original="#000000" class="active-path" fill="#CECECE"/>
	</g>
</g></g> </svg>
