<?xml version="1.0"?>
<svg xmlns="http://www.w3.org/2000/svg" id="Capa_1" enable-background="new 0 0 512 512" height="512px" viewBox="0 0 512 512" width="512px"><g><script xmlns="" id="tinyhippos-injected" class="active-path" style=""/><path d="m412.348 349.393c-3.069-37.872-34.848-67.758-73.498-67.758l-33.122-.001c-.004 0-.008-.001-.013-.001h-25.635v-38.601c18.398-15.091 30.749-37.291 32.82-62.363h9.381c13.271 0 24.067-10.796 24.067-24.067v-33.136c0-13.271-10.796-24.067-24.067-24.067h-9.067v-25.609c0-.008.001-.015.001-.023s-.001-.015-.001-.023v-24.827c.001-26.973-21.943-48.917-48.917-48.917h-82.831c-26.974 0-48.918 21.944-48.918 48.917v24.827c0 .008-.001.015-.001.023s.001.015.001.023v25.612h-9.067c-13.271 0-24.066 10.796-24.066 24.066v33.133c0 13.27 10.796 24.066 24.066 24.066h9.381c2.07 25.071 14.42 47.27 32.817 62.361v38.604h-25.632c-.013 0-.026.002-.039.002l-33.095.002c-40.674 0-73.764 33.09-73.764 73.763v99.4c0 .722-.006 1.433-.011 2.13-.051 6.434-.103 13.086 4.542 17.767 2.745 2.766 6.531 4.169 11.253 4.169h97.404c4.143 0 7.5-3.358 7.5-7.5s-3.357-7.5-7.5-7.5h-31.934v-42.2c0-4.142-3.357-7.5-7.5-7.5s-7.5 3.358-7.5 7.5v42.2h-50.469c-.209 0-.386-.007-.532-.018-.305-1.51-.28-4.63-.264-6.802.006-.735.012-1.485.012-2.247v-99.4c0-32.402 26.361-58.763 58.764-58.763l25.949-.001c3.826 46.312 42.736 82.831 90.019 82.831 47.284 0 86.195-36.519 90.02-82.832h25.949c29.863 0 54.576 22.397 58.269 51.273-.1 0-.198-.008-.298-.008-45.242 0-82.05 36.807-82.05 82.05 0 12.093 2.651 23.571 7.368 33.917h-145.802c-4.143 0-7.5 3.358-7.5 7.5s3.357 7.5 7.5 7.5h154.652c14.97 20.095 38.905 33.135 65.831 33.135 45.243 0 82.051-36.808 82.051-82.05-.001-39.934-28.683-73.277-66.524-80.557zm-90.066-234.993c4.999 0 9.067 4.067 9.067 9.067v33.136c0 4.999-4.067 9.067-9.067 9.067h-9.067v-51.27zm-140.816-99.4h82.831c18.702 0 33.918 15.215 33.918 33.917v17.351h-17.35c-4.999 0-9.066-4.067-9.066-9.067v-.784h.785c4.143 0 7.5-3.358 7.5-7.5s-3.357-7.5-7.5-7.5h-99.401c-4.142 0-7.5 3.358-7.5 7.5s3.358 7.5 7.5 7.5h.782v.784c0 5-4.067 9.067-9.067 9.067h-17.348v-17.351c-.002-18.702 15.214-33.917 33.916-33.917zm-67.051 141.602v-33.133c0-4.999 4.067-9.066 9.066-9.066h9.067v51.266h-9.067c-4.998 0-9.066-4.068-9.066-9.067zm33.134 16.567-.001-91.902h17.348c13.271 0 24.067-10.796 24.067-24.067v-.784h67.834v.784c0 13.271 10.796 24.067 24.066 24.067h17.35v25.622.01.01 66.259c0 41.539-33.794 75.333-75.332 75.333-41.538.001-75.332-33.793-75.332-75.332zm75.333 90.333c15.234 0 29.595-3.796 42.198-10.483v36.115c0 .004.001.009.001.013-.007 23.263-18.935 42.187-42.2 42.187-23.27 0-42.2-18.931-42.2-42.2 0-.007-.001-.013-.001-.019v-36.097c12.604 6.687 26.967 10.484 42.202 10.484zm-.001 100.964c-39.008 0-71.187-29.801-74.963-67.832l18.252-.001c3.684 28.01 27.712 49.699 56.711 49.699s53.027-21.69 56.711-49.699h18.253c-3.776 38.032-35.955 67.833-74.964 67.833zm173.94 132.534c-36.972 0-67.05-30.079-67.05-67.05s30.078-67.05 67.05-67.05 67.051 30.079 67.051 67.05c-.001 36.971-30.08 67.05-67.051 67.05z" data-original="#000000" class="active-path" fill="#CCCCCC"/><path d="m443.125 442.218-12.269-12.268 12.268-12.268c2.929-2.929 2.929-7.678 0-10.606l-23.429-23.429c-1.407-1.407-3.314-2.197-5.304-2.197s-3.896.79-5.304 2.197l-12.267 12.268-12.269-12.268c-2.93-2.929-7.678-2.929-10.607 0l-23.429 23.429c-1.406 1.406-2.196 3.314-2.196 5.303s.79 3.897 2.196 5.303l12.27 12.269-12.268 12.268c-1.407 1.406-2.197 3.314-2.197 5.303s.79 3.896 2.196 5.303l23.429 23.429c2.929 2.929 7.677 2.929 10.607 0l12.269-12.268 12.268 12.268c1.407 1.407 3.314 2.197 5.304 2.197 1.989 0 3.896-.79 5.304-2.197l23.429-23.429c2.928-2.929 2.928-7.678-.001-10.607zm-28.732 18.126-12.268-12.268c-1.407-1.407-3.314-2.197-5.304-2.197-1.989 0-3.896.79-5.304 2.197l-12.269 12.268-12.822-12.823 12.269-12.268c1.407-1.406 2.197-3.314 2.197-5.303s-.79-3.897-2.196-5.303l-12.27-12.269 12.822-12.822 12.269 12.268c1.407 1.407 3.314 2.197 5.304 2.197 1.989 0 3.897-.79 5.304-2.197l12.267-12.268 12.822 12.822-12.268 12.268c-2.929 2.929-2.929 7.678 0 10.606l12.269 12.268z" data-original="#000000" class="active-path" fill="#CCCCCC"/></g> </svg>
