<svg height="512pt" viewBox="0 -6 512.0001 512" width="512pt" xmlns="http://www.w3.org/2000/svg"><path d="m197.175781 224.816406h-149.242187v244.644532c0 12.734374 10.324218 23.058593 23.058594 23.058593h126.183593l43.796875-157.90625zm0 0" fill="#fecc2e"/><path d="m197.175781 224.816406v267.703125h243.832031c12.734376 0 23.058594-10.324219 23.058594-23.0625v-244.640625zm0 0" fill="#fedd60"/><path d="m503.480469 323.628906-39.414063-98.8125h-266.890625l43.796875 109.796875c2.246094 5.632813 7.703125 9.332031 13.769532 9.332031h234.96875c10.480468 0 17.652343-10.582031 13.769531-20.316406zm0 0" fill="#fecc2e"/><path d="m8.519531 323.628906 39.410157-98.8125h149.246093l-43.796875 109.796875c-2.246094 5.632813-7.699218 9.332031-13.769531 9.332031h-117.320313c-10.480468 0-17.652343-10.582031-13.769531-20.316406zm0 0" fill="#fedd60"/><path d="m326.445312 199.21875c6.027344-.277344 10.722657-5.402344 10.398438-11.425781-.003906-.039063-.003906-.074219-.007812-.113281-.945313-16.800782-5.074219-33.972657-12.042969-49.304688-14.4375-31.757812-39.484375-54.757812-69.050781-72.289062-17.183594-10.191407-36.035157-15.902344-54.976563-21.773438-1.21875-.378906-2.410156-.648438-3.589844-.921875v-25.21875c0-9.207031-10.832031-14.132813-17.773437-8.085937l-67.8125 59.109374c-4.90625 4.273438-4.90625 11.894532 0 16.167969l67.8125 59.109375c6.941406 6.046875 17.773437 1.121094 17.773437-8.085937v-19.5c.207031.003906.410157.007812.621094.015625 22.019531.476562 44.832031 5.476562 64.289063 16.019531 23.039062 12.488281 40.476562 34.191406 48.503906 59.027344 1.511718 4.679687 6.035156 7.71875 10.949218 7.496093zm0 0" fill="#94dc7e"/><path d="m270.023438 418.285156c4.140624 0 7.5-3.355468 7.5-7.5v-13.175781c0-4.144531-3.359376-7.503906-7.5-7.503906-4.144532 0-7.503907 3.359375-7.503907 7.503906v13.175781c0 4.144532 3.359375 7.5 7.503907 7.5zm0 0"/><path d="m415.644531 418.285156c4.144531 0 7.503907-3.355468 7.503907-7.5v-13.175781c0-4.144531-3.359376-7.503906-7.503907-7.503906-4.140625 0-7.5 3.359375-7.5 7.503906v13.175781c0 4.144532 3.359375 7.5 7.5 7.5zm0 0"/><path d="m342.832031 425.320312c9.171875 0 17.777344-3.832031 23.621094-10.515624 2.726563-3.117188 2.40625-7.855469-.710937-10.582032-3.121094-2.726562-7.859376-2.410156-10.585938.710938-2.992188 3.421875-7.484375 5.382812-12.324219 5.382812-4.839843 0-9.328125-1.960937-12.320312-5.382812-2.726563-3.121094-7.464844-3.4375-10.585938-.710938-3.121093 2.726563-3.4375 7.464844-.710937 10.582032 5.839844 6.683593 14.449218 10.515624 23.617187 10.515624zm0 0"/><path d="m106.660156 90.941406s67.753906 59.050782 67.816406 59.105469c11.597657 10.113281 30.203126 1.578125 30.203126-13.738281v-11.675782c19.824218 1.324219 38.3125 6.394532 53.835937 14.804688 20.992187 11.378906 37.371094 31.328125 44.941406 54.738281 2.453125 7.597657 9.519531 12.699219 17.574219 12.699219 1.917969 0 3.839844-.15625 5.753906-.242188 10.046875-.457031 18.089844-9.261718 17.550782-19.316406l-.007813-.136718c-1.015625-17.960938-5.410156-35.9375-12.707031-51.988282-13.785156-30.324218-37.355469-55.066406-72.050782-75.640625-17.429687-10.335937-36.46875-16.253906-54.894531-21.960937 0 0 0-19.484375 0-19.5 0-15.277344-18.675781-23.785156-30.199219-13.738282 0 0-67.71875 59.019532-67.816406 59.105469-8.210937 7.160157-8.195312 20.339844 0 27.484375zm9.859375-16.171875s67.71875-59.023437 67.816407-59.109375c2.054687-1.789062 5.339843-.300781 5.339843 2.429688v25.222656c0 3.484375 2.402344 6.511719 5.796875 7.304688 1.441406.335937 3.050782.773437 4.53125 1.234374 18.480469 5.722657 35.933594 11.128907 51.914063 20.605469 31.96875 18.957031 53.574219 41.511719 66.046875 68.945313 6.535156 14.378906 10.472656 30.5 11.382812 46.601562 0 0 .003906.109375.003906.109375.101563 1.859375-1.414062 3.449219-3.25 3.53125l-4.902343.222657-.167969.003906c-1.503906 0-2.863281-.949219-3.300781-2.308594-8.742188-27.042969-27.722657-50.121094-52.070313-63.316406-19.433594-10.53125-42.84375-16.382813-67.703125-16.925782-4.363281-.09375-8.285156 2.894532-8.285156 7.488282v19.5c0 2.6875-3.277344 4.226562-5.339844 2.429687 0 0-67.816406-59.105469-67.816406-59.105469-1.453125-1.273437-1.449219-3.597656.003906-4.863281zm0 0"/><path d="m22.289062 351.367188h18.140626v118.011718c0 16.855469 13.710937 30.566406 30.5625 30.566406h370.015624c16.851563 0 30.5625-13.710937 30.5625-30.566406v-118.011718h18.140626c15.507812 0 26.488281-16.183594 20.738281-30.597657l-39.414063-98.808593c-1.136718-2.851563-3.898437-4.722657-6.964844-4.722657h-39.625c-4.140624 0-7.5 3.359375-7.5 7.5 0 4.144531 3.359376 7.503907 7.5 7.503907h34.539063s37.441406 93.867187 37.527344 94.085937c1.898437 4.753906-1.703125 10.035156-6.800781 10.035156h-234.96875c-2.976563 0-5.699219-1.84375-6.800782-4.609375l-39.695312-99.515625h186.195312c4.140625 0 7.5-3.355469 7.5-7.5s-3.359375-7.5-7.5-7.5h-346.507812c-3.070313 0-5.832032 1.867188-6.96875 4.71875 0 0-39.332032 98.613281-39.410156 98.8125-5.757813 14.425781 5.222656 30.597657 20.734374 30.597657zm174.886719 79.347656c4.144531 0 7.503907-3.355469 7.503907-7.5v-159.421875l29.324218 73.523437c3.40625 8.535156 11.546875 14.050782 20.738282 14.050782h201.824218v118.011718c0 8.582032-6.980468 15.5625-15.558594 15.5625h-236.328124v-31.71875c0-4.144531-3.359376-7.503906-7.503907-7.503906-4.140625 0-7.5 3.359375-7.5 7.503906v31.71875h-118.683593c-8.578126 0-15.558594-6.980468-15.558594-15.5625v-118.011718h84.179687c9.074219 0 17.375-5.625 20.738281-14.054688l29.324219-73.519531v159.421875c0 4.144531 3.359375 7.5 7.5 7.5zm-181.6875-104.386719 37.527344-94.085937h133.09375s-39.691406 99.507812-39.695313 99.511718c-1.105468 2.777344-3.804687 4.609375-6.800781 4.609375 0 0-117.167969 0-117.324219 0-5.097656 0-8.691406-5.296875-6.800781-10.035156zm0 0"/></svg>