<?xml version="1.0"?>
<svg xmlns="http://www.w3.org/2000/svg" height="512px" viewBox="-82 0 496 496.93278" width="512px"><g><script xmlns="" id="tinyhippos-injected" class="active-path" style=""/><path d="m5.71875 417.363281 223.132812 79.109375c2 .710938 4.199219.59375 6.113282-.316406 1.929687-1 3.398437-2.710938 4.101562-4.769531l28.597656-80.898438h57.808594c4.417969 0 8.460938-3.144531 8.460938-7.5625v-291.882812c-.085938-1.828125-.773438-3.578125-1.960938-4.972657l-48.019531-60.476562c-1.554687-1.933594-3.894531-3.074219-6.378906-3.097656h-82.953125c-.316406 0-.632813-.808594-.957032-1.242188-11.816406-15.882812-26.300781-28.429687-40.765624-35.394531-16.144532-7.765625-30.703126-7.808594-40.992188-.152344-10.289062 7.660157-14.417969 21.628907-11.613281 39.320313 1.628906 9.496094 4.628906 18.707031 8.898437 27.34375l-26.628906 33.703125c-1.089844 1.421875-1.664062 3.175781-1.628906 4.96875v70.789062l-79.980469 225.316407c-.730469 1.988281-.636719 4.183593.257813 6.101562.898437 1.914062 2.519531 3.394531 4.507812 4.113281zm115.738281-398.878906c9.667969-7.195313 32.492188 1.003906 52.6875 24.003906h-37.5c-2.449219.03125-4.757812 1.171875-6.269531 3.101563l-9.941406 12.542968c-7.234375-18.609374-6.378906-34.144531 1.023437-39.648437zm-24.523437 95.34375 20.878906-26.449219c1.523438 2.320313 3.066406 4.621094 4.753906 6.886719 11.816406 15.882813 26.269532 28.464844 40.742188 35.429687 3.101562 1.503907 6.3125 2.765626 9.609375 3.769532 2.308593 17.28125 17.164062 30.121094 34.597656 29.894531 17.4375-.222656 31.957031-13.433594 33.820313-30.773437 1.863281-17.335938-9.519532-33.332032-26.507813-37.253907-16.992187-3.921875-34.234375 5.464844-40.160156 21.863281-12.042969-4.488281-26.617188-15.417968-39.316407-32.480468-2.546874-3.445313-4.914062-7.015625-7.097656-10.699219l12.253906-15.527344h133.199219l44.226563 55.339844v280.660156h-221zm118.453125-1.398437c7.421875 3.707031 11.464843 11.910156 9.886719 20.054687-1.578126 8.144531-8.390626 14.242187-16.660157 14.914063-8.269531.667968-15.976562-4.25-18.84375-12.039063 5.242188-.476563 10.257813-2.375 14.5-5.492187 5.503907-4.09375 9.257813-10.03125 11.117188-17.441407zm-20.664063 4.597656c-.898437.65625-1.886718 1.179687-2.933594 1.554687 1.675782-2.46875 3.917969-4.496093 6.539063-5.917969-.851563 1.710938-2.085937 3.207032-3.605469 4.367188zm-113.789062 112.6875v173.210937c-.027344 2.054688.792968 4.03125 2.269531 5.464844 1.476563 1.429687 3.476563 2.191406 5.53125 2.097656h161.957031l-24.035156 68.015625-207.953125-73.65625zm0 0" data-original="#000000" class="active-path" fill="#CCCCCC"/><path d="m287.757812 357.488281h-161.300781c-4.417969 0-8 3.582031-8 8 0 4.421875 3.582031 8 8 8h161.300781c4.417969 0 8-3.578125 8-8 0-4.417969-3.582031-8-8-8zm0 0" data-original="#000000" class="active-path" fill="#CCCCCC"/><path d="m287.757812 319.488281h-161.300781c-4.417969 0-8 3.582031-8 8 0 4.421875 3.582031 8 8 8h161.300781c4.417969 0 8-3.578125 8-8 0-4.417969-3.582031-8-8-8zm0 0" data-original="#000000" class="active-path" fill="#CCCCCC"/><path d="m150.117188 250.382812c0-20.164062-25.359376-18.644531-25.359376-26.644531 0-2.476562 2.320313-4.796875 8-4.796875 6.558594 0 8.078126 3.039063 10.957032 3.039063 3.523437 0 4.960937-4.402344 4.960937-6.558594 0-6.242187-11.679687-7.042969-15.917969-7.042969-10 0-20.480468 4.5625-20.480468 16.5625 0 18.71875 25.359375 17.039063 25.359375 26.71875 0 3.839844-4.078125 5.28125-7.761719 5.28125-7.4375 0-9.839844-5.921875-13.597656-5.921875-3.039063 0-5.441406 4-5.441406 6.722657 0 5.277343 8.800781 10.398437 19.28125 10.398437 11.601562 0 20-6.238281 20-17.757813zm0 0" data-original="#000000" class="active-path" fill="#CCCCCC"/><path d="m168.277344 267.339844c2 0 3.597656-.398438 4.078125-2.082032l2.722656-9.769531h16.878906l2.71875 9.769531c.480469 1.679688 2.082031 2.199219 4.082031 2.199219 3.441407 0 8-2.21875 8-5.179687-.023437-.308594-.074218-.613282-.160156-.910156l-14.960937-48.8125c-.882813-2.800782-4.480469-4.167969-8.160157-4.167969-3.683593 0-7.28125 1.355469-8.160156 4.15625l-14.882812 48.800781c-.082032.285156-.136719.582031-.160156.878906.003906 2.960938 4.5625 5.117188 8.003906 5.117188zm15.199218-43.289063 5.839844 21.4375h-11.679687zm0 0" data-original="#000000" class="active-path" fill="#CCCCCC"/><path d="m224.835938 267.488281h25.28125c2.398437 0 3.597656-2.777343 3.597656-5.5 0-2.71875-1.199219-5.5-3.597656-5.5h-18.183594v-43.867187c0-2.640625-3.378906-3.761719-6.5-3.761719-3.117188 0-6.5 1.121094-6.5 3.761719v50.878906c0 2.5625 3.183594 3.988281 5.902344 3.988281zm0 0" data-original="#000000" class="active-path" fill="#CCCCCC"/><path d="m300.675781 219.488281c2.398438 0 3.761719-2.617187 3.761719-5.578125 0-2.558594-1.121094-5.421875-3.761719-5.421875h-28.480469c-2.71875 0-5.261718 1.652344-5.261718 4.210938v50.800781c0 2.558594 2.542968 3.988281 5.261718 3.988281h28.480469c2.640625 0 3.761719-2.859375 3.761719-5.417969 0-2.960937-1.363281-5.582031-3.761719-5.582031h-21.742187v-14h12.300781c2.640625 0 3.761719-2.257812 3.761719-4.417969 0-2.558593-1.363282-4.582031-3.761719-4.582031h-12.300781v-14zm0 0" data-original="#000000" class="active-path" fill="#CCCCCC"/></g> </svg>
