<svg height="512pt" viewBox="-16 0 512 512" width="512pt" xmlns="http://www.w3.org/2000/svg"><path d="m450 91.199219h-20.199219v30.800781c0 5.800781-4.601562 10.398438-10.199219 10.601562-5.601562.199219-10.402343-4.601562-10.601562-10.203124v-.199219-31h-20.800781v30.800781c0 5.800781-4.597657 10.398438-10.199219 10.601562-5.601562.199219-10.398438-4.601562-10.601562-10.203124v-.199219-31h-20.796876v30.800781c0 5.800781-4.601562 10.398438-10.203124 10.601562-5.597657.199219-10.398438-4.601562-10.597657-10.203124v-.199219-31h-185.601562v30.800781c0 5.800781-4.597657 10.398438-10.398438 10.398438s-10.402343-4.597657-10.402343-10.398438v-30.800781h-20.597657v30.800781c0 5.800781-4.601562 10.398438-10.402343 10.398438-5.796876 0-10.398438-4.597657-10.398438-10.398438v-30.800781h-20.800781v30.800781c0 5.800781-4.597657 10.398438-10.398438 10.398438s-10.402343-4.597657-10.402343-10.398438v-30.800781h-19.199219c-6.800781 0-12.199219 5.402343-12.199219 12.199219v75.203124c0 6.796876 5.398438 12.199219 12.199219 12.199219h432.800781c6.800781 0 12.199219-5.402343 12.199219-12.199219v-75.203124c0-6.796876-5.398438-12.199219-12.199219-12.199219zm0 0" fill="#ea4647"/><path d="m252.601562 396c0-61.398438 49.796876-111 111-111 34.796876 0 67.597657 16.199219 88.597657 44v-138.199219h-437v304c0 6.800781 5.402343 12.199219 12.199219 12.199219h336.203124c-61.203124 0-111-49.601562-111-111zm0 0" fill="#e9e9ea"/><path d="m474.601562 396c0 61.304688-49.699218 111-111 111-61.304687 0-111-49.695312-111-111s49.695313-111 111-111c61.300782 0 111 49.695312 111 111zm0 0" fill="#55acd5"/><path d="m449.601562 396c0 47.496094-38.503906 86-86 86-47.5 0-86-38.503906-86-86s38.5-86 86-86c47.496094 0 86 38.503906 86 86zm0 0" fill="#ffcd29"/><path d="m373.601562 396c0 5.523438-4.480468 10-10 10-5.523437 0-10-4.476562-10-10s4.476563-10 10-10c5.519532 0 10 4.476562 10 10zm0 0" fill="#e9e9ea"/><path d="m46.800781 50c5.800781 0 10.398438 4.601562 10.398438 10.398438v61.601562c0 5.800781-4.597657 10.398438-10.398438 10.398438s-10.402343-4.597657-10.402343-10.398438v-61.800781c0-5.597657 4.800781-10.199219 10.402343-10.199219zm0 0" fill="#e9e9ea"/><path d="m88.398438 50c5.800781 0 10.402343 4.601562 10.402343 10.398438v61.601562c0 5.800781-4.601562 10.398438-10.402343 10.398438-5.796876 0-10.398438-4.597657-10.398438-10.398438v-61.800781c0-5.597657 4.601562-10.199219 10.398438-10.199219zm0 0" fill="#e9e9ea"/><path d="m130 50c5.800781 0 10.398438 4.601562 10.398438 10.398438v61.601562c0 5.800781-4.597657 10.398438-10.398438 10.398438s-10.398438-4.597657-10.398438-10.398438v-61.800781c0-5.597657 4.597657-10.199219 10.398438-10.199219zm0 0" fill="#e9e9ea"/><path d="m336.199219 50c5.800781 0 10.402343 4.601562 10.402343 10.398438v61.601562c0 5.800781-4.601562 10.398438-10.402343 10.398438s-10.398438-4.597657-10.398438-10.398438v-61.800781c0-5.597657 4.800781-10.199219 10.398438-10.199219zm0 0" fill="#e9e9ea"/><path d="m377.800781 50c5.800781 0 10.398438 4.601562 10.398438 10.398438v61.601562c0 5.800781-4.597657 10.398438-10.398438 10.398438s-10.402343-4.597657-10.402343-10.398438v-61.800781c0-5.597657 4.601562-10.199219 10.402343-10.199219zm0 0" fill="#e9e9ea"/><path d="m419.398438 50c5.800781 0 10.402343 4.601562 10.402343 10.398438v61.601562c0 5.800781-4.601562 10.398438-10.402343 10.398438-5.796876 0-10.398438-4.597657-10.398438-10.398438v-61.800781c0-5.597657 4.601562-10.199219 10.398438-10.199219zm0 0" fill="#e9e9ea"/><path d="m191.199219 231h22.601562c5 0 9.199219 4 9.199219 9.199219v22.601562c0 5-4 9.199219-9.199219 9.199219h-22.601562c-5 0-9.199219-4-9.199219-9.199219v-22.601562c0-5.199219 4-9.199219 9.199219-9.199219zm0 0" fill="#acdef9"/><path d="m252.398438 231h22.601562c5 0 9.199219 4 9.199219 9.199219v22.601562c0 5-4 9.199219-9.199219 9.199219h-22.601562c-5 0-9.199219-4-9.199219-9.199219v-22.601562c0-5.199219 4.199219-9.199219 9.199219-9.199219zm0 0" fill="#acdef9"/><path d="m313.800781 231h22.597657c5 0 9.203124 4 9.203124 9.199219v22.601562c0 5-4 9.199219-9.203124 9.199219h-22.597657c-5 0-9.199219-4-9.199219-9.199219v-22.601562c0-5.199219 4-9.199219 9.199219-9.199219zm0 0" fill="#6dcc6d"/><path d="m68.601562 292.199219h22.597657c5 0 9.199219 4 9.199219 9.199219v22.601562c0 5-4 9.199219-9.199219 9.199219h-22.597657c-5 0-9.203124-4-9.203124-9.199219v-22.601562c0-5 4-9.199219 9.203124-9.199219zm0 0" fill="#6dcc6d"/><path d="m129.800781 292.199219h22.597657c5 0 9.203124 4 9.203124 9.199219v22.601562c0 5-4 9.199219-9.203124 9.199219h-22.597657c-5 0-9.199219-4-9.199219-9.199219v-22.601562c0-5 4.199219-9.199219 9.199219-9.199219zm0 0" fill="#6dcc6d"/><path d="m191.199219 292.199219h22.601562c5 0 9.199219 4 9.199219 9.199219v22.601562c0 5-4 9.199219-9.199219 9.199219h-22.601562c-5 0-9.199219-4-9.199219-9.199219v-22.601562c0-5 4-9.199219 9.199219-9.199219zm0 0" fill="#6dcc6d"/><path d="m68.601562 353.601562h22.597657c5 0 9.199219 4 9.199219 9.199219v22.597657c0 5-4 9.203124-9.199219 9.203124h-22.597657c-5 0-9.203124-4-9.203124-9.203124v-22.597657c0-5.199219 4-9.199219 9.203124-9.199219zm0 0" fill="#acdef9"/><path d="m129.800781 353.601562h22.597657c5 0 9.203124 4 9.203124 9.199219v22.597657c0 5-4 9.203124-9.203124 9.203124h-22.597657c-5 0-9.199219-4-9.199219-9.203124v-22.597657c0-5.199219 4.199219-9.199219 9.199219-9.199219zm0 0" fill="#acdef9"/><path d="m191.199219 353.601562h22.601562c5 0 9.199219 4 9.199219 9.199219v22.597657c0 5-4 9.203124-9.199219 9.203124h-22.601562c-5 0-9.199219-4-9.199219-9.203124v-22.597657c0-5.199219 4-9.199219 9.199219-9.199219zm0 0" fill="#acdef9"/><path d="m68.601562 414.800781h22.597657c5 0 9.199219 4 9.199219 9.199219v22.601562c0 5-4 9.199219-9.199219 9.199219h-22.597657c-5 0-9.203124-4-9.203124-9.199219v-22.601562c0-5 4-9.199219 9.203124-9.199219zm0 0" fill="#acdef9"/><path d="m129.800781 414.800781h22.597657c5 0 9.203124 4 9.203124 9.199219v22.601562c0 5-4 9.199219-9.203124 9.199219h-22.597657c-5 0-9.199219-4-9.199219-9.199219v-22.601562c0-5 4.199219-9.199219 9.199219-9.199219zm0 0" fill="#acdef9"/><path d="m191.199219 414.800781h22.601562c5 0 9.199219 4 9.199219 9.199219v22.601562c0 5-4 9.199219-9.199219 9.199219h-22.601562c-5 0-9.199219-4-9.199219-9.199219v-22.601562c0-5 4-9.199219 9.199219-9.199219zm0 0" fill="#acdef9"/><path d="m375 231h22.601562c5 0 9.199219 4 9.199219 9.199219v22.601562c0 5-4 9.199219-9.199219 9.199219h-22.601562c-5 0-9.199219-4-9.199219-9.199219v-22.601562c.199219-5.199219 4.199219-9.199219 9.199219-9.199219zm0 0" fill="#6dcc6d"/><path d="m284.199219 318.601562v-17.203124c0-5-4.199219-9.199219-9.199219-9.199219h-22.601562c-5 0-9.199219 4.199219-9.199219 9.199219v22.601562c0 5 4.199219 9.199219 9.199219 9.199219h19.800781c3.601562-5.199219 7.601562-10.199219 12-14.597657zm0 0" fill="#acdef9"/><path d="m313.398438 8.601562h-3.597657v-3.601562c0-2.800781-2.199219-5-5-5s-5 2.199219-5 5v3.601562h-3.601562c-2.800781 0-5 2.199219-5 5 0 2.796876 2.199219 5 5 5h3.601562v3.597657c0 2.800781 2.199219 5 5 5s5-2.199219 5-5v-3.597657h3.597657c2.800781 0 5-2.203124 5-5 0-2.800781-2.199219-5-5-5zm0 0" fill="#55acd5"/><path d="m268 48c0-.398438-.199219-.601562-.199219-1-.199219-.199219-.199219-.601562-.402343-.800781-.199219-.199219-.398438-.597657-.597657-.800781-2-1.796876-5-1.796876-7 0-.199219.203124-.402343.402343-.601562.800781-.398438.601562-.597657 1.199219-.800781 1.800781-.199219.601562-.199219 1.398438 0 2 0 .398438.203124.601562.203124 1 .199219.398438.199219.601562.398438.800781s.398438.597657.601562.800781c2 2 5 2 7 0 .199219-.203124.398438-.402343.597657-.800781.199219-.199219.402343-.601562.402343-.800781.199219-.199219.199219-.601562.199219-1 .199219-.800781.199219-1.398438.199219-2zm0 0" fill="#ffcd29"/><path d="m175.601562 26.199219c-6.601562-1.199219-11.800781-6.398438-13.203124-13.199219 0-.199219-.199219-.199219-.398438-.199219s-.199219.199219-.199219.199219c-1.199219 6.601562-6.402343 11.800781-13.199219 13.199219-.203124 0-.203124.199219-.203124.402343 0 .199219.203124.199219.203124.199219 6.597657 1.199219 11.796876 6.398438 13.199219 13.199219 0 .199219.199219.199219.398438.199219s.199219-.199219.199219-.199219c1.203124-6.601562 6.402343-11.800781 13.203124-13.199219.199219 0 .199219-.199219.199219-.402343 0-.199219 0-.199219-.199219-.199219zm0 0" fill="#6dcc6d"/><g fill="#231f20"><path d="m46.800781 137.398438c-8.402343 0-15.402343-6.796876-15.402343-15.398438v-61.800781c0-8.398438 6.800781-15.398438 15.402343-15.398438 8.597657 0 15.398438 6.800781 15.398438 15.398438v61.800781c0 8.398438-6.800781 15.398438-15.398438 15.398438zm0-82.398438c-3 0-5.402343 2.398438-5.402343 5.398438v61.601562c0 3 2.402343 5.398438 5.402343 5.398438s5.398438-2.398438 5.398438-5.398438v-61.800781c0-2.800781-2.398438-5.199219-5.398438-5.199219zm0 0"/><path d="m88.398438 137.398438c-8.398438 0-15.398438-6.796876-15.398438-15.398438v-61.800781c0-8.398438 7-15.398438 15.601562-15.199219 8.398438 0 15.199219 6.800781 15.199219 15.199219v61.800781c0 8.398438-7 15.398438-15.402343 15.398438zm0-82.398438c-3 0-5.398438 2.398438-5.398438 5.398438v61.601562c0 3 2.601562 5.398438 5.398438 5.199219 2.800781 0 5.203124-2.398438 5.203124-5.199219v-61.800781c.199219-2.800781-2.203124-5.199219-5.203124-5.199219zm0 0"/><path d="m130 137.398438c-8.398438 0-15.398438-6.796876-15.398438-15.398438v-61.800781c0-8.398438 6.796876-15.398438 15.398438-15.398438s15.398438 6.800781 15.398438 15.398438v61.800781c-.199219 8.398438-7 15.398438-15.398438 15.398438zm0-82.398438c-3 0-5.398438 2.398438-5.398438 5.398438v61.601562c0 3 2.398438 5.398438 5.398438 5.398438s5.398438-2.398438 5.398438-5.398438v-61.800781c-.199219-2.800781-2.597657-5.199219-5.398438-5.199219zm0 0"/><path d="m336.199219 137.398438c-8.398438 0-15.398438-6.796876-15.398438-15.398438v-61.800781c0-8.398438 7-15.398438 15.597657-15.199219 8.402343 0 15.203124 6.800781 15.203124 15.199219v61.800781c0 8.398438-6.800781 15.398438-15.402343 15.398438zm0-82.398438c-3 0-5.398438 2.398438-5.398438 5.398438v61.601562c0 3 2.597657 5.398438 5.398438 5.199219 2.800781 0 5.199219-2.398438 5.199219-5.199219v-61.800781c.203124-2.800781-2.199219-5.199219-5.199219-5.199219zm0 0"/><path d="m377.800781 137.398438c-8.402343 0-15.402343-6.796876-15.402343-15.398438v-61.800781c0-8.398438 7-15.398438 15.601562-15.199219 8.398438 0 15.199219 6.800781 15.199219 15.199219v61.800781c0 8.398438-7 15.398438-15.398438 15.398438zm0-82.398438c-3 0-5.402343 2.398438-5.402343 5.398438v61.601562c0 3 2.601562 5.398438 5.402343 5.199219 2.800781 0 5.199219-2.398438 5.199219-5.199219v-61.800781c.199219-2.800781-2.199219-5.199219-5.199219-5.199219zm0 0"/><path d="m419.398438 137.398438c-8.398438 0-15.398438-6.796876-15.398438-15.398438v-61.800781c0-8.398438 7-15.398438 15.601562-15.199219 8.398438 0 15.199219 6.800781 15.199219 15.199219v61.800781c-.199219 8.398438-7 15.398438-15.402343 15.398438zm0-82.398438c-3 0-5.398438 2.398438-5.398438 5.398438v61.601562c0 3 2.601562 5.398438 5.398438 5.199219 2.800781 0 5.203124-2.398438 5.203124-5.199219v-61.800781c0-2.800781-2.402343-5.199219-5.203124-5.199219zm0 0"/><path d="m450 195.800781h-432.800781c-9.597657 0-17.199219-7.800781-17.199219-17.199219v-75.203124c0-9.597657 7.800781-17.199219 17.199219-17.199219h19.199219c2.800781 0 5 2.199219 5 5v30.800781c0 3 2.402343 5.398438 5.402343 5.398438s5.398438-2.398438 5.398438-5.398438v-30.800781c0-2.800781 2.199219-5 5-5h20.800781c2.800781 0 5 2.199219 5 5v30.800781c0 3 2.398438 5.398438 5.199219 5.398438 3 0 5.402343-2.398438 5.402343-5.199219v-.199219-30.800781c0-2.800781 2.199219-5 5-5h20.796876c2.800781 0 5 2.199219 5 5v30.800781c0 3 2.402343 5.398438 5.402343 5.398438s5.398438-2.398438 5.398438-5.398438v-30.800781c0-2.800781 2.199219-5 5-5h185.601562c2.800781 0 5 2.199219 5 5v30.800781c0 3 2.398438 5.398438 5.199219 5.398438 3 0 5.398438-2.398438 5.398438-5.199219v-.199219-30.800781c0-2.800781 2.203124-5 5-5h20.800781c2.800781 0 5 2.199219 5 5v30.800781c0 3 2.402343 5.398438 5.199219 5.398438 3 0 5.402343-2.398438 5.402343-5.199219v-.199219-30.800781c0-2.800781 2.199219-5 5-5h20.800781c2.796876 0 5 2.199219 5 5v30.800781c0 3 2.398438 5.398438 5.199219 5.398438 3 0 5.398438-2.398438 5.398438-5.199219v-.199219-30.800781c0-2.800781 2.199219-5 5-5h20.402343c9.597657 0 17.199219 7.800781 17.199219 17.199219v75.203124c.398438 9.597657-7.199219 17.199219-16.800781 17.199219zm-432.800781-99.601562c-4 0-7.199219 3.199219-7.199219 7.199219v75.203124c0 4 3.199219 7.199219 7.199219 7.199219h432.800781c4 0 7.199219-3.199219 7.199219-7.199219v-75.203124c0-4-3.199219-7.199219-7.199219-7.199219h-15.398438v25.800781c0 8.398438-6.800781 15.398438-15.203124 15.601562-8.398438.199219-15.398438-6.800781-15.597657-15.203124 0-.199219 0-.199219 0-.398438v-25.800781h-10.800781v25.800781c0 8.398438-6.800781 15.398438-15.199219 15.601562-8.402343.199219-15.402343-6.800781-15.601562-15.203124 0-.199219 0-.199219 0-.398438v-25.800781h-10.800781v25.800781c0 8.398438-6.796876 15.398438-15.199219 15.601562-8.398438.199219-15.398438-6.800781-15.597657-15.203124 0-.199219 0-.199219 0-.398438v-25.800781h-175.402343v25.800781c0 8.398438-6.800781 15.398438-15.398438 15.398438-8.601562 0-15.402343-6.796876-15.402343-15.398438v-25.800781h-10.597657v25.800781c0 8.398438-6.800781 15.398438-15.199219 15.601562-8.402343.199219-15.402343-6.800781-15.601562-15.203124 0-.199219 0-.199219 0-.398438v-25.800781h-10.800781v25.800781c0 8.398438-6.800781 15.398438-15.398438 15.398438-8.402343 0-15.402343-6.796876-15.402343-15.398438v-25.800781zm0 0"/><path d="m288.601562 146h-109.800781c-2.800781 0-5-2.199219-5-5s2.199219-5 5-5h109.800781c2.796876 0 5 2.199219 5 5s-2.203124 5-5 5zm0 0"/><path d="m213.800781 276.800781h-22.601562c-7.800781 0-14.199219-6.402343-14.199219-14.199219v-22.601562c0-7.800781 6.398438-14.199219 14.199219-14.199219h22.601562c7.800781 0 14.199219 6.398438 14.199219 14.199219v22.601562c-.199219 7.796876-6.398438 14.199219-14.199219 14.199219zm-22.601562-40.800781c-2.199219 0-4.199219 1.800781-4.199219 4.199219v22.601562c0 2.199219 1.800781 4.199219 4.199219 4.199219h22.601562c2.199219 0 4.199219-1.800781 4.199219-4.199219v-22.601562c0-2.199219-1.800781-4.199219-4.199219-4.199219zm0 0"/><path d="m275 276.800781h-22.601562c-7.796876 0-14.199219-6.402343-14.199219-14.199219v-22.601562c0-7.800781 6.402343-14.199219 14.199219-14.199219h22.601562c7.800781 0 14.199219 6.398438 14.199219 14.199219v22.601562c0 7.796876-6.398438 14.199219-14.199219 14.199219zm-22.601562-40.800781c-2.199219 0-4.199219 1.800781-4.199219 4.199219v22.601562c0 2.199219 1.800781 4.199219 4.199219 4.199219h22.601562c2.199219 0 4.199219-1.800781 4.199219-4.199219v-22.601562c0-2.199219-1.800781-4.199219-4.199219-4.199219zm0 0"/><path d="m336.398438 276.800781h-22.597657c-7.800781 0-14.199219-6.402343-14.199219-14.199219v-22.601562c0-7.800781 6.398438-14.199219 14.199219-14.199219h22.597657c7.800781 0 14.203124 6.398438 14.203124 14.199219v22.601562c-.203124 8-6.402343 14.199219-14.203124 14.199219zm-22.597657-40.800781c-2.199219 0-4.199219 1.800781-4.199219 4.199219v22.601562c0 2.199219 1.796876 4.199219 4.199219 4.199219h22.597657c2.203124 0 4.203124-1.800781 4.203124-4.199219v-22.601562c0-2.199219-1.800781-4.199219-4.203124-4.199219zm0 0"/><path d="m91.199219 338.199219h-22.597657c-7.800781 0-14.203124-6.398438-14.203124-14.199219v-22.601562c0-7.796876 6.402343-14.199219 14.203124-14.199219h22.597657c7.800781 0 14.199219 6.402343 14.199219 14.199219v22.601562c-.199219 7.800781-6.398438 14.199219-14.199219 14.199219zm-22.597657-41c-2.203124 0-4.203124 1.800781-4.203124 4.199219v22.601562c0 2.199219 1.800781 4.199219 4.203124 4.199219h22.597657c2.199219 0 4.199219-1.800781 4.199219-4.199219v-22.601562c0-2.199219-1.796876-4.199219-4.199219-4.199219zm0 0"/><path d="m152.398438 338.199219h-22.597657c-7.800781 0-14.199219-6.398438-14.199219-14.199219v-22.601562c0-7.796876 6.398438-14.199219 14.199219-14.199219h22.597657c7.800781 0 14.203124 6.402343 14.203124 14.199219v22.601562c0 7.800781-6.402343 14.199219-14.203124 14.199219zm-22.597657-41c-2.199219 0-4.199219 1.800781-4.199219 4.199219v22.601562c0 2.199219 1.796876 4.199219 4.199219 4.199219h22.597657c2.203124 0 4.203124-1.800781 4.203124-4.199219v-22.601562c0-2.199219-1.800781-4.199219-4.203124-4.199219zm0 0"/><path d="m213.800781 338.199219h-22.601562c-7.800781 0-14.199219-6.398438-14.199219-14.199219v-22.601562c0-7.796876 6.398438-14.199219 14.199219-14.199219h22.601562c7.800781 0 14.199219 6.402343 14.199219 14.199219v22.601562c-.199219 7.800781-6.398438 14.199219-14.199219 14.199219zm-22.601562-41c-2.199219 0-4.199219 1.800781-4.199219 4.199219v22.601562c0 2.199219 1.800781 4.199219 4.199219 4.199219h22.601562c2.199219 0 4.199219-1.800781 4.199219-4.199219v-22.601562c0-2.199219-1.800781-4.199219-4.199219-4.199219zm0 0"/><path d="m91.199219 399.398438h-22.597657c-7.800781 0-14.203124-6.398438-14.203124-14.199219v-22.597657c0-7.800781 6.402343-14.203124 14.203124-14.203124h22.597657c7.800781 0 14.199219 6.402343 14.199219 14.203124v22.597657c-.199219 8-6.398438 14.199219-14.199219 14.199219zm-22.597657-40.796876c-2.203124 0-4.203124 1.796876-4.203124 4.199219v22.597657c0 2.203124 1.800781 4.203124 4.203124 4.203124h22.597657c2.199219 0 4.199219-1.800781 4.199219-4.203124v-22.597657c0-2.199219-1.796876-4.199219-4.199219-4.199219zm0 0"/><path d="m152.398438 399.398438h-22.597657c-7.800781 0-14.199219-6.398438-14.199219-14.199219v-22.597657c0-7.800781 6.398438-14.203124 14.199219-14.203124h22.597657c7.800781 0 14.203124 6.402343 14.203124 14.203124v22.597657c0 8-6.402343 14.199219-14.203124 14.199219zm-22.597657-40.796876c-2.199219 0-4.199219 1.796876-4.199219 4.199219v22.597657c0 2.203124 1.796876 4.203124 4.199219 4.203124h22.597657c2.203124 0 4.203124-1.800781 4.203124-4.203124v-22.597657c0-2.199219-1.800781-4.199219-4.203124-4.199219zm0 0"/><path d="m213.800781 399.398438h-22.601562c-7.800781 0-14.199219-6.398438-14.199219-14.199219v-22.597657c0-7.800781 6.398438-14.203124 14.199219-14.203124h22.601562c7.800781 0 14.199219 6.402343 14.199219 14.203124v22.597657c-.199219 8-6.398438 14.199219-14.199219 14.199219zm-22.601562-40.796876c-2.199219 0-4.199219 1.796876-4.199219 4.199219v22.597657c0 2.203124 1.800781 4.203124 4.199219 4.203124h22.601562c2.199219 0 4.199219-1.800781 4.199219-4.203124v-22.597657c0-2.199219-1.800781-4.199219-4.199219-4.199219zm0 0"/><path d="m91.199219 460.800781h-22.597657c-7.800781 0-14.203124-6.402343-14.203124-14.199219v-22.601562c0-7.800781 6.402343-14.199219 14.203124-14.199219h22.597657c7.800781 0 14.199219 6.398438 14.199219 14.199219v22.601562c-.199219 7.796876-6.398438 14.199219-14.199219 14.199219zm-22.597657-41c-2.203124 0-4.203124 1.800781-4.203124 4.199219v22.601562c0 2.199219 1.800781 4.199219 4.203124 4.199219h22.597657c2.199219 0 4.199219-1.800781 4.199219-4.199219v-22.601562c0-2.199219-1.796876-4.199219-4.199219-4.199219zm0 0"/><path d="m152.398438 460.800781h-22.597657c-7.800781 0-14.199219-6.402343-14.199219-14.199219v-22.601562c0-7.800781 6.398438-14.199219 14.199219-14.199219h22.597657c7.800781 0 14.203124 6.398438 14.203124 14.199219v22.601562c0 7.796876-6.402343 14.199219-14.203124 14.199219zm-22.597657-41c-2.199219 0-4.199219 1.800781-4.199219 4.199219v22.601562c0 2.199219 1.796876 4.199219 4.199219 4.199219h22.597657c2.203124 0 4.203124-1.800781 4.203124-4.199219v-22.601562c0-2.199219-1.800781-4.199219-4.203124-4.199219zm0 0"/><path d="m213.800781 460.800781h-22.601562c-7.800781 0-14.199219-6.402343-14.199219-14.199219v-22.601562c0-7.800781 6.398438-14.199219 14.199219-14.199219h22.601562c7.800781 0 14.199219 6.398438 14.199219 14.199219v22.601562c-.199219 7.796876-6.398438 14.199219-14.199219 14.199219zm-22.601562-41c-2.199219 0-4.199219 1.800781-4.199219 4.199219v22.601562c0 2.199219 1.800781 4.199219 4.199219 4.199219h22.601562c2.199219 0 4.199219-1.800781 4.199219-4.199219v-22.601562c0-2.199219-1.800781-4.199219-4.199219-4.199219zm0 0"/><path d="m397.601562 276.800781h-22.601562c-7.800781 0-14.199219-6.402343-14.199219-14.199219v-22.601562c0-7.800781 6.398438-14.199219 14.199219-14.199219h22.601562c7.796876 0 14.199219 6.398438 14.199219 14.199219v22.601562c0 7.796876-6.402343 14.199219-14.199219 14.199219zm-22.601562-40.800781c-2.199219 0-4.199219 1.800781-4.199219 4.199219v22.601562c0 2.199219 1.800781 4.199219 4.199219 4.199219h22.601562c2.199219 0 4.199219-1.800781 4.199219-4.199219v-22.601562c0-2.199219-1.800781-4.199219-4.199219-4.199219zm0 0"/><path d="m272.199219 338.199219h-19.800781c-7.796876 0-14.199219-6.398438-14.199219-14.199219v-22.601562c0-7.796876 6.402343-14.199219 14.199219-14.199219h22.601562c7.800781 0 14.199219 6.402343 14.199219 14.199219v17.203124c0 1.398438-.597657 2.597657-1.398438 3.398438-4.199219 4.398438-8 9-11.402343 14-1 1.398438-2.597657 2.199219-4.199219 2.199219zm-19.800781-41c-2.199219 0-4.199219 1.800781-4.199219 4.199219v22.601562c0 2.199219 1.800781 4.199219 4.199219 4.199219h17.203124c3-4 6.199219-8 9.597657-11.597657v-15.203124c0-2.199219-1.800781-4.199219-4.199219-4.199219zm31.800781 21.402343"/><path d="m363.601562 512h-336.203124c-9.597657 0-17.199219-7.800781-17.199219-17.199219v-304c0-2.800781 2.199219-5 5-5h437c2.800781 0 5 2.199219 5 5v138.199219c0 2.800781-2.199219 5-5 5-1.597657 0-3-.800781-4-2-35.398438-46.601562-101.800781-56-148.398438-20.601562-46.601562 35.402343-56 101.800781-20.601562 148.402343 20 26.398438 51.402343 42 84.601562 42 2.800781 0 5 2.199219 5 5s-2.402343 5.199219-5.199219 5.199219zm-343.402343-316.199219v299c0 4 3.199219 7.199219 7.199219 7.199219h289.203124c-58.601562-26-85-94.601562-58.800781-153.199219 18.597657-41.800781 60.199219-68.800781 106-68.800781 31.597657-.199219 61.800781 12.800781 83.597657 35.398438v-119.597657zm0 0"/><path d="m363.601562 389.601562c-2.800781 0-5-2.203124-5-5v-55c0-2.800781 2.199219-5 5-5 2.796876 0 5 2.199219 5 5v55c0 2.796876-2.203124 5-5 5zm0 0"/><path d="m325.199219 433.601562c-2.800781 0-5-2.203124-5-5 0-1.402343.601562-2.800781 1.800781-3.800781l31-26c2.199219-1.800781 5.199219-1.402343 7 .597657 1.800781 2.203124 1.398438 5.203124-.601562 7l-31 26c-1 .800781-2 1.203124-3.199219 1.203124zm0 0"/><path d="m319.398438 267c-1.398438 0-2.796876-.601562-3.597657-1.601562l-8.402343-9.199219c-1.796876-2-1.796876-5.199219.402343-7 2-1.800781 5.199219-1.800781 7 .402343l5 5.398438 15.597657-15.601562c2-2 5.203124-1.796876 7 .203124 1.800781 2 1.800781 5 0 7l-19.199219 19.199219c-1.199219.597657-2.398438 1.199219-3.800781 1.199219zm0 0"/><path d="m381.398438 267c-1.398438 0-2.796876-.601562-3.597657-1.601562l-8.402343-9.199219c-1.796876-2-1.796876-5.199219.402343-7 2-1.800781 5.199219-1.800781 7 .402343l5 5.398438 15.597657-15.601562c2-2 5.203124-1.796876 7 .203124 1.800781 2 1.800781 5 0 7l-19.199219 19.199219c-1.199219.597657-2.398438 1.199219-3.800781 1.199219zm0 0"/><path d="m75.398438 327c-1.398438 0-2.796876-.601562-3.597657-1.601562l-8.402343-9.199219c-1.796876-2-1.796876-5.199219.402343-7 2-1.800781 5.199219-1.800781 7 .402343l5 5.398438 15.597657-15.601562c2-2 5-2 7-.199219 2 2 2 5 .203124 7 0 0 0 0-.203124.199219l-19.199219 19.203124c-1.199219.796876-2.398438 1.398438-3.800781 1.398438zm0 0"/><path d="m135.398438 327c-1.398438 0-2.796876-.601562-3.597657-1.601562l-8.402343-9.199219c-1.796876-2-1.796876-5.199219.402343-7 2-1.800781 5.199219-1.800781 7 .402343l5 5.398438 15.597657-15.601562c2-2 5-2 7-.199219s2 5 .203124 7c0 0 0 0-.203124.199219l-19.199219 19.203124c-1.199219.796876-2.398438 1.398438-3.800781 1.398438zm0 0"/><path d="m197.398438 327c-1.398438 0-2.796876-.601562-3.597657-1.601562l-8.402343-9.199219c-1.796876-2-1.796876-5.199219.402343-7 2-1.800781 5.199219-1.800781 7 .402343l5 5.398438 15.597657-15.601562c2-2 5-2 7-.199219s2 5 .203124 7c0 0 0 0-.203124.199219l-19.199219 19.203124c-1.199219.796876-2.398438 1.398438-3.800781 1.398438zm0 0"/><path d="m363.601562 512c-64 0-116-52-116-116s52-116 116-116 116 52 116 116-52 116-116 116zm0-222c-58.601562 0-106 47.398438-106 106s47.398438 106 106 106c58.597657 0 106-47.398438 106-106s-47.402343-106-106-106zm0 0"/><path d="m363.601562 487c-50.203124 0-91-40.800781-91-91s40.796876-91 91-91c50.199219 0 91 40.800781 91 91s-40.800781 91-91 91zm0-172c-44.800781 0-81 36.199219-81 81s36.199219 81 81 81c44.796876 0 81-36.199219 81-81s-36.203124-81-81-81zm0 0"/><path d="m363.601562 411c-8.203124 0-15-6.800781-15-15s6.796876-15 15-15c8.199219 0 15 6.800781 15 15s-6.601562 15-15 15zm0-20c-2.800781 0-5 2.199219-5 5s2.199219 5 5 5c2.796876 0 5-2.199219 5-5s-2.203124-5-5-5zm0 0"/></g></svg>