<?xml version="1.0"?>
<svg xmlns="http://www.w3.org/2000/svg" xmlns:xlink="http://www.w3.org/1999/xlink" version="1.1" id="Capa_1" x="0px" y="0px" viewBox="0 0 512 512" style="enable-background:new 0 0 512 512;" xml:space="preserve" width="512px" height="512px"><g><script xmlns="" id="tinyhippos-injected" class="active-path" style=""/><g>
	<g>
		<g>
			<path d="M59.733,34.133H51.2c-4.713,0-8.533,3.82-8.533,8.533S46.487,51.2,51.2,51.2h8.533c4.713,0,8.533-3.82,8.533-8.533     S64.446,34.133,59.733,34.133z" data-original="#000000" class="active-path" fill="#2B2B2B"/>
			<path d="M102.4,34.133h-8.533c-4.713,0-8.533,3.82-8.533,8.533s3.821,8.533,8.533,8.533h8.533c4.713,0,8.533-3.82,8.533-8.533     S107.113,34.133,102.4,34.133z" data-original="#000000" class="active-path" fill="#2B2B2B"/>
			<path d="M145.067,34.133h-8.533c-4.713,0-8.533,3.82-8.533,8.533s3.82,8.533,8.533,8.533h8.533c4.713,0,8.533-3.82,8.533-8.533     S149.779,34.133,145.067,34.133z" data-original="#000000" class="active-path" fill="#2B2B2B"/>
			<path d="M409.6,34.133H179.2c-4.713,0-8.533,3.82-8.533,8.533s3.82,8.533,8.533,8.533h230.4c4.713,0,8.533-3.82,8.533-8.533     S414.313,34.133,409.6,34.133z" data-original="#000000" class="active-path" fill="#2B2B2B"/>
			<path d="M494.933,307.2H486.4v-42.667c-0.007-23.893-9.168-46.876-25.6-64.222V42.667C460.772,19.114,441.686,0.028,418.133,0     H42.667C19.114,0.028,0.028,19.114,0,42.667V384c0.028,23.552,19.114,42.638,42.667,42.667h230.4v25.6     c0.038,32.974,26.759,59.696,59.733,59.733h119.467c32.974-0.038,59.696-26.759,59.733-59.733v-128     C512,314.841,504.359,307.2,494.933,307.2z M469.333,264.533V307.2h-153.6v-42.667c0-42.415,34.385-76.8,76.8-76.8     S469.333,222.118,469.333,264.533z M17.067,42.667c0-14.138,11.462-25.6,25.6-25.6h375.467c14.138,0,25.6,11.462,25.6,25.6v25.6     H17.067V42.667z M273.067,324.267V409.6h-230.4c-14.138,0-25.6-11.462-25.6-25.6V85.333h426.667v100.625     c-28.829-18.858-65.678-20.386-95.969-3.979s-49.143,48.105-49.098,82.554V307.2h-8.533     C280.708,307.2,273.067,314.841,273.067,324.267z M494.933,341.333h-25.6c-4.713,0-8.533,3.82-8.533,8.533     s3.82,8.533,8.533,8.533h25.6v17.067h-25.6c-4.713,0-8.533,3.82-8.533,8.533s3.82,8.533,8.533,8.533h25.6V409.6h-25.6     c-4.713,0-8.533,3.82-8.533,8.533s3.82,8.533,8.533,8.533h25.6v17.067h-25.6c-4.713,0-8.533,3.821-8.533,8.533     c0,4.713,3.82,8.533,8.533,8.533h24.747c-4.083,19.852-21.546,34.108-41.813,34.133H332.8     c-20.267-0.026-37.731-14.281-41.813-34.133h24.747c4.713,0,8.533-3.821,8.533-8.533c0-4.713-3.82-8.533-8.533-8.533h-25.6     v-17.067h25.6c4.713,0,8.533-3.82,8.533-8.533s-3.82-8.533-8.533-8.533h-25.6v-17.067h25.6c4.713,0,8.533-3.82,8.533-8.533     s-3.82-8.533-8.533-8.533h-25.6V358.4h25.6c4.713,0,8.533-3.82,8.533-8.533s-3.82-8.533-8.533-8.533h-25.6v-17.067h204.8V341.333     z" data-original="#000000" class="active-path" fill="#2B2B2B"/>
			<path d="M384,416.563V435.2c0,4.713,3.821,8.533,8.533,8.533c4.713,0,8.533-3.82,8.533-8.533v-18.637     c11.747-4.137,18.796-16.144,16.686-28.418c-2.11-12.274-12.765-21.236-25.219-21.212c-12.454-0.024-23.109,8.939-25.219,21.212     C365.204,400.419,372.253,412.426,384,416.563z M392.533,384c4.713,0,8.533,3.821,8.533,8.533c0,4.713-3.821,8.533-8.533,8.533     c-4.713,0-8.533-3.821-8.533-8.533C384,387.821,387.821,384,392.533,384z" data-original="#000000" class="active-path" fill="#2B2B2B"/>
			<path d="M145.067,170.667c-4.713,0-8.533,3.82-8.533,8.533v25.6H68.267v-68.267H102.4c4.713,0,8.533-3.82,8.533-8.533     s-3.82-8.533-8.533-8.533H68.267c-9.426,0-17.067,7.641-17.067,17.067V204.8c0,9.426,7.641,17.067,17.067,17.067h68.267     c9.426,0,17.067-7.641,17.067-17.067v-25.6C153.6,174.487,149.779,170.667,145.067,170.667z" data-original="#000000" class="active-path" fill="#2B2B2B"/>
			<path d="M91.366,156.1c-3.348-3.234-8.671-3.188-11.962,0.104c-3.292,3.292-3.338,8.614-0.104,11.962l17.067,17.067     c1.6,1.6,3.77,2.5,6.033,2.5h0.384c2.394-0.107,4.633-1.215,6.17-3.055l42.667-51.2c1.954-2.341,2.511-5.547,1.46-8.411     c-1.051-2.863-3.549-4.948-6.554-5.47c-3.005-0.522-6.06,0.599-8.014,2.941l-36.693,44.032L91.366,156.1z" data-original="#000000" class="active-path" fill="#2B2B2B"/>
			<path d="M145.067,315.733c-4.713,0-8.533,3.82-8.533,8.533v25.6H68.267V281.6H102.4c4.713,0,8.533-3.821,8.533-8.533     c0-4.713-3.82-8.533-8.533-8.533H68.267c-9.426,0-17.067,7.641-17.067,17.067v68.267c0,9.426,7.641,17.067,17.067,17.067h68.267     c9.426,0,17.067-7.641,17.067-17.067v-25.6C153.6,319.554,149.779,315.733,145.067,315.733z" data-original="#000000" class="active-path" fill="#2B2B2B"/>
			<path d="M91.366,301.167c-3.348-3.234-8.671-3.188-11.962,0.104c-3.292,3.292-3.338,8.614-0.104,11.962L96.367,330.3     c1.6,1.6,3.77,2.5,6.033,2.5h0.384c2.394-0.107,4.633-1.215,6.17-3.055l42.667-51.2c1.954-2.341,2.511-5.547,1.46-8.41     c-1.051-2.863-3.549-4.948-6.554-5.47c-3.005-0.522-6.06,0.599-8.014,2.941l-36.693,44.032L91.366,301.167z" data-original="#000000" class="active-path" fill="#2B2B2B"/>
			<path d="M187.733,145.067H256c4.713,0,8.533-3.82,8.533-8.533S260.713,128,256,128h-68.267c-4.713,0-8.533,3.82-8.533,8.533     S183.021,145.067,187.733,145.067z" data-original="#000000" class="active-path" fill="#2B2B2B"/>
			<path d="M307.2,179.2c0-4.713-3.82-8.533-8.533-8.533H187.733c-4.713,0-8.533,3.82-8.533,8.533s3.82,8.533,8.533,8.533h110.933     C303.38,187.733,307.2,183.913,307.2,179.2z" data-original="#000000" class="active-path" fill="#2B2B2B"/>
			<path d="M256,273.067h-68.267c-4.713,0-8.533,3.821-8.533,8.533s3.82,8.533,8.533,8.533H256c4.713,0,8.533-3.82,8.533-8.533     S260.713,273.067,256,273.067z" data-original="#000000" class="active-path" fill="#2B2B2B"/>
			<path d="M247.467,315.733h-59.733c-4.713,0-8.533,3.82-8.533,8.533s3.82,8.533,8.533,8.533h59.733     c4.713,0,8.533-3.82,8.533-8.533S252.18,315.733,247.467,315.733z" data-original="#000000" class="active-path" fill="#2B2B2B"/>
		</g>
	</g>
</g></g> </svg>
