<?xml version="1.0"?>
<svg xmlns="http://www.w3.org/2000/svg" xmlns:xlink="http://www.w3.org/1999/xlink" version="1.1" id="Capa_1" x="0px" y="0px" viewBox="0 0 479.998 479.998" style="enable-background:new 0 0 479.998 479.998;" xml:space="preserve" width="512px" height="512px"><g><script xmlns="" id="tinyhippos-injected" class="active-path" style=""/><g>
	<g>
		<g>
			<path d="M479.904,470.798l-56-368c-0.593-3.908-3.951-6.797-7.904-6.8h-44.688L277.656,2.342c-3.124-3.123-8.188-3.123-11.312,0     L208,60.686l-26.344-26.344c-3.124-3.123-8.188-3.123-11.312,0l-61.656,61.656H64c-3.953,0.003-7.311,2.892-7.904,6.8l-56,368     c-0.663,4.368,2.341,8.447,6.709,9.109c0.395,0.06,0.795,0.09,1.195,0.091h464c4.418-0.003,7.998-3.587,7.995-8.005     C479.994,471.593,479.964,471.194,479.904,470.798z M272,19.31l76.688,76.688H243.312l-24-24L272,19.31z M176,51.31     l44.688,44.688h-89.376L176,51.31z M17.312,463.998l53.6-352h338.216l53.6,352H17.312z" data-original="#000000" class="active-path" fill="#FFFFFF"/>
			<path d="M352,135.998c0-4.418-3.582-8-8-8H88c-4.418,0-8,3.582-8,8s3.582,8,8,8h256C348.418,143.998,352,140.417,352,135.998z" data-original="#000000" class="active-path" fill="#FFFFFF"/>
			<path d="M392,127.998h-16c-4.418,0-8,3.582-8,8s3.582,8,8,8h16c4.418,0,8-3.582,8-8S396.418,127.998,392,127.998z" data-original="#000000" class="active-path" fill="#FFFFFF"/>
			<path d="M344,159.998c-13.219-0.037-23.966,10.65-24.003,23.869c-0.026,9.207,5.232,17.613,13.523,21.619     c-11.836,51.65-63.301,83.925-114.95,72.09c-35.865-8.219-63.871-36.224-72.09-72.09c11.875-5.819,16.784-20.163,10.965-32.037     c-5.819-11.875-20.163-16.784-32.037-10.965c-11.875,5.819-16.784,20.163-10.965,32.037c3.169,6.466,9.079,11.163,16.093,12.789     c12.814,60.455,72.211,99.076,132.666,86.262c43.278-9.173,77.088-42.984,86.262-86.262     c12.876-3.148,20.761-16.138,17.613-29.014C364.47,167.64,354.97,160.106,344,159.998z M136,191.998c-4.418,0-8-3.582-8-8     s3.582-8,8-8s8,3.582,8,8S140.418,191.998,136,191.998z M344,191.998c-4.418,0-8-3.582-8-8s3.582-8,8-8s8,3.582,8,8     S348.418,191.998,344,191.998z" data-original="#000000" class="active-path" fill="#FFFFFF"/>
		</g>
	</g>
</g></g> </svg>
