<svg height="512pt" viewBox="-6 0 512 512.00002" width="512pt" xmlns="http://www.w3.org/2000/svg"><path d="m357.066406 108.042969c-4.226562 0-7.648437-3.421875-7.648437-7.648438v-39.21875c0-25.300781-20.582031-45.878906-45.882813-45.878906-25.296875 0-45.882812 20.582031-45.882812 45.878906v39.21875c0 4.226563-3.421875 7.648438-7.644532 7.648438-4.226562 0-7.648437-3.421875-7.648437-7.648438v-39.21875c0-33.730469 27.441406-61.175781 61.175781-61.175781s61.175782 27.445312 61.175782 61.175781v39.21875c0 4.226563-3.421876 7.648438-7.644532 7.648438zm0 0" fill="#d2d2d7"/><path d="m439.839844 90.269531v338.800781c0 5.851563-4.738282 10.585938-10.582032 10.585938h-282.945312c-5.855469 0-10.59375-4.734375-10.59375-10.585938v-338.800781c0-5.855469 4.738281-10.597656 10.59375-10.597656h282.945312c5.84375 0 10.582032 4.742187 10.582032 10.597656zm0 0" fill="#f44545"/><path d="m439.839844 90.269531v338.800781c0 5.851563-4.738282 10.585938-10.582032 10.585938h-71.847656v-359.984375h71.847656c5.84375 0 10.582032 4.742187 10.582032 10.597656zm0 0" fill="#c42d2d"/><path d="m399.085938 172.382812c-4.222657 0-7.648438 3.425782-7.648438 7.644532v259.628906h15.296875v-259.628906c0-4.21875-3.425781-7.644532-7.648437-7.644532zm-7.648438-92.710937v69.765625c0 4.222656 3.425781 7.648438 7.648438 7.648438 4.222656 0 7.648437-3.425782 7.648437-7.648438v-69.765625zm0 0" fill="#f44545"/><path d="m303.535156 123.300781c-4.222656 0-7.644531-3.421875-7.644531-7.648437v-54.476563c0-25.296875-20.585937-45.878906-45.882813-45.878906-25.300781 0-45.882812 20.582031-45.882812 45.878906v54.476563c0 4.226562-3.425781 7.648437-7.648438 7.648437-4.222656 0-7.648437-3.421875-7.648437-7.648437v-54.476563c0-33.730469 27.445313-61.175781 61.179687-61.175781 33.730469 0 61.175782 27.445312 61.175782 61.175781v54.476563c0 4.222656-3.425782 7.648437-7.648438 7.648437zm0 0" fill="#ebebf0"/><path d="m335.828125 335.929688c-7.824219 3.980468-12.324219 11.898437-12.324219 20.113281 0 3.445312.789063 6.9375 2.457032 10.214843l6.941406 13.648438c2.242187 4.402344-.957032 9.625-5.898438 9.625l-26.789062-.007812-63.347656-.019532c-9.992188 0-17.863282 9.613282-14.71875 19.507813 1.925781 6.066406 7.625 10.492187 14.308593 10.5-29.601562-.011719-27.917969-.011719-28.042969 0-3.917968.070312-7.753906 1.925781-10.570312 4.738281-4.226562 4.226562-5.339844 9.808594-4.078125 14.746094 1.582031 6.167968 7.035156 10.492187 14.335937 10.492187h13.332032c-.105469 0-.210938 0-.308594.007813-10.105469.199218-16.988281 10.121094-13.992188 19.523437 1.914063 6.070313 7.589844 10.46875 14.296876 10.46875l46.761718.03125c-10.945312 0-14.132812 10.039063-14.207031 10.140625-.511719 1.527344-.800781 3.144532-.800781 4.851563-.003906 8.28125 6.714844 14.992187 14.996094 15l104.894531.035156h.273437c5.441406 0 10.597656-1.234375 15.203125-3.425781 11.914063-5.667969 20.160157-17.796875 20.214844-31.859375l-.140625-79.277344c0-1.855469-.136719-3.675781-.410156-5.453125h-20.007813c-9.019531 0-17.28125-5.0625-21.367187-13.105469l-18.558594-36.445312c-2.316406-4.554688-7.894531-6.375-12.453125-4.050781zm0 0" fill="#f2bb88"/><g fill="#e3a76f"><path d="m294.582031 469.019531h-87.449219c1.914063 6.070313 7.589844 10.46875 14.296876 10.46875l46.761718.03125h26.390625c2.898438 0 5.25-2.355469 5.25-5.25-.003906-2.898437-2.355469-5.25-5.25-5.25zm0 0"/><path d="m294.582031 438.996094h-100.816406c1.582031 6.167968 7.035156 10.492187 14.335937 10.492187h13.332032c-.105469 0-.210938 0-.308594.007813h73.457031c2.894531 0 5.246094-2.351563 5.246094-5.25 0-2.902344-2.351563-5.25-5.246094-5.25zm0 0"/><path d="m208.414062 419.511719h28.042969c-29.601562-.011719-27.917969-.011719-28.042969 0zm0 0"/><path d="m294.042969 409.011719h-71.894531c1.925781 6.066406 7.621093 10.492187 14.304687 10.5h57.585937c2.898438 0 5.25-2.355469 5.25-5.25.003907-2.898438-2.351562-5.25-5.246093-5.25zm0 0"/><path d="m408.742188 460.691406c-.472657 13.578125-8.601563 25.21875-20.191407 30.734375-4.605469 2.191407-9.765625 3.421875-15.203125 3.421875h-.273437l-119.882813-.019531c.152344 8.132813 6.808594 14.675781 14.984375 14.683594l104.898438.035156h.273437c5.4375 0 10.597656-1.230469 15.203125-3.421875 11.914063-5.671875 20.15625-17.800781 20.214844-31.863281zm0 0"/></g><path d="m426.9375 512h53.808594c11.078125.007812 20.191406-6.828125 20.191406-15.1875v-112.046875c0-8.359375-9.050781-15.242187-20.128906-15.25h-53.808594c-11.074219-.007813-20.140625 6.835937-20.148438 15.1875l-.035156 112.054687c-.007812 8.351563 9.050782 15.242188 20.121094 15.242188zm0 0" fill="#d2d2d7"/><path d="m443.621094 512h37.125c11.078125.007812 20.191406-6.828125 20.191406-15.1875v-112.046875c0-8.359375-9.050781-15.242187-20.128906-15.25h-37.1875zm0 0" fill="#5596fb"/><path d="m471.1875 476.5c5.746094 0 10.445312 4.699219 10.445312 10.445312 0 5.746094-4.699218 10.445313-10.445312 10.445313s-10.445312-4.699219-10.445312-10.445313c0-5.746093 4.699218-10.445312 10.445312-10.445312zm0 0" fill="#0956c6"/><path d="m165.113281 128.535156c7.828125 3.984375 12.328125 11.898438 12.328125 20.117188 0 3.445312-.792968 6.9375-2.457031 10.214844l-6.945313 13.648437c-2.238281 4.402344.960938 9.625 5.902344 9.625l26.785156-.007813 63.347657-.023437c9.992187 0 17.867187 9.617187 14.71875 19.507813-1.925781 6.070312-7.621094 10.492187-14.304688 10.5 23.683594-.003907 27.886719-.011719 28.039063 0 3.921875.070312 7.757812 1.925781 10.570312 4.738281 4.246094 4.25 5.324219 9.886719 4.082032 14.75-1.582032 6.167969-7.035157 10.492187-14.335938 10.492187h-13.335938c.105469 0 .210938 0 .308594.007813 10.101563.195312 16.988282 10.113281 13.992188 19.523437-1.910156 6.066406-7.585938 10.46875-14.292969 10.46875l-46.765625.027344c10.8125 0 14.128906 10.039062 14.210938 10.144531.507812 1.523438.796874 3.140625.796874 4.851563.007813 8.277344-6.710937 14.992187-14.992187 15l-104.898437.035156h-.273438c-5.4375 0-10.597656-1.234375-15.203125-3.425781-11.914063-5.667969-20.15625-17.800781-20.214844-31.863281l.140625-79.277344c0-1.851563.140625-3.671875.414063-5.453125h20.003906c9.023437 0 17.28125-5.058594 21.371094-13.101563l18.554687-36.449218c2.316406-4.554688 7.898438-6.375 12.453125-4.050782zm0 0" fill="#f2bb88"/><path d="m206.363281 261.625h87.445313c-1.910156 6.070312-7.585938 10.472656-14.292969 10.472656l-46.765625.027344h-26.390625c-2.894531 0-5.246094-2.351562-5.246094-5.25s2.351563-5.25 5.25-5.25zm0 0" fill="#e3a76f"/><path d="m206.363281 231.605469h100.816407c-1.582032 6.164062-7.035157 10.492187-14.335938 10.492187h-13.335938c.105469 0 .210938 0 .308594.007813h-73.453125c-2.898437 0-5.25-2.355469-5.25-5.25 0-2.90625 2.351563-5.25 5.25-5.25zm0 0" fill="#e3a76f"/><path d="m292.527344 212.117188h-28.039063c23.683594-.007813 27.886719-.011719 28.039063 0zm0 0" fill="#e3a76f"/><path d="m206.902344 201.617188h71.894531c-1.925781 6.070312-7.625 10.492187-14.308594 10.5h-57.585937c-2.898438 0-5.25-2.351563-5.25-5.25 0-2.894532 2.351562-5.25 5.25-5.25zm0 0" fill="#e3a76f"/><path d="m92.199219 253.296875c.476562 13.578125 8.601562 25.21875 20.191406 30.734375 4.609375 2.191406 9.765625 3.421875 15.203125 3.421875h.273438l119.882812-.019531c-.152344 8.132812-6.808594 14.679687-14.984375 14.683594l-104.898437.035156h-.273438c-5.4375 0-10.59375-1.230469-15.203125-3.421875-11.910156-5.667969-20.15625-17.800781-20.214844-31.863281zm0 0" fill="#e3a76f"/><path d="m94.125 286.246094c.011719 8.351562-9.054688 15.246094-20.117188 15.246094h-53.808593c-11.082031 0-20.199219-6.832032-20.199219-15.195313v-112.039063c0-8.363281 9.054688-15.246093 20.128906-15.253906h53.816406c11.074219 0 20.140626 6.832032 20.148438 15.191406zm0 0" fill="#ebebf0"/><path d="m52.238281 287.367188 12.101563 14.125h-44.140625c-11.082031 0-20.199219-6.832032-20.199219-15.195313v-112.039063c0-8.363281 9.054688-15.246093 20.128906-15.253906h44.210938l-12.101563 14.109375c-4.722656 5.507813-4.722656 13.644531 0 19.152344l3.976563 4.628906c4.71875 5.503907 4.71875 13.640625 0 19.148438l-3.976563 4.628906c-4.722656 5.507813-4.722656 13.632813 0 19.140625l3.976563 4.628906c4.71875 5.515625 4.71875 13.640625 0 19.148438l-3.976563 4.640625c-4.722656 5.503906-4.722656 13.632812 0 19.136719zm0 0" fill="#ffa90b"/></svg>