<?xml version="1.0" encoding="iso-8859-1"?>
<!-- Generator: Adobe Illustrator 19.1.0, SVG Export Plug-In . SVG Version: 6.00 Build 0)  -->
<svg version="1.1" id="Capa_1" xmlns="http://www.w3.org/2000/svg" xmlns:xlink="http://www.w3.org/1999/xlink" x="0px" y="0px"
	 viewBox="0 0 489.4 489.4" style="enable-background:new 0 0 489.4 489.4;" xml:space="preserve">
<g>
	<g>
		<path d="M347.7,263.75h-66.5c-18.2,0-33,14.8-33,33v51c0,18.2,14.8,33,33,33h66.5c18.2,0,33-14.8,33-33v-51
			C380.7,278.55,365.9,263.75,347.7,263.75z M356.7,347.75c0,5-4.1,9-9,9h-66.5c-5,0-9-4.1-9-9v-51c0-5,4.1-9,9-9h66.5
			c5,0,9,4.1,9,9V347.75z"/>
		<path d="M489.4,171.05c0-2.1-0.5-4.1-1.6-5.9l-72.8-128c-2.1-3.7-6.1-6.1-10.4-6.1H84.7c-4.3,0-8.3,2.3-10.4,6.1l-72.7,128
			c-1,1.8-1.6,3.8-1.6,5.9c0,28.7,17.3,53.3,42,64.2v211.1c0,6.6,5.4,12,12,12h66.3c0.1,0,0.2,0,0.3,0h93c0.1,0,0.2,0,0.3,0h221.4
			c6.6,0,12-5.4,12-12v-209.6c0-0.5,0-0.9-0.1-1.3C472,224.55,489.4,199.85,489.4,171.05z M91.7,55.15h305.9l56.9,100.1H34.9
			L91.7,55.15z M348.3,179.15c-3.8,21.6-22.7,38-45.4,38c-22.7,0-41.6-16.4-45.4-38H348.3z M232,179.15c-3.8,21.6-22.7,38-45.4,38
			s-41.6-16.4-45.5-38H232z M24.8,179.15h90.9c-3.8,21.6-22.8,38-45.5,38C47.5,217.25,28.6,200.75,24.8,179.15z M201.6,434.35h-69
			v-129.5c0-9.4,7.6-17.1,17.1-17.1h34.9c9.4,0,17.1,7.6,17.1,17.1v129.5H201.6z M423.3,434.35H225.6v-129.5
			c0-22.6-18.4-41.1-41.1-41.1h-34.9c-22.6,0-41.1,18.4-41.1,41.1v129.6H66v-193.3c1.4,0.1,2.8,0.1,4.2,0.1
			c24.2,0,45.6-12.3,58.2-31c12.6,18.7,34,31,58.2,31s45.5-12.3,58.2-31c12.6,18.7,34,31,58.1,31c24.2,0,45.5-12.3,58.1-31
			c12.6,18.7,34,31,58.2,31c1.4,0,2.7-0.1,4.1-0.1L423.3,434.35L423.3,434.35z M419.2,217.25c-22.7,0-41.6-16.4-45.4-38h90.9
			C460.8,200.75,441.9,217.25,419.2,217.25z"/>
	</g>
</g>
<g>
</g>
<g>
</g>
<g>
</g>
<g>
</g>
<g>
</g>
<g>
</g>
<g>
</g>
<g>
</g>
<g>
</g>
<g>
</g>
<g>
</g>
<g>
</g>
<g>
</g>
<g>
</g>
<g>
</g>
</svg>
