<?xml version="1.0"?>
<svg xmlns="http://www.w3.org/2000/svg" xmlns:xlink="http://www.w3.org/1999/xlink" version="1.1" id="Layer_1" x="0px" y="0px" viewBox="0 0 512 512" style="enable-background:new 0 0 512 512;" xml:space="preserve" width="512px" height="512px"><g><script xmlns="" id="tinyhippos-injected" class="active-path" style=""/><g>
	<g>
		<path d="M487.464,232.092c-4.15-5.321-11.825-6.267-17.147-2.12c-5.32,4.15-6.269,11.826-2.12,17.147    c4.078,5.23,4.078,12.533,0,17.763c-29.884,38.315-68.55,67.106-112.08,84.513c22.879-24.497,36.888-57.346,36.888-93.395    c0-35.907-13.892-68.638-36.576-93.083c25.153,10.114,48.798,24.014,69.966,41.37c2.627,2.153,5.246,4.386,7.79,6.638    c5.052,4.473,12.772,4.003,17.245-1.048c4.473-5.051,4.003-12.773-1.048-17.245c-2.773-2.457-5.632-4.892-8.496-7.239    c-52.22-42.815-118.237-66.394-185.886-66.394c-91.043,0-175.408,41.221-231.463,113.094c-10.979,14.077-10.979,33.74,0,47.818    c56.055,71.873,140.42,113.094,231.463,113.094c91.041,0,175.407-41.221,231.464-113.094    C498.443,265.831,498.443,246.169,487.464,232.092z M43.804,264.882c-4.078-5.23-4.078-12.533,0-17.763    c29.877-38.308,68.535-67.095,112.057-84.504C133.006,187.1,118.995,219.936,118.995,256c0,36.051,14.01,68.9,36.865,93.386    C112.339,331.977,73.68,303.19,43.804,264.882z M256.149,368.567c-0.049,0-0.098,0.001-0.148,0.001    c-0.05,0-0.098-0.001-0.148-0.001c-62.007-0.08-112.424-50.542-112.424-112.567s50.416-112.487,112.424-112.567    c0.049,0,0.098-0.001,0.148-0.001c0.038,0,0.076,0.001,0.114,0.001c62.022,0.061,112.457,50.53,112.457,112.567    C368.572,318.025,318.156,368.487,256.149,368.567z" data-original="#000000" class="active-path" fill="#2B2B2B"/>
	</g>
</g><g>
	<g>
		<path d="M256.001,204.16c-28.587,0-51.84,23.253-51.84,51.84s23.253,51.84,51.84,51.84s51.84-23.253,51.84-51.84    S284.588,204.16,256.001,204.16z M256.001,283.406c-15.108,0-27.406-12.298-27.406-27.406s12.298-27.406,27.406-27.406    s27.406,12.298,27.406,27.406S271.109,283.406,256.001,283.406z" data-original="#000000" class="active-path" fill="#2B2B2B"/>
	</g>
</g><g>
	<g>
		<path d="M256.001,0c-6.748,0-12.217,5.469-12.217,12.217V58.03c0,6.748,5.469,12.217,12.217,12.217s12.217-5.469,12.217-12.217    V12.217C268.218,5.469,262.748,0,256.001,0z" data-original="#000000" class="active-path" fill="#2B2B2B"/>
	</g>
</g><g>
	<g>
		<path d="M256.001,441.753c-6.748,0-12.217,5.469-12.217,12.217v45.813c0,6.748,5.469,12.217,12.217,12.217    s12.217-5.469,12.217-12.217V453.97C268.218,447.222,262.747,441.753,256.001,441.753z" data-original="#000000" class="active-path" fill="#2B2B2B"/>
	</g>
</g><g>
	<g>
		<path d="M437.021,74.98c-4.771-4.77-12.505-4.77-17.279,0l-22.795,22.795c-4.771,4.771-4.771,12.506,0,17.279    c2.386,2.385,5.511,3.578,8.639,3.578c3.126,0,6.252-1.193,8.639-3.578l22.797-22.795    C441.792,87.488,441.792,79.753,437.021,74.98z" data-original="#000000" class="active-path" fill="#2B2B2B"/>
	</g>
</g><g>
	<g>
		<path d="M115.055,396.946c-4.77-4.769-12.505-4.77-17.277,0l-22.797,22.795c-4.771,4.771-4.771,12.506,0,17.279    c2.386,2.385,5.513,3.578,8.639,3.578s6.252-1.193,8.639-3.578l22.797-22.795C119.826,409.453,119.826,401.719,115.055,396.946z" data-original="#000000" class="active-path" fill="#2B2B2B"/>
	</g>
</g><g>
	<g>
		<path d="M115.055,97.776L92.258,74.98c-4.771-4.77-12.506-4.77-17.277,0c-4.771,4.773-4.77,12.507,0,17.279l22.797,22.795    c2.385,2.385,5.513,3.578,8.639,3.578s6.254-1.193,8.639-3.578C119.826,110.281,119.825,102.547,115.055,97.776z" data-original="#000000" class="active-path" fill="#2B2B2B"/>
	</g>
</g><g>
	<g>
		<path d="M437.019,419.741l-22.795-22.795c-4.773-4.77-12.506-4.77-17.279,0c-4.771,4.773-4.771,12.507,0,17.279l22.797,22.795    c2.386,2.385,5.513,3.578,8.639,3.578c3.126,0,6.252-1.193,8.639-3.578C441.791,432.247,441.791,424.512,437.019,419.741z" data-original="#000000" class="active-path" fill="#2B2B2B"/>
	</g>
</g></g> </svg>
